<svg xmlns="http://www.w3.org/2000/svg" version="1.0" viewBox="0 0 3561 1330">
  <style>path{fill:#000}@media (prefers-color-scheme:dark){path{fill:#000}}</style>
  <path d="M1557 0c-29 5-60 7-81 30-21 13-18 41-21 62-3 38 6 76 30 105 7 19 24 31 31 50 16 20 41 32 61 47 8 11-5 24-4 37 3 64-7 132 20 192 7 14 9 30 20 42 13 23 35 39 56 56 1 33-16 66 0 97 8 12 1 26 1 40-18 15 11 43 15 17 4-15-6-56 23-38 11 8 54 36 45 5-22-15-53-19-69-40-11-18-2-40-1-59 4-22 30 5 46 2 35 7 71 11 107 7 20-7 41-11 61-18 21-13 41-27 56-47 15-12 22-30 36-43 16-22 28-47 32-74 14-30-25-23-19 3 0 23-16 42-28 61-28 34-54 77-98 88-16 8-35 9-52 15-37-1-76-1-111-14-21-3-37-19-54-31-23-19-37-46-48-73-30-69-16-149-9-220 13-17 16-42 35-54 14-17 39-20 57-33 27-13 58-14 87-18 14 0 28 1 42-1 35 1 71 1 104 12 23-2 42 12 64 16 35 1 71-2 106 6 31 4 63 9 94 18 11 26 22 52 31 79l16 36c12 29 11 60 14 91 7 43-2 87-3 131-4 22-11 44-20 64-19 26-31 56-55 81l-45 58c-13 23-39 33-53 55l-48 53c-8 16-23 27-30 44a98 98 0 0 0-21 39c-15 27-26 61-12 91 21 25 49 41 80 51 23-2 48-8 69 4 33 9 13-27-10-22-14 0-28-3-42-2-17 8-34-5-49-12-19-13-42-29-36-55 3-31 21-59 35-86 12-20 24-41 42-56 23-30 51-58 79-84 16-18 27-39 44-56l32-38c8-20 21-38 32-58 9-13 15-29 22-44 6-27 5-55 9-83 3-43-2-87-6-130-4-20-11-38-18-58-6-19-15-36-19-56-12-25-23-51-40-73-6-9-11-17-22-21-22-15-41-37-67-47-19-6-39-13-57-23-19-8-40-13-61-16l-87-10c-8 4-27 4-28 15 5 16-11-2-18-3-17-11-39-16-55-29-16-6-25-24-43-27l-71-16c-25-12-53-24-81-26-14 0-28-5-42-6Zm-12 19c27 0 53 3 78 13 30 4 57 20 87 21 16 8 35 8 50 20 17 16 38 26 59 34 20 8 35 23 54 31 15 13 33 23 47 38 17 7 20 19 2 9-36-10-76-9-113-8-22 4-44-5-65 2-18 2-34 7-51 9-11 9-24 13-36 21-25 10-47 29-57 54-5 26-32 7-45-4-15-12-28-26-36-43-16-17-23-39-38-57-14-30-10-65-4-96 6-19 23-32 42-36 8-6 17-6 26-8Zm-39 7c4 3-4 3 0 0zm396 84c15 4 31 0 46 7 28 4 57 6 84 17 18 6 33 16 52 20 14 4 23 16 2 12-44-5-89-3-132-8-15 16-28-5-42-14-3-13-44-22-33-28 8-1 15-5 23-6zm64 68c53 0 109-2 161 12 16-1 31 9 41 22 18 22-22 6-31 6-25-8-52-8-77-14-27-14-62 11-83-12-2-3-22-12-11-14Zm884 83c-9 12-27 12-39 20-37 9-71 26-106 39-15 11-32 18-50 20-3 22-39-1-30 31-1 60-17 120-18 180-2 41-5 81-3 122-2 35-4 70-3 105-4 30-8 61-4 92 17 18 17-13 16-25 0-26 0-51 5-76-3-44 6-89 0-133 7-59 1-120 16-179 2-29 4-58 11-86 38 0 76-2 114-4 27 7 54 2 81 4 78 10 158-10 236-1 33 5 66 1 98 6 31 1 62 7 94 10 33 4 67 15 101 13 38 8 10 71 22 97 3 71 15 142 12 213-6 68 2 136-3 204l-4 109c0 31 29 7 18-15-1-52 1-105 4-157 1-110 2-221-13-330-3-39-2-78-2-117 11-13 31-15 45-24 21-6 39-19 59-26 14-6 34-13 30 10 5 40 5 80 3 120 0 29-2 58 2 87 2 108 10 217-2 326-2 35 0 71-3 106-5 16 2 33 0 49 1 29-5 60-2 89 18 21 25-12 21-27-1-25-3-50-2-75 10-16-1-35 4-52 6-38-16-73-3-112 8-66 7-133 5-200-4-52-3-105-8-158 4-61 1-122 0-183-11-16-35-21-53-23-26-4-52-8-78-9-17 0-34 2-50-4-95-5-191-14-287-20-74-11-149-4-222-16Zm22 18c61 7 121 5 182 12 66 3 133 10 199 16 41-4 82 5 123 7l108 13c15 0 42 10 11 15-13 7-26 15-41 17-20 13-43 17-63 28-8-9-21-3-32-4-29 4-56-12-85-12l-51-7c-52-6-105-8-157-12-59 0-119 0-179 4-59 15-118-16-177-3-29 3-25-4-4-12 40-27 88-33 130-54 12-2 22-11 36-8zm-1185 64c-20-1-22 25-12 38 22 17 36-38 12-38zm186 0c-20-2-33 35-8 35 16 0 29-32 8-35Zm826 61c-13 8-20 20-17 36 3 49-8 97-5 145 3 53-2 106-3 160-3 51-9 102-4 154 24 27 17-36 15-71 1-23 5-46 5-69 3-65 6-130 2-194-3-33 5-65 6-97l4-39c12-9 34 4 51-3 39-6 76 4 115 1 33 8 66 1 98 8 31-6 59 10 89 1 59 10 120 3 179 12l85 7c3 2 13 5 10 3-11 130 24 262 4 392-1 41 1 82 4 123-12 31 27 29 15 1-9-108 6-216-1-324 2-46-1-93-4-139-1-23 2-45-1-67-36-25-92 3-131-17-45-1-91 0-136-5-30-3-60-1-89-5-34 0-67-3-100-3-34-5-68-6-102-7-28 5-57 0-85-3zm-1490 6c-14 2-21 18-31 27-11 18-23 35-38 50-19 1-41-1-55-15-16-11-36-17-52-28-19-9-40-16-61-22-20-11-80-19-63 15 21-13 50-17 77 5 19 6 37 15 55 24 28 11 50 37 81 38 23 7 38-11 49-28 11-13 20-30 34-40 8 14 12 32 19 48 11 25 25 47 40 70 16 18 28 40 32 64 0 15 10 29 3 43-15 12-42 6-60 0-37-5-76-9-110 6-20 4-40 8-59 15-12 0-24 12-36 7-12-19-31-30-50-39-18-13-39-22-61-18-7-8-24-10-23-23 31-3 67 11 94-12 9-15-12-25-18-38-14-24-30-47-46-69-9-20-13-47-34-57-25 6 12 32 14 50 19 36 45 67 63 104-5 14-24 6-36 8-22 2-49-8-68 7 0 18 23 31 38 40 20 8 40 2 59 15 17 14 42 21 53 42-16 18 3 41 14 58 10 11-12 20-17 30l-54 56c-19 4-27 51-44 24-7-13-49-44-43-16 22 6 25 35 47 39-22 54-14 127-7 186 0 25 30 51 24 70-31 12-34 58-74 63-15 15-36 21-54 32-26 8-52 23-78 30-24 6-48 15-73 11-40-2-82-1-117-23-32-10-58-34-78-60-27-38-60-76-67-123-1-35 7-70 10-105 9-28 13-61 33-84 10-9 23-13 32-23 17-15 37-24 59-26 22-14-4-24-18-15-32 8-56 31-82 50-14 15-28 33-29 54-16 40-21 84-22 127-1 15-1 31 5 46 8 16 15 32 24 47 11 25 29 44 45 66 22 29 53 50 87 63 30 12 62 24 95 21 27 3 56 5 82-5 31-9 65-15 94-30 19-13 41-22 59-36 25-20 49-42 73-63 6-12 15 14 22 19 28 39 68 67 111 87 31 20 69 24 102 39 47 15 97 27 146 15 17-3 33-8 49-12 20-12 44-9 65-13 23-8 44-20 62-37 29-19 54-45 72-75 17-20 18-49 33-71 13-36 23-75 17-114 0-43-17-83-35-120-24-27-50-51-76-76-17-14-30-33-51-42-19-21-50-18-70-32 1-22-17-37-26-55-8-12-19-21-31-30-22 7-15-22-23-37-6-29-27-52-43-76-17-21-27-46-37-72-7-15-7-33-14-48Zm-515 5c-28 13 0 63-20 85l-16 33-21 30c-51-30-91-83-151-100-17-12-46-9-25 14 12 15 20 33 27 51 15 20 21 46 33 68 15 31 24 64 38 96 3 7 6 25-3 26-17 3-5 25-7 37 4 23-8 50 12 66 21 3 43-12 63-1 20 10 43 15 65 10 39-2 76 15 115 8 24-8 76 12 64-31 0-17-2-34-5-50 11-17-30-20-7-32 19-22 41-40 66-52 7-27-31-6-43-19-35-10-66-31-81-66-19-27-24-60-36-89-7-12-10-26-20-36-13-17-32-32-44-48Zm8 34c36 26 53 69 63 111 8 26 27 47 39 71 20 26 52 31 79 44-26 16-48 46-54 59-30-2-60-1-90-4-23-5-45-17-69-14l-62-3c-10 3-34 25-28 2 3-38-23-69-34-103-10-29-26-55-37-83-8-13-15-28-21-42 15-3 30 11 44 17 38 17 64 51 96 76 25 15 33-24 45-39 15-26 25-54 26-84 0-3 0-6 3-8Zm2169 115c-16-2-14 18-16 29-5 17-1 35-5 52 11 18 32-2 48 7 8-24-8-56 1-79-8-7-19-4-28-9Zm-86 1c-15 5-7 27-10 40-1 14-11 30-2 43 22 9 55-8 45-35-2-13 1-27-2-38-9-6-21-6-31-10zm153 1c-18-4-11 16-13 27-2 25-14 60 6 76 20-3 46-4 37-32-4-22 19-58-8-70l-22-1zm-62 13c12 6 0 39 6 54-29 5-7-42-7-53zm-84 3c20-4 15 61-5 45-1-15 2-30 5-45Zm151 1c16-4 13 13 13 23 8 15-3 50-19 40-2-21 5-41 3-62l2-1zm-467 22c-23 0-40 15-62 20-13 4-22 18-30 29-6 17-16 33-19 51-8 20 4 41 4 62 8 29 28 59 17 91-12 19-31 45-57 41-16-6-14 23-27 6-15-7-28-17-44-22-17-10-38-12-55-20-26-2-53-2-79-7-13 1-52-7-38 16 35 1 70 4 105 7 21 2 38 16 58 21 28 10 56 26 74 50 7 18 5 37 8 56-24-6-44-25-69-30-32-6-66-7-99-11l-105-4-50 2c-12 21 17 20 31 17 31-4 61 2 92 2 41 0 80 8 121 9 22 8 45 15 63 29 15 12 36 19 41 40 13 25 40 45 36 76-2 35-36 52-63 66-22 13-47 18-70 31-79 29-170 25-253 22l-86 2-55-25c-15-4-23-20-36-28-17-18-37-33-49-55l-14-38c-8-23-6-48-2-72-2-14 7-25 10-39s10-26 15-39c13-27 41-43 58-67 39-30 71-70 92-115 22-43 24-96 12-143-3-15-29-26-20-4 12 31 10 65 6 97-10 40-30 77-57 108-12 4-26-8-41-8-32-10-67-7-97 8-23 1-56 16-47 45 9 13 11 31 27 38 15 4 29 21 44 21 21 2 4-28-10-23-17-6-36-16-42-35-11-15 7-25 20-27 30-9 64-23 94-8 15 2 47 4 20 19-20 23-44 42-61 66-20 21-26 51-34 78-1 14-6 19-19 11a75 75 0 0 1-35-57c-1-19 2-40-4-58-20-6-17 20-15 32 2 27-2 60 21 79 11 36 72 6 46 59 0 24 10 46 15 69 6 10 8 23 18 30 15 17-18 5-27 8-24 0-50 2-69-15-18-22-21-65-13-93 5-18 15-32 28-45 3-27-26-8-30 7-15 17-16 41-17 63-4 30-6 71 26 86 19 11 41 17 64 16 17-1 45 11 51-10 24 20 42 48 72 61 16 9 34 11 50 19 36 3 72 5 108 2 36 1 73 2 109-3 36-2 72-8 108-13 29-8 56-22 85-32 19-12 40-19 56-34 21-11 29-37 32-59 6-16-28-46-7-48 15-10 23-28 36-42 19-29 38-58 49-91 9-16 8-35 12-53 0-25-10-47-16-71-9-20-16-41-28-60-10-18-10-40-16-59-2-33 22-60 47-78 26 2 18-31-3-26l-11-1zm-10 19c4 5-15 15-18 24-12 12-15 29-22 44-3 33 11 68 24 98 15 21 21 48 28 73 11 26 4 57-3 83-9 22-22 41-32 62-12 15-19 35-36 46-14 5-15 37-26 14-12-12-12-32-27-43-14-12 2-33-5-50-1-17-6-37-19-48-18-9-8-14 8-12 26-3 47-21 61-42 15-22 7-48 1-72-8-33-30-71-13-105 9-23 19-54 48-60 11-2 20-10 31-12zm648 25c-32 6-64 26-75 57-10 20-9 43-13 64 3 30 13 64 37 84 13 14 30 24 47 32 20 0 38 12 57 14 42-8 105-22 121-69 4-20 0-41 0-62 0-19-9-37-21-52-15-23-35-42-56-58-19-16-45-2-68-8zm23 18 61 4c16 10 29 25 42 39 12 20 30 38 30 62 3 28 8 64-20 82-10 10-24 12-36 18-21 5-43 16-65 7-13-5-28-5-41-11-19-11-35-26-51-41-10-27-18-56-11-84 3-19 7-39 22-53 19-15 45-24 69-23zm-1802 2c18 9 22 34 37 46 6 14-4 21-17 22-34 2-62 25-96 24-19 2-39 6-58-1-20-9-43-2-64-7-28-2-65 10-87 3-7-16-33-42-3-45 20-10 41-15 62-22 23-5 45-14 69-15 51 2 109 24 156-4zm1799 21c-22 1-38 20-47 37-4 16-16 32-10 50 0 23 24 26 39 25 13-8 19-22 31-31 6-14-7-30-4-47-2-10 6-32-9-34zm36 7c-13 9-3 30-6 44-6 28 9 43 34 41l34 11c15-10 12-30 11-45-11-15-22-33-40-41-9-9-21-10-33-10zm-47 12c5 23 9 54-10 72-19 16-24-19-15-31 4-17 13-29 25-41Zm60 7c22 8 42 28 47 51-10 10-27-4-39-5-18-3-8-29-11-42l1-3zM681 732c27 0 50 20 78 16 29 2 60-1 87 11 11 23 17 69-24 59-25 1-51 7-76 0-36-16-77 7-112-11-17-9-36-10-54-4-14 6-14-38-15-61 11-1 27 0 39-8 25-3 51 1 77-2Zm700 18c23 10 47 13 68 26 18 14 39 25 53 43 31 27 68 55 81 96 9 22 18 44 19 69 2 23 9 45 1 67l-18 63c-9 18-13 38-23 56-20 30-38 63-73 78-14 10-25 25-43 26-32 17-70 14-104 26-32 8-64 17-97 6-27-5-54-13-81-20-27-11-56-18-83-32-25-15-51-30-74-49-34-41-72-84-78-140-8-59-16-126 17-180 17-20 37-37 54-57 17-16 32-33 52-43 21-29 75-10 85-14 27 4 55 2 81 12 32 2 64-5 95-15 12-4 23-11 36-11l32-7zm1785 34c-14 9-30 14-43 24-28 3-31 42-2 47 19 4 38 14 58 7 19 0 80-38 43-54-16-1-28-21-46-13-11 3 3-12-10-11zm1 19c11 6 63 19 30 33-16 12-39 11-58 5-17-2-27-14-5-20 9-9 22-12 33-18zM85 875c-16 10-41-6-50 14-18 11-2 28 11 35 23 7 49 12 72 2 14-5 16-24 4-32-10-10-18-26-37-19zm-17 18c13 2 30-5 39 8 19 23-28 15-42 12-33-3-14-16 3-20Zm1283 16c-21 4-4 58-35 27-10-17-39-1-20 12 18 4 33 24 52 17 7-15 16-44 3-56zm-695 23c-22 7-4 47-38 36-13 0-28 7-28 21-9 20 10 41 31 41 18 2 4 25 4 37-17 3-38-1-55 2-20 11 7 25 20 16 15 2 42-4 31 19-9 18 18 38 16 9-5-18 6-29 21-17 16 2 24 16 14 31-9 20 17 32 17 4-6-23 11-31 29-35 27-14 3-46-19-52-7-14 0-30 3-45 9-3 43 15 25-10-20-5-24-19-15-39-3-20-27-3-20 13 2 18-23 4-33 5-8-9 16-32-3-36zm-623 2c-10 10 5 22 15 26 16 9 35 8 49-4 11-7 45-19 12-22-18 7-38 26-57 10-7-4-11-10-19-10Zm1210 9c-19 16-13 47-26 68-3 14-8 21-14 4l-14-51c-11-20-24 10-13 21l19 55c0 15 11 24 16 39 8 14 13 33 30 38 10-8-4-20-6-29-13-15-14-36 9-25 29 9 58 22 86 36 30 10 10-23-9-23-30-12-58-28-89-35-10-11 9-35 11-52 2-14 15-37 0-46zM30 962c-23 13 18 24 28 31 20 11 54 14 65-10 11-23-12-6-20 2-23 15-60-21-73-23Zm2648 18c-30 22-64 37-95 58l-61 38c-9 9-22 14-34 19 0 13-24 23 1 30 31 11 64 11 97 13 11 2 23 7 33 3 53-20-103-18-75-19-8 0-52-2-34-17 22-12 40-31 64-42 18-12 38-23 55-37 16-4 29-14 43-21 17-13 41 0 59 1 16 2 31 3 46 7 14 21 29-15 6-15l-41-8c-21-6-43-5-64-10Zm-2050 3c20-4 10 40-6 30-28 1-16-33 6-30zm37 3c18-2 26 11 19 27 2 17-10 21-23 10-18-2-11-30-3-37Zm676 5c-14 2-36 7-33 26 3 22 17 44 40 48 26 2 55-38 31-57-13 10-14 58-40 35-15-12-19-38 7-37 7-4 4-16-5-15zm-1313 9c-22 14 28 29 41 31 20 9 39 0 57-9-7-14-50 8-67-9-11-3-20-10-31-13Zm265 2c-14 3-33 4-36 22-15 27 19 41 41 37 20 2 52-3 54-28-1-21-28-30-46-30l-13-1Zm11 17c13 0 38 7 31 21-18 7-66 17-65-10 8-11 22-12 34-11zm2512 1-59 44c-19 12-37 25-53 40-14 10-32 15-45 27-14 2-43 30-13 27 19-11 36-25 56-32 22-19 45-38 68-55 20-9 37-23 54-36 0-7 1-15-8-15zm75 9c-16 5-27 19-43 25-25 13-48 29-71 46-14 11-31 20-42 34-2 12-17 25 7 26 49 11 100 16 150 20 66-3-30-26-68-22l-73-12c-7-6 15-17 20-24 28-19 54-41 86-54 12-10 28-15 40-24 3-5 1-14-6-15zm-2860 5c-18 14 21 29 33 33 20 13 42 4 56-11 6-23-25 15-38 3-18-4-33-16-49-25zm2889 1c-26-3-17 23 7 18 29 12 41-9 94 6 11 13 38-5 17-12-44-14-81-8-118-12zm-2272 2c11 4 37 11 31 27 4 16-6 28-20 15-18-2-21-16-15-32 0-4 1-8 4-10zm2430 24-43 25-69 56c-13 12-31 20-41 34 4 40-18 3-76 15l-112-15c-24 18 16 15 29 18 21 2 43 6 64 7 44-1 16 13-96 2-20-14-38 20-4 14l111 4c25-4 50 3 74 4 14-20-53-19-9-20 31 11 25-22 47-33 19-16 40-30 57-48 18-12 34-27 53-38 9-4 30-9 19-23zm-2381 2c25 5 1 35-3 15 1-4-2-13 3-15zm2486 8c-12 1-20 14-31 20-19 15-39 26-58 40-22 13-45 25-62 44-12 17 4 28 21 29 38 12 80 6 119 11-5 16-20 14-34 11l-94-12c-16-9-62 8-23 13 53 3 106 13 159 17 4-18 21-28 36-37 24-15 46-33 69-50 12-13 29-18 44-26 11-8 25-10 37-17 20-4 9-29-7-16-27 8-56-6-83-9-29-8-61-7-89-17zm-2920 0c-20 7 11 25-11 34 8 19 33 25 52 26 15-4 35-5 43-21 2-19-19 5-30 4-14 11-62-14-47-19 20 8 45 6 60-10-8-12-24 0-36-1-12 0-22-8-31-13Zm-240 5c-20 14 10 32 25 34 18 11 72 5 63-20-19 16-47 14-67 3-11 0-14-11-21-17zm142 5c-13 4-31 13-21 29 2 27 38 27 58 21 19-2 29-27 13-39-15-11-33-10-50-11Zm3019 8c20 7 43 2 64 9 26 5 53 7 78 14-6 7-21 8-28 17-19 12-35 27-53 40-19 13-38 24-58 36-46-10-98 1-142-19 13-18 35-26 51-40 28-20 59-37 87-57zm-3014 8c13 1 31 1 36 14-2 10-20 6-28 7-17 6-28-22-8-21zM7 1114c-17 8 5 23 15 26 30 13 65 3 96-2 20-14-13-9-23-8-31 6-62 5-88-16zm247 5c-25 21 32 35 50 34 26 7 30-26 0-16-17-5-37-5-50-18Zm3117 12c-16 7-32 13-47 22-14 4-26 16-40 23l-74 58c-17 4-26 30-2 19l46-38c24-16 44-37 72-47 6-15 47-12 50-32 1-5-1-4-5-5zm-3230 1c-15 9 2 21 12 25 20 10 54 23 68-3-3-17-30 9-42-5-14-3-25-12-38-17Zm2343 5c-23 2-14 22 5 19 27 8 56 10 84 18 21 3 44 4 64 13 17-12-13-19-24-20-23-2-45-6-66-14-18-6-38-4-55-14l-8-2zm-2468 8c-8 24 35 28 54 25 22 7 48-21 15-13-19 3-38-2-57-1-3-5-7-8-12-11zm2680 0c-15 6-28 18-43 21-14 23 15 10 25 4 10-4 35-13 18-25zm-2446 1c-21 7 4 29 17 32 19 5 45 14 61-3 19-4 16-35 0-15-26 19-57 5-78-14Zm-107 16c-17 6 2 17 9 23 16 18 49 18 61-3-1-17-31 13-44-2-10-5-16-15-26-18zm2840 8c-10 8-65 39-38 48 10-10 19-24 34-28 10-3 17-16 4-20zm378 3c-39 18-74 40-110 61-19 12-36 29-56 39 1 27 28-7 40-11 20-14 38-30 60-39 23-16 53-20 72-41 3-4-1-10-6-9zm-3111 6c-23 16 14 37 32 35 20 1 42 0 59-9 3-26-48 4-66-9-14 2-17-9-25-17zm2435 1c-9 9-37 10-29 26 10 11 49-19 29-26zm-215 1c-20 16 29 19 42 20 37 5 75 4 111 10 8-18-21-15-33-16-29-3-58-6-87-7-11-4-22-5-33-7zm-2373 2c-23 17-67-15-83 6 22 12 51 14 76 12 9 0 21-15 7-18zm3277 21c-28 11-55 26-81 42-21 12-42 24-61 39-26 0-17 34 2 13 15-18 39-22 56-37 26-12 51-28 79-38 10 2 15-16 5-19zm-502 1c7-2 14 4 2 1zm-183 3c-15 5-44 15-45 31 10 16 24-10 45-14 8-4 10-15 0-17zm276 5c-11 8-23 14-34 23-10 18 17 10 25 1 10-3 32-25 9-24zm-497 3c-30 2-6 19 13 17 44 8 90 7 135 7 17 19 35-10 10-14-53-2-106 1-158-10zm252 8c-28 0-1 20 15 15 57 6 119 0 176 17 22-20-28-21-41-22-26 0-51-1-76-6-25-3-49-6-74-4zm-2024 10c-4 4 6 1 0 0zm2308 4c-20 16 18 27 30 19 49-2 105 23 151 12-7-22-42-8-63-15-37-8-75-13-113-16zm-40 3c-11 8-28 13-33 26 12 15 26-7 39-12 8-3 1-15-6-14zm-258 14c-20 15 22 18 35 21 52 8 105 1 157 10 7-14-5-18-17-16-58-6-117-2-175-15Zm301 13c-13 15 14 16 24 18 38 7 78 9 116 19 41 5-2-23-25-20-38-6-76-16-115-17Zm7 27c-32 29 85 18 70 29 32 1 66 14 95 3-39-31-116-3-163-32h-2z" /></svg>
