<svg xmlns="http://www.w3.org/2000/svg" version="1.0" viewBox="0 0 952 1339">
  <style>path{fill:#000}@media (prefers-color-scheme:dark){path{fill:#ccc}}</style>
  <path d="M97 0c-9 2-19 1-30 5-8 5-17 9-24 16-9 12-23 21-31 34-2 7-11 9-12 16 1 10 10 8 15 2 12-5 20 8 26 16 0 5 1 10-1 15l-9 15c0 6-9 8-11 12 6 9 15 5 21 1 12-6 22 4 26 14 1 7 4 13 6 19l6 31c3 6 16 2 13-6-1-7-5-16 0-22 6-8 5-18 10-26 4-7 9-12 10-20 6-10 15-21 27-24 6 0 12 0 17 2-7 7-4 18 8 18l22 5-9 21c-2 5-2 11-5 15-2 9-6 18-6 27-3 9-2 18-2 28 3 12 2 25 7 37 0 7 2 14 5 21 11 34 43 57 75 71 12 8 30 5 41 13 0 10 1 21-5 30-3 10 8 10 15 9 13-1 24 6 37 6 14 1 29 2 43-3 10-8-9-21 0-30 10-4 23-2 33-8 21-7 39-22 50-41l7-22c5-10 6-21 7-32 9-29 3-61 6-91-2-10-2-21-7-30l-10-24c3-6 11-8 17-11 6 0 9 7 14 11 6 6 14 10 18 18a173 173 0 0 1 20 55c-11 12 7 21 15 10 14-7 30-12 46-8 12 1 17 12 16 22 8 5 15-3 14-11 2-38 14-78 4-116-4-14-11-27-16-40-7-19-24-31-43-36-12-6-26-3-39-4-12 1-25-1-34 7-10 6-23 11-27 23-3 7-10 12-16 15l-25 20-10 9c-14-9-30-15-47-17-12-3-26-3-37-8l-25-4c-23 1-50 0-69 15l-17 11c-16 11-17-16-30-20-13-5-17-19-26-27-9-11-21-19-34-25-10-2-21-4-31-8l-9-1Zm-6 13c13 0 25 6 38 7 12 5 22 14 32 22 8 7 15 17 20 27-3 3-6 7-6 11-4 3-7 14-15 9-7-7-21-7-30-3-8 7-20 11-24 21-4 6-4 14-8 20-4 10-10 19-13 30-8-6-7-17-13-24-5-10-18-10-24-16 5-9 7-20 5-30-2-11-14-17-23-24-10-4 2-12 6-16 8-6 15-14 21-21 10-6 21-14 34-13Zm455 9c15 1 31 2 43 12 15 12 20 32 27 49l6 23c3 16-1 32-2 48-1 11 1 23-3 33-7 3-15-4-23-2-9-3-18-3-28 0-6 1-18 9-18-3-5-25-15-51-36-67-7-3-10-10-15-15-4-11-11-21-16-31-4-5-7-10-3-15 5-15 21-22 34-29 10-3 21-3 32-3zM311 67c8 1 15 4 21 8l23 5c20 1 40 6 57 15 11 6 25 10 33 20 7 7 13 15 17 24 4 10 10 21 9 33-4 7-19 7-27 4-10-6-22-10-33-15-9-6-19-8-29-12-12-3-25-7-34-17-5-4-9-10-10-16-3-8-7-18-16-20-12 0-12 15-16 23-5 11-18 15-28 20l-20 10c-25 8-47 21-69 33-8 5-11-2-9-9 8-27 21-54 42-74 9-5 20-8 27-16 9-7 21-8 31-12l28-4h1zm154 0c4 4 7 10 9 15 1 5 6 10 2 14-5 4-11 11-16 11-3 0-9-5-20-14-8-7 5-12 10-17 5-3 9-8 15-9zm-273 8c9 2 10 13 14 19 1 3-4 6-6 9-3 2-5 7-10 6-6-1-16 2-19-4 0-4 1-8 6-10 5-6 9-15 15-20Zm130 44c9 5 10 17 18 24 19 18 48 19 70 32 9 4 17 7 25 12 10 8 24 2 36 5 2 3 0 9 1 13 0 14 0 29-3 43-4 27-9 55-25 78a89 89 0 0 1-50 27c-14 6-28 1-43 0-16-1-32-7-48-10l-34-6c-8-3-16-5-23-10-14-7-29-15-38-28a92 92 0 0 1-26-50c-3-12-3-25-5-37l-1-13c9-3 20-2 29-9 15-10 32-16 49-24 15-8 33-12 47-22 8-7 15-16 21-25zm59 58c-8 0-18 7-13 16 1 12 22 14 22 0 3-7-1-15-9-16zm-118 13c-11-3-11 7-12 13 0 12 22 16 21 2 2-5 5-14-4-14l-2-1zm141 47c-7-2-8 7-10 11-4 6-7 13-12 19-18 17-43 25-67 28-12-2-25-2-37-8-6-5-13-9-17-16-13-12-20 8-9 15 13 9 28 17 43 20 10 0 21 6 30 0 18-2 34-7 49-16 17-6 25-22 33-37 3-6 7-15-3-16zm384 64c-25 0-50 6-76 2-12 0-21 9-31 14-18 7-28 23-38 38-6 7-8 17-13 25-10 20-15 41-16 63 0 17-2 33 2 49 2 19 5 39 13 57 4 10 4 21 11 30 6 12 14 22 23 30l24 27c3 10-16 17-25 14-17-8-34-16-51-27-25-12-50-26-71-45-4-3-9-5-13-9 1-6 6-10 9-14 8-11 14-24 15-37 1-11-16-4-15 4l-5 17-15 20c-12 2-20-8-30-11l-26-11-29-15c1-5 6-9 9-14l20-21c3-15-16-8-20 1l-15 18c-5 13-18 8-27 3-5-2-11-2-15-5-15-4-30-10-46-12-13-3-27-3-41-6-6-9-8-23-19-30-7-8-17-15-28-11-17 2-32 11-47 18l-10 13c-3 4-5 9-9 13-11 0-23 0-32 7-6 3-10 8-17 8-6 3-19 4-10-4 10-6 14-18 24-25 13-12 28-21 41-33 9-8 20-14 28-24-2-11-15-6-19 1l-41 32c-14 7-24 19-33 31-6 7-14 13-17 23-4 9-9 16-18 20-7 6-15 12-21 19-9 8-16 18-20 30-4 21-4 44 4 64 8 15 11 32 13 49l8 27 3 18c2 7 1 14-2 21-2 7-3 16-12 18-7 5-26-4-15-13 4-5 5-13-3-14-10 2-18 19-14 28 10 11 26 14 40 10 8-3 13-11 16-20 5-10 5-23 4-35l-12-41c0-11-3-21-5-31-6-15-14-30-13-47 1-12-2-24 3-36 7-12 18-22 28-33h1c7 18 5 38 14 55 2 6 5 11 6 17 5 7 11 19 20 18 6-3 13-4 19-8 15-9 31-18 45-29 15-6 23-24 40-27 6 5 12 8 19 10 10 5 17 15 26 21 11 8 20 18 32 23 15 9 28 20 44 26 10 7 23 12 35 13 13 0 26 12 38 6 12-8 28-13 39-24 7-6 14-10 18-18 5-9 12-16 18-23 4-9 12-26 23-13 15 13 34 20 48 34 10 8 23 11 33 18l41 22c8 1 10 8 10 14 4 9 4 18 5 28 2 10-1 24 10 31 11 9 25 15 38 21 12 2 23 9 36 10l14 2c-4 14 17 25 15 34 9 22 14 44 19 67 3 15 10 30 9 46 3 14 6 28 6 42 1 24-2 47-1 70 0 15-4 28-5 42l-5 49c-5 15-6 30-10 45-5 16-7 33-18 47-6 9-11 18-20 24s-19 15-31 13c-26-6-34-39-49-58-6-11-11-21-19-31l-18-31c-10-7-17-17-22-28-4-11-16-13-23-20-15-16-31-33-52-42-9-6-20-7-29-10-9-7-19-12-29-16-9-3-5-13-6-20-1-17-2-35 1-52l56-14c27-7 59-14 81-33 3-9-6-16-8-25-2-5-3-11-6-16-3-7-4-14-8-21-8-9-14-19-16-31-10-16-19-34-26-52l-18-44c-1-6-7-10-10-16-6-19 1-40-3-59-1-5-8-2-12-3 0 17 2 34 0 51 4 10 2 21-8 27-10 13-25 18-39 26l-30 13c-27 9-55 14-84 13-9 0-19 0-28-5-12-5-26-3-38-11-8-7-24-8-22-23-2-13-4-26-3-40 0-19-4-37-5-56 0-14-22-8-15 4l4 23c1 27 7 54 5 81 4 6 4 14 1 21l-19 45c-4 12-10 22-12 34l-11 20c-7 9-12 19-14 30-2 9-2 19-7 27 1 13 19 2 24 14 11 7 24 5 36 9 14 4 27 11 42 10 11 0 23 0 34 5 3 8 2 18 3 27 0 11-1 22 1 33 9 14 18-10 11-17-2-14-1-27 1-41 4-3 11 0 17-1h30c5 9 3 21 4 31-2 8 3 28 13 16 3-6 0-13-1-19l-1-25c4-7 13-3 20-4 13 1 35-5 45-1 1 21 3 34 1 55-2 22-18 3-55 10l-48 2c-17 7-34 13-49 24-21 15-46 26-56 53l-28 44c-8 13-11 29-21 41-12 20-31 37-51 50-17 1-40 2-51-13a62 62 0 0 1-17-58c9-12 16-26 30-34 11-8 23-14 37-15 23-7 52-12 67-33 7-7 14-15 15-25 1-11 3-22-4-31-6-10-6-24-17-30l-35-21c-13-7-28-7-42-8-18 3-39 7-53 20-9 8-2 22 10 14 15-7 33-2 45 9 7 5 8 15 10 23 0 12-6 22-13 30-7 9-15 19-27 23-15 4-31 7-45 16-23 13-32 38-36 62-3 20 3 40 6 59 3 12 5 24 10 35 3 13 9 25 15 36s9 24 21 30c9 5 18 11 28 14 12 0 24 1 36-3 15-8 28-21 40-33 12-11 26-22 35-37 12-22 33-36 50-54 12-11 17-27 24-41 6-8 14-15 22-21l58-16c19-2 37 0 56-1 11 5 25 2 37 5 22 10 43 21 61 38 16 8 29 20 44 30 13 13 27 27 34 45 7 16 20 28 32 41 13 11 25 24 41 32 30 21 66 41 104 30 12-2 24-7 36-10 9-6 17-14 27-19 8-6 12-15 18-23 6-7 8-16 14-22 1-10 5-18 8-26 7-20 14-40 14-61l6-69c6-38 10-77 4-116-1-15-3-30-7-45-1-17-6-33-9-50-1-9 0-18-4-26-3-10-8-19-9-29-3-6-3-12-7-18l-14-38c-2-7-2-15-7-20 9-3 22-10 19-22-3-7-3-14-7-20-2-6-3-13-6-19l-19-31c-4-8-10-16-12-25 3-8-6-8-10-11a83 83 0 0 0-45-14c-9-2-13-12-19-18-11-21-33-41-29-67 0-11 6-23 17-27 14-5 30-1 44 1 22-3 46-6 62-22 9-7 16-15 19-26 2-7 12-10 18-7 8 2 14 8 17 16l9 18c3 9 3 19 5 29-7 5-9 14-8 22l-6 19c8 13 19-6 17-16 1-5 1-23 9-12 7 6 14 28 24 15 6-7-6-10-10-15-8-7-15-17-15-28-1-10-4-21-8-30-2-12-12-20-20-28-5-7-24 0-19-12 3-13 8-25 9-38 4-24-3-51-19-69-5-7-11-11-18-16-6-5-13-6-21-6-14-2-27-5-41-5zm-69 16c6-1 12 2 19 1 32-3 64-1 97 1 12 2 18 14 26 22 11 15 17 35 12 54-2 15-3 30-12 42-4 9-17 5-25 6-8-1-17 0-24-4-15-5-31-9-42-23l-21-21c-1-10-14-6-13 2 5 15 20 22 31 33 10 8 21 16 34 19l24 7 26 2c-2 10-8 17-16 23-10 6-21 11-32 15h-51c-12 0-24 4-32 14-8 6-9 16-9 24-1 10-2 20 3 29 6 15 13 29 23 42 9 15 21 28 32 43 7 12 16 23 22 35 3 5-4 6-7 6-11 3-22 5-34 2-7 1-15-2-15-10-2-7-7-13-8-20-9-18-30-27-41-44-13-16-31-29-39-48l-6-21c-5-20-12-39-13-60-3-36-2-73 16-105 3-9 6-19 14-27 6-7 12-15 21-21s18-13 28-17l12-2zm91 36c-12-3-15 15-5 19 4 3 11 8 13 0 4-7 1-19-8-19Zm-503 4c13 2 26 7 39 8 7 2 21 0 22 9 2 5 6 13-2 14-12 3-24 4-35-1-9-3-17-5-26-5-5-7 2-18 1-25zm149 24c-8 3-3 9 4 11l62 25c15 10 24 28 20 46-4 10 6 20 13 11 3-11 2-22 1-32-2-8-5-15-9-22-8-8-16-18-28-19-17-3-32-13-49-18l-14-2Zm-212 77c5-1 3 6 4 9l2 30c5 14 14 25 22 37 1 4 0 10-4 14-6 8-19 10-27 5-11-8-25-11-33-22-3-4-7-7-7-12-4-12-7-27 3-37 7-12 20-18 33-23l7-1zm18 5c7 1 21 15 12 21-11 4-16-7-13-15l1-6zm8 35c6 5-6 12-6 2l6-2zm27 2 22 1 10 2c12 3 24 2 35 9 14 7 30 8 43 16 3 5-4 10-5 15-6 9-7 20-10 30-2 8-16-4-22-6-8-6-17-13-27-16-11-1-20-10-31-9-10 0-23-1-27-12l-10-14c-6-5-4-9 1-3 9 3 11-15 21-13Zm-125 3c4 1 10-2 12 2 6 12-7 15-13 23-8 0-24 3-13 13 10 8 21-5 30-10 10 2 14 17 25 20 5 2 8 5 2 8l-15 13c-9 8-20 13-29 20-7 2-10 8-16 12s-13 6-19 8c-8 3-12-2-14-8-6-10-11-20-12-31-3-14-5-28-1-42 8-11 23-17 37-16 9-5 14-14 26-12Zm253 31c10 3 18 9 27 13 9 6 21 8 31 13l20 12c3 5-4 9-5 13l-14 19c-9 14-23 24-37 34l-27 14c-10-3-20-5-31-5-13-3-25-10-37-16-13-10-29-17-43-24-9-7-15-16-24-21-4-7-22-14-16-21 6-4 10-11 17-14l25 4c7-1 12 2 18 5 9 5 20 6 28 11 15 6 26 18 41 22 10-3-4-14 7-18 1-11 5-23 11-33 2-3 5-8 9-8zm358 105c12 0 22 6 27 16 2 7 2 28-9 18-6-9-13-19-18-30-1-2-4-5 0-4zm-86 11c11 3 18 13 21 24 7 11-5 15-13 9-9-4-21 0-27-8-4-4 0-12 3-15l16-10zm125 29c10 5 12 16 18 24 6 9 7 21 12 30 8 13-4 23-17 22-23 0-46 1-69-1-12-3-25-4-37-6-12-5-25-10-35-17-6-6-16-11-15-20l1-19c10 0 19 5 28 5l26 4c10-1 21 2 31 4 8-2 18-2 26-5 11-4 23-9 29-19l2-2Zm-305 25c8 7 9 17 13 26 4 10 6 22 13 31 3 11 11 21 14 33 11 21 21 42 30 64 6 7 3 10 8 17 8 22-24 18-54 33-33 9-66 17-100 18-38 2-76 3-113 2l-54-6c-7-2-14-5-22-6l-38-11c-4-3-10-4-14-8-2-19 8-38 18-54s14-35 21-53c3-6 5-14 9-20 3-8 7-15 9-23 5-7 12-1 17 2 8 6 18 8 28 9 12 1 23 10 36 8 65 4 129-23 179-62zm291 63c10 0 21-1 30 2 8 25 21 47 27 72 3 7 7 12 8 19 2 11 6 22 6 33l6 37 7 35 6 63c1 25-2 50-6 74-4 35-14 135-10 104-13 33-22 72-53 94a88 88 0 0 1-42 19c-12 3-23 7-35 6-20 0-36-11-53-20-15-11-33-20-46-34-11-13-23-25-32-38-5-9-10-18-16-25-18-28-46-45-72-65l-32-20c-16-6-30-16-48-16-14-3-29-4-43-4-31-5-59 7-88 14-17 2-28 15-39 26-6 5-5 13-10 19-10 11-16 26-29 36-12 10-26 21-32 36-4 9-11 15-18 21-14 13-30 25-42 39-5 6-11 11-19 12-12 3-24 1-35-4-12-6-22-16-29-28-4-10-6-21-11-31-1-9-8-16-9-26-5-22-11-46-8-69 3-15 8-31 21-41 10-11 25-18 41-19 19-3 33-17 43-32 4-7 9-12 11-20l6-17c-2-15-7-31-21-41-7-5-25-12-6-13 15 1 30 2 43 10 14 9 30 18 35 35 3 7 7 14 6 22-1 9-6 17-11 25-8 7-14 15-25 17-24 12-54 9-75 26-13 8-22 20-30 32-7 8-10 18-9 28 1 6-1 13 1 19l10 20c8 6 11 16 18 24 13 9 31 13 47 10 10-3 20-4 27-11 14-10 24-24 36-37 5-10 13-18 18-28 7-15 16-30 26-43 9-9 8-24 17-33 7-11 17-20 29-26 17-10 34-22 53-29 9-2 17-7 26-6l97 1c21 10 41 21 63 30 23 9 36 30 55 44 6 5 9 12 14 18 6 10 16 17 22 28 6 9 10 19 18 27 9 13 16 28 25 42l16 24c9 12 20 24 36 24 11 3 22-3 32-9 19-12 32-32 39-52 6-18 11-36 13-54a609 609 0 0 0 0-289l-11-31-4-19c-2-7-3-16-9-22-3-5-12-18 1-15h22zm-413 411c-1 16 4 33 1 49-5 1-13-3-20 0-12-1-21-13-19-25l-7-58c2-11-13-19-17-6 1 10 6 20 5 30 2 17 6 34 6 51 3 13-12 18-16 30-10 17-14 37-15 56 0 6 8 8 11 13 7 8 14-1 20-5 9-3 17-7 25-12 8-6 13-16 20-23 4-6 11-18 16-6 6 11 20 16 30 22 15 7 31 12 46 18 12 3 25 2 38 2 14-3 2-15-4-21-7-8-12-18-18-27-6-12-10-26-21-34-4-2-4-5-4-10-2-27-6-54-2-82-1-16-22-5-15 7l1 76c-8 9-21 9-32 9-15 3-11-17-13-26-4-26 1-54-4-80-20-10-13 41-12 52zm-35 57c6 2 12 4 18 4l13 2c2 8-6 15-10 21-11 16-23 32-42 38-8 6-15 4-9-15 4-18 13-42 30-50zm106 6c12 6 15 21 21 32l16 25c-8 5-20 0-30-3-19-7-40-13-55-27-6-7-18-24-3-27 7 3 15 6 23 4 9-1 18-4 28-4z"/>
</svg>
