<svg xmlns="http://www.w3.org/2000/svg" version="1.0" viewBox="0 0 4467 2012">
  <style>path{fill:#000}@media (prefers-color-scheme:dark){path{fill:#ccc}}</style>
  <path d="M589 0c-14-1-20 14-32 18-12-4-25-3-37 2-11-7-27-11-37-1-9 8-5 20-10 29-5 6-14 5-21 3-8-3-16 0-22 4-12 8-14 24-13 37 4 11 6 23 11 33 7 10 2 20-3 29-5 14-11 29-11 44 4 10-5 19-1 28 1 10-5 20 1 29 3 8-3 17 3 25 5 7 5 15 7 22 1 8 6 13 9 20 2 7 8 13 12 19 8 9 17 17 22 27 15 13 29 26 48 33l40 17c20 8 42 7 63 2 15-2 30-9 45-14 19-6 38-13 55-22 11-8 20-17 28-27 12-12 18-28 23-43 3-16 10-32 9-48 1-32 5-66-8-96-7-11-5-26-15-35-7-8-8-20-15-29-2-11 9-20 9-31 0-9 1-20-3-28-4-11-14-22-27-20-13 1-26 1-38-5-13-1-28 2-38-9-9-7-20 3-30-1-6-8-14-12-24-12Zm3 20c11 3 1 14-2 19-1 9-13 12-16 2-4-7 2-13 8-16 3-3 6-5 10-5zm44 11c10 3 0 16-8 14-8-5 0-14 8-14Zm-136 4c10 0 13 9 13 17 3 7 4 22-7 20-5-4-12-9-13-16-2-6-1-14 4-19l3-2Zm41 4c15-3 6 24-1 10 0-4-5-10 1-10zm132 3c11-3 13 16 1 14-8 0-14-11-4-14h1zm45 1c11 1 16 15 15 25-1 7-1 20-11 22-7-2-10-10-16-15-5-6-7-17 0-23l12-9Zm426 15c-16 1-31 3-47 1-13 2-25 7-38 10-12 5-22 14-33 20-17 7-28 24-46 30-14 8-16 25-26 36-5 11-9 22-15 31-8 11-10 24-15 36-6 14-9 30-15 44l-5 33c-8 15-2 32-4 47 0 11 1 23-4 34-2 13 2 28-4 41-2 14-8 27-9 41-3 7-6 17-3 25 7 1 9-18 14-5 1 11 13 15 18 5 5-6-3-19 8-21 2 7 8 12 6 21-2 7 4 12 7 17 3 6 8 16 16 10 1 15 1 30-3 44l-7 34c5 4 14 4 19 4 7-6 1-16 8-20 1-14 1-28 4-41 2-10 5-20 3-30 2-11 6-20 6-31 3-8-4-17-2-26 1-12-2-25 3-37 4-11 14-2 21 1 7 6-2 16-1 24a398 398 0 0 0 1 106c2 9 13 11 11 1 8-5 5-16 4-23l3-27c0-15-1-30 1-45 4-8 5-20 14-22 11-1 19 7 30 8 17 6 35 9 53 12 10 4 21 1 32 3 17-3 35 5 53-2l26-8c5-10 19-5 16 6-2 8-8 16-8 25-1 12 1 24 3 36-1 9-7 18-4 27 2 20 2 40 6 60 3 11 18 2 10-6-3-3 5-9 1-14-4-9 6-17 2-27-2-8-3-16-1-24 2-9 6-18 3-27-1-11 0-23-4-33-2-3 8 3 7-4 1-11 8-20 4-31 0-6-5-12 4-13 6-2 14-15 19-7 3 14-6 28-4 42-2 24-2 49-3 73 0 13 2 26 4 39 0 6 12 18 13 7 0-9-2-18 1-26-7-7 6-15 1-23 1-9-2-18 1-27 1-11-7-21-2-32 1-16 6-31 6-47-1-11-3-22 1-33 3-13 11-24 14-37l12-31c-3-9-1-17-1-26-1-8 9-18 9-5 3 11 0 21-3 31l-3 48c-2 21-7 43-5 64-1 16-9 31-8 47-1 11-6 21-5 31-3 9 3 18-2 26-2 8-5 28 9 23 11-3 4 14 7 19 2 14 5 28 13 40 8 10 11-6 8-13-5-22 1-45-4-67-2-9-2-18-2-27 6-11-3-22 0-32 2-16 6-32 4-48 0-14 5-28 6-41l1-30 3-30c1-10 0-20-2-29 1-12 5-23 3-35 0-10-2-19-4-29-3-10-3-22-9-32-4-8-7-16-14-21l-22-20c-7-6-11-15-18-21-10-17-22-33-39-43-13-4-24-12-36-17-11 1-21-4-29-11-14-1-28-8-43-6Zm1560 3c-11 4-14 17-21 26-3 8-7 19-18 17-10 1-20 2-30-1-3-7-9-13-17-16-11 3 5 16-3 21-8 4-17 3-25 4-10 2-14-8-21-13-7-6-21 4-16 11 9 4 13 17 1 18-17 8-29 23-47 30-7 4-13 10-21 13s-16 9-20 18c-6 9-18 14-19 27-9 8-4 23-14 31-7 5-2 17-4 26-2 25-2 51 8 74 4 9 5 19 12 27 6 15-2 32 3 47 2 9-4 20 4 27 9 6 12-5 10-12 0-9-1-18 1-27 11 1 6 17 7 25 0 10-6 20-2 30 2 8 1 14 2 21-2 7 1 21 10 16 9-14 2-30 5-45-2-8 3-22 13-17 8 4 8 14 7 21l1 67c9 7 16-4 15-13l1-39c0-7 0-21 10-14s4 20 5 30c0 13 0 26 5 37 8 11 14-5 11-12 1-15 0-31 4-46 10-6 14 9 12 17 0 13-4 28 4 40 7 11 15-4 12-12l1-32c0-13 19-10 18 2l3 31c0 8-2 17 2 25 5 13 16 0 14-9v-35c-5-10 6-25 16-21 9 6 5 19 7 28-2 7-6 26 7 22 8-8 7-21 8-31 0-8 2-22 13-22 6 5 6 15 5 22 0 8-2 18 5 24s11-6 11-11l1-25c-3-9 4-22 15-16 7 5 4 15 4 22 1 10 2 20 1 30 1 11 16 9 15-1v-31c1-10-2-22 7-29 8-7 11 3 10 9 3 10 0 20 3 30 1 13 18 0 12-8v-43c3-6 16-16 19-6 2 8 0 17 1 26-2 9 10 17 14 6s0-22-1-33c0-8-2-17 0-25 0-9 14-17 15-4 1 11 4 22 3 33 10 10 11-9 10-16-1-15-4-31-4-47 0-19 5-37 11-55 4-9 1-19 2-28 4-17 4-34 0-51l-7-28c-6-8-15-13-20-22-8-11-16-22-28-28-7-6-13-14-19-21-8-9-20-12-30-18-8-5-11-14-19-17-8 1-19-1-22-9-1-8 7-14 10-21 4-6 9-15 2-21zm-999 2-31 1c-10 4-21 3-31 8-12-2-17 11-20 20-4 10-11 20-12 31-2 8-8 21-16 11-7-6-14-13-23-13-13-2-26 3-34 12-10 7-18 14-21 26-5 10 2 22 3 33 5 8 7 18 15 24 9 3 17 9 26 8 7 1 20-2 21 9 0 8-7 16-2 23-6 7 5 15 11 12 5-9 6-19 8-29 2-12 4-25 11-35 14 0 19 17 33 18l30 7c16 4 33 0 49 0 15-1 30 3 45-3 7 0 14-10 20-7 0 8-5 15-6 23-5 22-8 45-16 67-7 13-22 20-37 20-9 1-18 5-27 3-9-1-18-4-27-4-8-3-17-6-25-11-12-6-26-8-38-15-11-3-17-13-25-18-9 3 0 17 5 21l27 14c8 1 14 7 22 10l32 11c22 8 46 8 69 2 8-3 18-3 25-8 8-6 11-15 16-23 5-11 10-22 8-34 0-12 3-23 7-33 5-10 10-20 5-31 1-9 6-18 7-28 2-9 4-18 8-26 0-18 4-34 6-51-1-14-19 3-20-9-11-3-16-19-29-19-16-2-33-4-48-11-7-2-16-1-21-6ZM627 67c7 5 10 22 22 15 6-3 18-10 20 0-3 11 11 12 18 11 7-2 21 4 12 12-6 7 5 18 12 20 11-3 21 5 24 15 6 14 15 27 19 41 3 12 1 26 6 37 5 16-3 31-3 46 2 10-1 18-2 28-4 14-3 31-13 43-4 6-8 13-14 18-7 7-16 12-23 18-6 5-13 8-20 10-14 7-32 9-44 19-16 5-32 6-48 9-18 1-34-4-50-10-23-10-48-17-63-38-5-6-8-13-13-18l-21-29c-4-9-4-18-8-27-7-16-6-34-6-51 6-13 0-27 3-40 2-13 5-28 13-40 2-7 15-4 12-13 0-10 8-17 15-22 7-4 16-4 24-2 8 3 17-2 16-11-6-11 8-17 17-14 11 4 13-17 23-11 11 5 22 1 28-8 6-8 14-1 21-1 9 1 15-4 23-7Zm1074 12c10 5 20 5 31 7 13 8 30 3 45 9 6 3 14 9 14 16-2 9-12 10-19 14-7 3-14 6-22 6l-29-4c-18-3-37-10-54-18-6-5-24-8-19-19 7-7 17-6 26-8l27-3zM445 82c3 7 2 17 8 23 4 10-10 19-13 7-4-9-6-22 3-29l2-1zm679 2c5 6-10 8-14 12-6-3 10-14 14-12Zm55 3 27 17c5 2 6 11-1 7-5-7-20-6-16 5 8 8-5 16-12 18-15 5-29 13-44 12-24-2-47 10-71 7-15 2-30 5-44 10 7 4 17 3 25 3 17-1 35-1 52-3 15-1 29-1 43-5 14 1 27-3 39-7 8-7 18-11 27-15 11 7 18 18 27 26 15 14 28 29 44 42 8-8 1 11 10 7 9 0 13 11 20 15 10 8 12 23 10 35 1 18-1 37-7 54-8 11-9 26-15 39-6 14-15 27-26 38s-21 24-36 30c-6 6-19 5-21 15 2 10-12-10-16 1-40 2-82 2-121-12-20-5-41-8-58-21-15-9-32-17-42-31-5-12-13-22-17-33-3-11-3-23-6-34-2-9-1-19-1-28 3-11-2-22 3-33 4-9 6-19 5-29 4-10 7-21 13-31 5-8 15-11 24-16l27-18c15-15 38-17 58-19 16 0 28-15 43-18l55-28 2-1zm53 15c8 1 2 8-2 2l1-1zm408 9c13-1 19 13 31 15 11 3 22 8 33 10 30 11 64 12 93-3 10 0 6 13 4 19l-9 39c-8 7-20 15-29 6-9-7-17-15-27-20-18-10-34-23-53-28-9-3-19-2-28 1-12 3-23 9-33 17-7-6-1-16 1-23 4-10 5-20 9-29 1-3 5-4 8-4zm-425 6c10-2 2 11 0 0zm1448 2c12-6 9 18 19 12 2-9 12-11 18-4 11 9 22 18 35 23 11 8 24 15 31 27 13 9 23 20 32 32l16 24c6 14 12 28 8 43 0 9 3 19 1 28-4 9-16-3-16 9l2 28c0 5 2 21-5 11-6-9 0-19-4-28-5-9-19 0-12 7-1 7-9 12-6 20v59c-4 9-20 9-17-3v-30c0-11 6-22 5-33-1-8-3-17 0-24-6-10-17-2-17 7-3 8 3 15 2 24l-2 36-1 42c-4 5-17 14-18 2 2-8 2-17-2-25-1-9-15-12-14-1 1 14 6 29-2 41-7 6-20 4-16-7-2-10 4-25-7-30-8 1-7 13-8 20 0 9 2 19-5 27-8 7-17-4-15-13-1-7 0-17-8-20-13-5-7 12-7 20 0 7-2 19-11 21-15 3-9-15-11-24 2-14-18-11-17 1-2 7 1 25-11 21-11 0-9-12-12-20-7-10-15 5-15 12-11 8-14-7-12-15 1-7-1-26-12-19-7 6-2 19-11 23-10-1-12-11-10-19 1-8-1-17-5-25-5-8-17-2-12 7-5 7 16 13 3 17-14 2-24-14-21-26 4-9-3-19-13-17-6 2-12 3-9-6 4-5 12 0 13-7 8-1 18 12 23-1 1-8 10-19 2-24-8-2-16 1-21 6-9-5-13 8-17 9-7-6-17-12-18-22-2-10-6-20-6-31l4-35 8-31c3-10 7-19 14-27 16-22 39-36 62-51 12-11 27-18 42-24 4 5 16 16 17 3 0-8 8-12 16-12s20-2 20 10c-1 12 21 10 19 0-5-5-13-17 0-17 5-1 10-2 14-1zm-1408 14c13 5 22 16 32 26 8 11 12 25 19 37 2 6 9 18 2 20-8-13-15-27-25-39-8-10-15-21-21-32-1-5-15-8-7-12zm322 4c6 3 15 17 6 21-6-5-16-9-20-14 4-4 9-6 14-7zm10 23c6-1 14 12 3 10-2-2-8-7-3-10zm85 3c9 2 17 7 27 10 9 1 15 9 22 13 11 6 22 10 31 18 10 9-5 15-13 14-13 0-26-2-39 1l-38-3c-9-7-22-8-27-18-8-5-4-16 2-21 10-9 22-14 35-14Zm-1015 3c-7 3-18 2-23 10-1 7-3 16 3 22 4 6 15 9 20 2 7-8 12-21 6-30-2-2-3-4-6-4zm910 2 23 17c-2 9-14 7-20 5-8-1-17-10-10-17 2-2 3-7 7-5zM529 182c-9-2-15 7-14 15 2 8 0 18 6 24 7 2 14-3 19-8 6-8 9-21 0-28-3-2-7-3-11-3Zm1010 6 18 15c-3 11-16-1-18-6-2-3-3-7 0-9zm-508 3c-4 10 2 20 2 31 1 7 17 12 17 3-1-8-4-17-3-25-5-4-9-10-16-9zm37 0c-7 5-11 13-11 20 3 10 16 4 17-3 4-7 1-15-6-17zm29 8c-8 6-14 15-16 24 4 9 18 4 21-2 8-5 13-17 1-19l-6-3zm483 4c13 3-8 12-3 1l3-1zm-395 2c-6 7-2 18 4 24 10 6 11-14 8-20-3-4-8-5-12-4Zm1526 1c-11 3-21 15-18 27 4 10 17 16 27 13 9-4 8-15 7-23 3-9-7-13-14-16h-1zm577 0c-17 0-26 20-43 19-19-4-39-10-59-5-20 1-41 2-61 7-14 1-27 10-35 20-6 14-11 28-23 37-10 8-22 15-27 27-10 17-20 34-23 53-2 12-2 23-5 34 2 13-10 22-14 32 1 6-12 15-4 18 8-1 8-19 19-12 9 8 10 20 15 29 8 18 11 37 9 55 1 17-6 32-8 48-2 8-4 17-1 25 1 11 3 23 7 35 3 15 10 30 14 45 4 10 17 6 15-4 0-8-5-14-6-21l-11-35c-4-10-7-22 1-31 5-5 8-15 14-18 5 6 7 15 9 22 6 20 6 41 2 61-7 5-2 16 6 17 8 3 14-6 15-13 2-12 1-24 1-36-3-10-3-21-8-30 1-7-5-14-5-21l-9-30c8 2 13 10 18 15 5 9 14 15 24 19 10 5 19 11 30 14l40 16c6 8 17 4 25 5 21 0 42 6 63 4 18 0 36-3 52-11 16-5 31-14 45-24 8-8 19-13 26-23 5-8 14-14 17-23 5-9 16-12 18-23 2-6 16-17 17-4 1 12 1 25-6 35s-13 22-12 34c-1 13 5 25 5 37 11 15 9 35 10 52 2 10-2 23 4 31 11 3 9-14 9-21 1-11-1-21-2-32 0-8 1-16-3-24-4-16-12-31-11-47 3-10 11-17 13-27 4-10 10-19 9-30-2-4-3-18 1-15 3 10 8 20 14 29l5 31c0 12 7 23 7 35 2 10 7 20 6 30-4 7-2 20 8 14 9-8 8-21 5-32l-7-27c-3-9-6-18-1-27 6 5 16 10 18-1-5-18-25-25-30-42-3-10-7-22-4-33 7-16 8-34 8-51 2-12-1-23-6-34-1-13-11-23-14-36-3-12-8-23-13-34l-7-18c5-6 16-2 24-1 12 0 4-15-5-12-18-4-38 0-53-12-6-6-16-7-22-13-12-8-22-19-35-24-16-12-37-14-54-24-7-3-14-3-21-4Zm-2072 6c-8 2-11 14-6 21 8 1 16-10 13-17-1-3-4-4-7-5zm2623 0c-10 2-4 23-17 19-2-10-14-11-22-8-6 0-9 9-12 10-7-6-9-20-21-16-10-3-10 12-14 14-5-6-12-10-19-12s-22 1-17 11c5 6 16 19 5 23-7-1-15-11-24-5-11 2-7 15-5 19-8 2-26-7-26 7 2 6 13 16 2 21-6 6-17 8-20 17-6 7-18 4-25 10-2 5 8 11-1 13s-19-3-26 4c-5 10 11 10 15 17 1 7 0 15-1 22-1 8-5 15-6 23-2 9-6 17-5 26 0 9 6 16 6 24 1 12 0 24 5 35 7 7 11 17 16 26 5 12 13 22 22 32 7 7 17 11 26 17 24 16 51 29 77 40 10-3 21 4 21 14-4 9 2 18 11 15 8-1 17 0 23 5 6 7 23 9 19-4-1-7 0-20 10-18 8 0 14 8 20 11 7-2 12-15 20-9 5 8 4 24 16 23 11-1 9-14 8-22-3-10 10-13 15-6 4 4 10 18 15 10 3-8-1-20 10-22 8-1 14-4 21-8 6-2 21 1 17-10-3-8 3-17 6-24 8-11 17-22 19-35 3-12 12-22 18-32 4-15 5-31 12-45 3-13 2-27-1-40 0-6 3-10-3-13-6-8-4-19-10-26-3-13-7-25-13-37-5-7-16-12-15-22 2-9 13-13 13-23 3-9-7-15-16-13-8 2-9 13-15 18-9-6 4-17 5-25 8-7-3-15-11-14-9 0-15 12-24 5-8-7 3-23-10-28-11-1-19 8-29 11-9 0-6-20-19-17-12-4-15 14-26 13-10-1 5-20-8-19l-12-2zm-2597 3c-9 3-11 15-11 23 3 11 15 0 16-7 3-6 7-18-5-16zm2043 3c4 6-11 13-15 10 3-5 9-9 15-10zm-702 1c-10 2-22 0-28 10-7 10-3 25 6 32 11 3 22-3 30-11 5-10 3-25-8-31zm-1519 12c-9 4-7 16-3 23 5 7 16 5 19-3 3-10-6-21-16-20zm1044 12c-5 6-2 15-4 22-1 8 2 18-4 25-7 1-17 7-22-1s-2-18-8-26c-4-6-18-11-18 1-1 9 5 15 6 24s-11 12-17 18c-6 5-16 2-19-6-1-7 0-16-6-21-5-6-12-10-19-11-1 8 6 15 7 23 3 10 9 21 6 33-8 4-15 11-24 11-8-4-4-15-4-22-2-8-11-14-19-13-6 5 4 14 4 20 3 10 3 20 5 30 2 9-14 17-16 6l-7-27c-1-10-23-14-21-3 6 11 7 23 13 32 7 9 14 19 6 29l-9 33-7 29c-3 8-5 16-3 25 2 12 0 24-1 36 8 10 17 23 13 36-5 4-6 10 2 11 9 4 11 18 5 26-3 5-12 13-9 19 9 1 15-9 24-8 6 4 6 14 13 18 12 13 32 19 38 37 1 11-17 7-18 18-9-5-20 0-23 10-6 8-9 18-15 26 5 7-7 1-10 8-5 3-4 14 3 7 9-5 20-9 25-19 8-5 9-18 17-21 7 6-1 20 9 22 12-2 3-22 15-21 7 2 18 0 15-9 7 3 19 11 9 18-5 9-3 20-6 30-4 6-5 23 6 16 8-7 6-18 12-27 4-7 3-19 8-23 10 0 23-2 31 6 5 7-4 14-5 21-3 9-6 19-3 28 5 8 17-3 16-11 1-12 6-24 10-36 8-7 23 2 33-2 10-2 12 10 9 18-1 10-4 20-3 30 8 6 13-12 14-18 1-11 8-20 7-31 12-2 22-9 34-9 8-3 17-4 24-8 9-4 17-16 27-12 7 5 4 16 8 23 5 10 9 21 12 32 5 6 15 7 18 15 4 10 2 22 5 32-1 11 4 20 9 28 8 5-1 17 8 22 8-6-3-17 0-25 2-7-1-14-2-22l-8-32c-5-10-13-18-22-23-3-8 0-17-3-25-3-6-6-10-7-17-4-6-10-17 0-20 14-6 7 19 17 18 10 2 11 13 14 21 2 10 2 18 7 27 4 8 1 20 9 27 9 1-1-12 1-17 0-10 4-20-4-28-6-8-10-17-15-25-1-9-19-9-12-20 1-9-3-21 0-30 4-7 16-14 21-4l14 26c-1 6 6 10 6 2 2-11-9-18-10-28 0-10-13-13-11-23 2-8 7-15 8-22 7-7 10 10 14 13 10 6 0-9 1-14-1-7-4-14-7-21-4-7 9-23 12-10 1 5 12 18 12 8-6-18-17-35-19-54 1-12 5-27-3-38-4-10-4-20-8-30-10-3-4 12-3 17 0 8 3 15 4 23 1 7 0 15-1 22-11-6-13-21-24-28-13-1-3 15 1 20 6 6 11 11 15 18s8 14 7 22c1 10-12 3-16 0-3-3-9-7-7 1 4 10 13 20 14 31 1 7-1 22-11 14-6-7-10-14-6-23 0-8 0-19-8-23-9-8-14 4-8 10 4 7 11 16 6 23-7 5 6 12 7 19 5 9 8 20 0 29l-15 19c-10 10-13-8-16-15-4-8-5-16-6-25l-9-54c1-6 0-18-10-12-4 4-11 12-16 3-3-4-8-17-15-9 2 8 6 18 3 24-9 4-16 12-25 15-9-2-5-13-7-20 0-6-9-18-11-6-4 11 0 23-3 34-5 6-21 7-24 3 4-9 4-18 5-27 4-7-7-19-13-13-4 8-1 17-3 26l-4 21c-15 4-31 6-46 1-10-3-22-3-28-13 2-9 7-19 9-29 4-9-10-19-12-6-6 8-4 22-13 26-8-2-18 0-15 11 0 8 2 17 4 25-4 12-3 25-5 38 1 9-8 16-13 7-14-12-27-27-28-46 2-5 15-14 5-16-9 2-20-6-18-16l6-21c2-6-3-15-9-7-8 8-12-6-11-12 2-9 8-15 16-19 6-7-8-16-13-9-9-3-4-15-3-22 2-12 2-26 6-38s10-23 19-32c4-8 8-17 16-23 8-8 15-17 25-23 11-10 23-18 35-26 10-6 21-1 30-9 13-5 27-5 40-1 20-6 39 2 59 2 5 4 20-1 14 9 11 4 24-5 33 2 7 4 10 12 12 19 4 8 18-2 21 10 1 7-14 6-3 11 8 3 16 7 22 14 6 4 10 11 17 15 4 5 10 4 6-3-5-9-12-16-15-25 3-10 17-11 26-16 7-4 12-13 10-21-3-4-15-16-18-7 1 11-7 20-17 23-4 6-10 10-17 6-9-3-13-14-12-23 1-10 6-18 6-28-8-8-21 1-21 11-1 9-14 5-18 0-5-8-3-20-12-24-10-3-10 10-14 15-7 7-16-1-24 0-13-1-8-14-6-22 4-9-4-19-13-18-7 6-5 18-8 27 3 14-19 13-22 2 1-8 3-17 2-26s-8-16-17-15Zm1182 1c12 1 24 2 36 5 10 1 22 0 29 9 7 8 16 14 24 20 11 9 23 16 32 27 6 8 10 17 17 24 5 8 4 18 9 25-1 10-15 1-22 4h-41c-5-10-5-23-15-30-8-3-17 1-25 1-21 3-43 3-63 9-7 5-15 10-24 11-6-3 5-12-5-12-30-6-61-2-90 6-12 1-16 12-17 22-2 8-3 19-12 21-7 2-15 2-22 0-5-7-4-17-6-26 2-9 9-16 11-25l9-30c21-18 39-41 66-49l34-6c0 10-9 18-9 29 6 9 12-6 21-1 4 1 18 2 14-6-7-1-21-6-13-14 6-6 15-14 23-6 5 5 5 16 15 12 10-3 15 8 21 15 5 7 8 16 14 22 14 1 12-16 6-23-5-8-11-16-18-22-6-4-12-14 1-12zm526 4c15 2 30 0 44 2 2 11 14 6 21 4 6-2 20-3 18 7-5 14 13 7 19 5 9-3 13 7 19 11 5 5 10 10 17 12l28 31c2 7 1 17 10 17 7 8 9 19 14 27 3 13 9 26 8 40 2 17 0 34-2 51-5 11-10 23-13 35-4 10-7 20-14 29-7 11-16 21-21 33-5 11-21-7-23 4 4 7 8 21-5 17-11-3-10 14-19 16-8-3-14 2-21 5-7 4-14-1-19-5-8 0-13 18-21 6-4-8-18-10-21 0 2 12-15 5-22 4-10-2-19-11-18-22-11-8-16-22-17-36-4-8-15-12-10-23 1-8-10-15-17-10-2 8 1 16-4 24-7 7-2 17 8 12 9-4 10 5 8 12-1 9-3 20-10 27-10 5-19-3-27-7-10-6-22-5-29-13-10-8-18-18-29-24-9-6-11-18-20-24l-16-29c-5-14-5-29-8-43 1-18-2-37 4-54 6-9 7-20 8-30 6-14 19-24 27-36 4-5 8-11 15-13 8 7 14-4 16-11s10-13 16-6c7 2 14-7 15-14 0-9 10-7 9 0 9 1 18-5 26-11 9-5 18-8 25-16 7-3 6 9 13 4 7 0 13-4 18-8zm-2615 3c-9 0-12 11-10 18 1 9 12 16 20 10 11-5 8-22-2-26l-8-2Zm-543 42c-13 2-25 11-39 10l-47 1c-7-1-18 0-22 5-4 8 4 14 10 17 22 9 45 1 67 4 17 0 37-3 46-18 10-6 4-18-6-17l-9-2Zm2024 11 2 34c0 9 12 23 16 10 0-10 2-20 1-29-1-8-8-15-16-14l-3-1Zm50 4c-9 1-12 12-10 20 3 6 3 13 2 20-4 9 8 19 15 10 4-10-5-22-1-32 4-5 1-16-6-18zm-76 0c-10 3-5 16-4 23 3 9-6 20 1 28 7 6 16-2 17-9 0-11-2-22-4-33 0-5-4-10-10-9zm-1622 4c-7 8 4 15 9 20 9 5 9 16 15 23 9 11 13 28 28 34 8 3 17 6 26 5l28-4c14-2 27-8 39-13 23-11 44-24 65-38 8-5 3-18-6-16-7 1-15 5-21 9-7 5-15 7-23 8-23 3-47 9-70 3-11-3-22-3-32-5l-32-11c-9-6-16-13-27-15zm1588 8c-9 2-8 14-13 20-2 8 0 19 9 22 10-6 8-21 13-31 5-8-2-11-9-11zm1284 4c-13 1-24 11-26 24 0 8 8 16 16 18 9 6 24 1 26-11 4-9 3-20-4-27-3-3-8-4-12-4zm-838 4c4 3-3 14-2 5 0-2-1-4 2-5zm-478 1c-12 1-9 16-10 25-2 8 2 18-6 24-2 9 9 15 17 18 8 2 17-1 25 2 10 3 20 2 30 3 15 0 30-5 45-11 10-4 23-8 29-18 3-7 0-19-9-17-8 3-14 10-21 14-8 5-17 8-26 10-14 5-29 8-43 4-8-2-19-1-24-9-2-9 4-18 6-28 1-7-5-17-13-17Zm-25 5c-12-1-14 14-13 22 0 11 13 13 18 4 3-7 5-17 2-25l-7-1zm-29 4c-10 0-9 12-9 19 2 6-11 18 2 18 7 0 13-6 14-12 4-9 5-23-7-25Zm800 3c6 1 16-2 18 6 4 10 3 20 5 30-4 13-19 18-31 21-17 2-34-2-50 6-10 9-7-9-7-14-1-11-8-24 0-34 5-10 18-9 28-11l32-3 5-1zm-272 1c4 0 0 3 0 0zm661 0c-11 6-16 22-7 32 7 7 18 13 27 7 8-2 13-12 13-19-1-13-14-17-24-19l-9-1zm-273 3c3 6 11 16 6 21-7-3-10-14-11-19l5-2zm-248 1c10 2 20-3 29 1 5 7 2 17 8 24 4 8 5 18 3 28 2 11-13 8-20 10-21 3-41 7-62 7-7-1 4-5-3-5-7-6-7-17-8-25 0-11 5-20 8-30 6-9 18-7 27-9l18-1zm-2265 0c7 4 9 12 13 18 3 7 7 15 6 23-4 8-6 17-6 27-1 11 0 23-7 32-7 7-7-9-8-14 0-7-3-14-5-20-2-22-5-45 5-65l2-1zm2122 6c9 4-6 16-2 5l2-5zm-1983 1c14 1 29 5 44 6 7 2 22 2 22 9-8 11-23 8-35 6-8-1-16-3-24-1-4-6-9-13-7-20zm2245 2c-10 1-20 7-24 17-1 9 8 17 16 18 11-2 24-7 26-19 1-9-9-17-18-17zm-1000 5c-11 2-10 15-16 22-1 9 14 5 19 1s11-16 3-21l-6-2zm890 6c-11-1-23 3-29 12-4 7 2 19 11 17 11 0 25-5 29-17 2-9-3-13-11-12zm228 1c8 3 7 14 8 21 1 11-3 20-5 30-2 12-2 25-6 37-6 10-7 22-14 31s-10 21-19 28c-9 0-12-10-19-13-8-2-9 7-3 11 6 11 5 27-6 34-8 7-11-10-16-1-6 8-1 21-10 28-9 1-17 6-25 9-10 5-14-6-15-14-2-6-9-20-16-9 0 11 9 20 7 31-7 5-17 4-25 6s-16 2-15-8c-1-6-2-23-12-16-2 7 0 18-8 23-8 6-18 0-27-1-6-2-18-1-11-8 2-7 9-21-1-22-8 2-10 13-16 17-5 5-18 3-17-5 4-8-3-22-12-18-3 5-4 20-14 14-8-4-18-8-25-14-20-15-33-37-44-59-5-7-10-15-7-24 0-10 10-18 7-28-2-5-10-13 0-13 9-7 8-20 17-27 7-7 17-7 26-8 9-5 16 3 18 10 2 8 10 17 19 14 9-5 18-1 28-2 14 0 29 1 42-3 10-2 21-1 30-6 14 0 30 3 43-5l39 1c10-3 19-8 29-9 9-5 7-16 10-24 8-6 18-2 27-4 13-1 27 3 38-4zM63 388c-7 7 8 14 5 22 8 11 18 20 28 30-9 6-19 0-27-5-6-2-12-15-17-12-1 6 4 15-3 19 8 5 2 18-6 9-8-5-16-12-25-9-9 5-4 16-7 23-2 9 5 14 11 17-6 8 6 14 13 16 9 3 18 5 26 10 9 2 15 12 8 20-6 8-12 16-12 26-3 16-1 32-3 48-1 12-1 24 3 36 2 10 2 21 8 30-2 11 11 19 12 30 0 13-9 23-16 31-3 4-10 16-5 16 8-4 16-14 24-16 0 8-9 14-6 22-7 8-12 18-17 27-6 9 8 10 12 6 4-1 17-3 10 5-4 8-9 15-12 23-5 7 5 5 7 7 5 13 17-5 26 2 10 2 11 14 3 18-4 6-13 14-6 21 9 6 14-9 19-14 9-8 19-16 27-26 5-1 16-10 14 1-1 8-2 21-12 21-7 5 8 10 6 17 6 9 15-3 17-9 2-10 7-18 13-26 5-6 15-3 11 5 1 10 0 21 4 31 1 6 12 18 12 5 1-8-1-18 6-24-4-12 9-21 6-33-6-5 5-21 5-7 7 8 5 20 6 30 0 8 5 16 5 24 2 9 4 18 10 24 3 6 16 13 14 2-6-16-7-32-7-49-4-6-8-16-3-23 13 0 6 19 10 27 5 8 6 17 9 25 5 10 7 22 18 28 1 5 13 8 8 0-5-7-14-17-9-27 6-6-5-13-4-20 0-6-6-16-3-21 7 4 10 13 15 19 2 10 7 19 13 27 3 4 16 15 13 4-6-5-9-12-7-20s-6-13-6-21c7-3 11 12 15 16 8 5 9 17 19 17 5-5-8-11-8-18-5-8-7-17-11-26-1-9 8-4 9 2 3 8 9 14 18 10 4 6-13 8-2 15 4 6 13 4 9-4 2-7 19-1 11-10-5-10-17-15-18-27-1-5-8-13-6-16 6 1 12 6 18 2-10 11 16 7 11 18-4 1-14-1-9 7 8-3 19-2 22 7 10-5-2-16-4-23-4-8-8-18-6-28-6-9-12-19-11-30 2-9 20 6 17-7-5-9-6-21 1-29 5-5 8-11 12-18 5-7 11-13 11-22 4-10 8-20 10-30 7-21 10-44 5-66-2-7-3-15-3-22-5-10 7-13 13-17 8-5 18-9 25-16s9-17 17-23c4-5 14-14 3-18-6-2-14-7-8-14 1-11-15-4-21-7-3-13-20 3-22-7-6-8-7-18-4-27 4-9-13-17-14-6 1 8-10 7-8-1-2-7-15-14-19-5-5 9-10 18-19 22-6 3-15 11-20 3-6-6-12-15-22-12-6 0-11-9-19-9-9-3-10 18-18 8-4-4-3-21-11-17-5 5 0 16-9 19-8 4-15-3-15-10-5-12-19 0-13 9-3 11-21 14-20 0-7-11-13 4-13 11 1 13-13 10-20 4-5 8-15 17-23 7-8-5-13-13-18-20-3-3-12-12-12-3 11 5-9 13-13 5-9-4-17-12-28-14-10-5-13-18-23-22Zm2986 4c5 4-6 3 0 0zm-1445 3c-12 1-17 14-25 21-4 6-18 6-19-1-1-8-4-20-15-18-8 6 1 16-1 24-3 9-8-7-14-5-11-2-21 0-31 2-17 5-28 19-43 28-7 3-12 8-18 12-7 3-12 10-3 14-3 7-12 10-16 16-7 7-12 15-17 23-2 12-14 19-17 31-4 12-10 25-8 39-4 8-3 20-11 24-10 8-6 21-7 32l-5 28-13 75c0 5-4 16 3 17 8-4 19-5 20 6 4 5 1 22 11 18 9-1 6 24 17 14 5 8-1 20 8 26 7-1 4 18 13 11 7-11 9 8 14 11 7 2 0 18 10 20 11-2 5-17 11-23 6-10 8 8 9 12 5 12 10-7 8-12 1-21-6-42 1-62 10 3 17 11 27 14 18 9 37 15 57 14 10 1 21 0 31 3 12 1 24-1 36 1 11-2 21-3 31-8 10 8 24 2 33-5 9-10 20-17 31-23 9-6 16-14 21-24 6-9 18-16 18-29 4-5 8-2 6 4-3 5 11 16-1 14-11-4-8 10-5 16 2 8 7 15 9 23 3 7 16-6 15 0-4 6 10 10 10 17 6 8 21 3 19-6-8-14 16-4 15-16-4-7-5-22 8-18 10-1 1-14 2-21-2-4-3-18 3-10 4 6 11 18 19 12 4-7-1-15-1-22-1-7 2-13 5-19-3-11-4-23-13-31-7-10-8-22-14-32-3-11-9-20-16-28-7-11-10-24-20-33-7-8-9-18-15-26-4-14-13-24-20-36l-8-22c-7-7-13-14-18-22-8-5-10-15-16-20-4-2-11-9-2-7 8 0 18 6 25 0-4-7-13-9-20-11-15-3-30-6-45-6-12 0-26 0-36-9 6-6 21-1 19-13-7-4-16-1-24 1-8 3-16 9-25 10-5-1 6-8 2-13-1-2-3-3-5-2zm1866 2c9 4-3 24-7 15 1-5 2-12 7-15zm-428 7c6 7-9 13-7 21 1 4 6 13-2 8-9-7-1-20 5-27l4-3zm-734 3c-9 1 5 7 0 0zm761 3c6-1 0 4 0 0zm-839 1c-13-2-27 4-33 15s5 17 13 21 21 7 27-2c2-6 1-13 1-20-2-5-2-13-8-15zm-159 6c-10 4-19 12-24 20-1 10 7 20 17 19 10 1 21-5 21-16 1-10-2-24-14-23zm1393 4c6 3-4 5 0 0zm414 8c-7 5-16 16-24 6-8 1-11 18-19 10-5-11-19 6-26-5-5-10-15 0-14 8-1 8-9 11-13 3-8-6-15 7-19 8-7-6-16-1-19 6-6 8-7 18-11 27-4 8 1 23 10 14 8-5 10-16 18-20 8-5 19-5 24-14 1-7 5-9 12-8 8-2 17-5 26-1 10 1 19-11 30-7 3-7 15-9 14 1 7 6 17 0 21-6 3-4 4-11 7-4 4 7 9 19 19 13s16 8 22 14c4 6 4 25 15 15 3-7-2-13-2-21-3-10-8-21-18-27-8-3-7 18-16 8-6-10-16-13-27-13-5-1-6-7-10-7zm-3578 6c6 1 19-4 18 7 3 11 18 4 21 14 9 6 14 16 18 26-1 11 12 12 17 19-12 3-1 16 7 18 9 2 13 10 10 18 0 8 13 5 11 15-1 10 5 18 5 28 1 8 0 17-2 26 4 6-1 13-2 20-2 10-7 19-8 29-1 8-7 15-10 22-4 9-18 6-13-3 2-11-9-23-20-18-3 4 3 14-4 19-7 4-11-9-16-13-8-11-21-19-35-19-11 1 7 14-3 11-7-5-13-12-22-13-7 0-21-11-10-15 6-1 16 4 20 3-1-9-13-11-20-8-6 8-16-1-24 4-2 9 12 12 16 19 5 3-8 4-3 10 4 8 13 5 17 8 0 9 1 19 6 26 3 8 8 19-1 23-8 3-15 11-24 10-9-5-21 2-16 13 5 10-7 13-14 9-9 0-17-3-17-13-2-9-12-10-19-8-9 3-18-1-18-11-4-9-14-4-13 5l-8 30c-9-5-9-20-5-28 4-11 2-20-4-29-3-6-7-13 1-18 7-5 16-7 22-13 8-5 15-13 13-23-3-9-15-4-21-1-9-1 1-18-10-12-8 5-13 14-22 18l-21 13c-6 3-6 10-2 13-2 9-19 13-24 3-2-8 1-18-2-26-3-15-7-29-6-44-1-9 1-19 2-28 2-14 7-28 16-39 5-6 12-10 19-12 3-12 15-8 25-10 6 0 8-8 10-11 12 1 24-5 29-16-7-10 6-15 14-10 6 5 16 7 16-4 3-11 10-20 21-23 8-6 19 3 28-3 3-8 12-8 20-7l37-1Zm3180 0c1 7-3 15-7 21-6 2 0-11 2-14l5-7zm-171 1c-8 3-4 14 0 19 9 4 8-19 0-19zm-2928 1c8 7-14 15-6 5l6-5zm2999 1c-10 3-5 13-2 20 4 7-9 13 1 18 10 3 7 19 16 20 5-3 1-9 6-11-1-7-6-15 1-19-2-12-13-20-21-28h-1zm77 5c7 3-7 2 0 0zm705 1c-11-5-17 10-12 18 2 12 6 23 7 35 4 10 6 19 7 29 5 9 3 18-5 23-9 3-10-13-11-19l-7-28c-1-8-4-23-16-20-7-1-22-2-15 11l10 46c1 8 1 17 6 24 2 7 6 16-1 21-11-2-8-17-15-23-4-8-7-20-18-19-10-1-17 12-12 20 6 8 6 20 13 28 7 15 14 31 11 48 2 12-6 24-6 36-3 8-7 17-5 26-3 9 4 19 2 28-1 10 7 17 6 26-1 10 3 19 7 27 4 9 9 17 15 25 6 7 15 8 21 15 12 13 28 20 45 25 16 5 32 9 49 12l32 5c14 4 29 2 43-1 9-2 19 0 28-3l37-14c9-5 19-9 26-17 9-8 22-13 27-26 5-8 10-15 13-24 5-11 7-23 11-34 5-10 5-21 7-32 4-19 7-40 4-60-4-12-3-26-10-36-6-11-11-23-18-34-10-10-20-25-16-40 2-12 7-25 3-37 7-8 0-19-9-20-9 2-15-4-21-10-11-7-15 8-14 16 0 10-3 20-5 29-2 10-17 6-17-3-2-8 3-16-1-24-5-7 0-18-8-23-6-3-18-3-19 6 2 8 0 17 1 25 3 10-8 14-16 11-6-3-14 2-20-2-7-3-9-11-10-17-5-7 0-17-4-24-1-8 4-21-8-21-11-5-17 10-15 19 0 9 3 17 3 25 0 9-3 18-13 17-12 1-12-14-16-21-2-9 0-18-5-26-3-8-13-12-22-10-8 6-1 16-1 24 3 9-2 19 4 28 2 8-10 21-16 13-4-13-11-25-11-39-3-10-1-22-8-30-3-4-7-5-12-4zM24 447c4 3-3 2 0 0zm3250 7c-12 5 13 16 6 3-2-2-3-3-6-3zm84 0c-12 3-17 16-27 22-16 11-33 26-54 26-26-2-54 2-78-11-8-7-20 6-8 11 13 5 25 13 40 12 21 1 42 1 62-3 24-14 52-23 70-45 6-5 3-13-5-12zm-3247 1c4 2 20 11 10 15-9 0-18-3-24-9 0-5 10-5 14-7zm3116 1c-10 2-7 27 4 22 7-6 7-20-2-22l-2-1zm-39 1c-13-3-10 22 0 12 4-4 9-10 0-12zM3 457c-8 8 10 7 0 0zm1621 0c5 7 14 10 21 14 13 8 18 24 32 31 7-4 14 2 19 7 3 3 15 14 15 4-2-6 0-10 6-6 19 7 34 25 37 46-3 12 8 22 5 34-1 14-2 29 1 43 1 14-4 28-4 42-5 19-16 36-26 53-11 14-19 31-34 42-15 13-34 22-53 28-13 3-26 8-39 6-23-1-46 2-69-2-30-6-57-24-81-44-15-10-25-26-33-41-4-8-5-17-10-25-8-15-15-31-18-49-1-8-3-16 0-24-5-11-3-21 2-31 3-12 16-12 25-14 10-5 15-16 22-24s14-16 15-27c2-6 5-22 13-18 6 7 2 17-1 25-8 14-12 31-7 46-7 7-11 18-18 24l-28 13c-9 12 12 16 19 9 7-3 15 1 13 9 3 5 6 19 15 14 10-2 2-13 3-21l-1-26c6-10 19-7 29-9 8-1 12-6 20-3 6 0 16-3 20 4 1 5 5 12 2 17-8 0-16-6-23-3-9-2-19 6-16 15 2 11 16 15 25 10 6-2 12-12 17-12 3 6 12 19 0 20l-30 2-28 3c-2 10 9 13 16 13 10 1 20 5 30 1 11-2 24 1 34-5 7-4 9-10 18-7 15 1 29-6 42-11 16-6 33-6 48-11 8-3 10-13 7-20-3-13-2-27-8-40-10-7-13 9-11 16-1 9 6 16 3 25-5 8-16 8-25 10-8 1-17 2-23 9-8 2-15 8-22 4-12 1-17-9-17-19-2-11-4-24 4-33 9-6 22-3 33-6 12-3 24-6 35-12 8-2 17-6 18-15 1-11-12-2-18-2-6-2-9-14-18-10-8 1-18 6-25-1-10-5-11 8-12 15 1 11-16 13-12 1 2-11-16-16-17-4 0 8 14 14 2 20-5 5-10 13-18 6-7-2-12-7-10-15 0-9-13-11-18-5-4 9-13 11-18 1-11-7 1-18 1-26 0-9 13-16 16-6 11 3 16-11 17-19 3-11 2-24 10-34 7 4 2 15 5 21 0 8 1 21 11 20 6-5 10-13 9-21-2-5 1-16 7-8 7 7 7 18 13 25 1 6 11 13 10 3 0-7-3-16 2-23s13 5 16 10c2 8 11 8 17 13 6 1 11 12 14 11 5-12-8-20-13-29-1-9-9-16-11-23l1-1Zm-1218 4c9 5-1 21-10 19-11-1 2-12 6-15l4-4Zm2744 3c-7 6-11 16-11 25 2 14 17 1 16-7-1-6 1-16-5-18zM41 465c7 0 17 10 13 16-8-1-13-9-16-15l3-1zm3868 8c-1 9 5 17 9 24 5 8 6 17 11 25 3 8 10 23 16 9 4-10 17 6 18-5-3-10-11-18-13-28-10-8-25-8-32-20-2-3-5-5-9-5zm-448 7c6 3-6 1-1 0zm381 1c-10-1-22 10-15 19 8 7 22 4 30-3 9-8-2-18-11-16h-4zm-727 8c-7 6-11 16-10 25 3 9 8 3 10-2 4-7 8-16 2-23h-2zm-1640 2c4 4-6 3 0 0zm781 8c-7 5 0 14 2 20 1 4 7 16 10 6 1-10-4-20-12-26Zm-166 10c-9 2-9 13-8 20-1 6-6 22 6 16 7-4 9-12 8-20 2-6 3-16-6-16zm-77 1c-13 3-21 15-27 25-3 4-10 14-3 16 15-8 25-22 32-37 1-2 0-4-2-4zm-1332 7c-10 7-22 9-34 10-11 2-21 8-32 12-7 1-21 14-7 14 6 1 18-8 20-1-6 6-15 15-25 10-16-3-34-2-47 7-8 8-14 17-24 22-5 12-18 16-23 28-7 10-16 21-19 34-5 9-12 18-14 28-1 18 4 35 5 52 1 14 7 28 6 42 0 19 2 38-6 56-2 15-8 30-7 46 0 16-3 33 1 49v52c-4 14 2 28 0 42-2 9 11 17 12 4 3-8 0-17 3-25-1-8-5-15-2-23 2-5 0-17 6-9 9 5 14-7 14-14l-1-29c0-9-3-18 2-26 4-13 3-26 6-39 2-10 6-19 4-29l-5-30c-2-6-4-11 1-16 2-6-10-16 1-17 6 6 10 16 10 26-2 8 3 14 7 20 2 9 11 14 13 22 3 9 8 17 14 23 7 6 15 13 24 17 4 7-12 13-10 20 4 6 15 11 7 19-5 7-4 25 8 18 10-7 11-22 7-33-3-8 10-15 16-9 8 2 14 9 21 9 10 2 19 8 29 7l48 3c13 1 26 1 37-4 16-3 31-8 47-9 8 4 14 17 10 25-8 6-2 13 0 20 3 5 4 14-4 12-7 7 3 17 5 25 6 10 17 1 8-6-3-9 9-14 6-23 0-10-4-20-1-30l3-37c10-5 21-10 28-18 9-7 14-17 20-25 6-15 14-30 19-45 2-12 10 2 8 7 1 13-2 25 2 37 3 15-4 30-4 45-2 11-1 21 2 32 3 10 3 20 5 30 5 14 4 28 6 42 10 3 16-10 16-18 4-10-4-19-3-29l8-26c3-7 6-15 4-23v-51c9-7 9 10 11 15 2 9 2 18 7 25l9 33c-1 9 12 13 12 3 0-12-6-23-5-36 0-14-9-27-12-41-3-9 2-19 1-28 1-12 4-25 0-37 4-10-9-18-5-28 2-9-4-18-5-27-4-15-2-33-13-46-8-13-13-29-20-43-7-7-6-16-6-24-1-10-9-17-12-26-10-9-25-11-36-19-10-9-24-14-35-23l-21-12c-7-6-16-3-24-2-14 2-28 5-41 11-11 4-20-5-28-12-7-7-19-6-28-6Zm3575 7c8-3 16 3 18 10 4 8 0 19 7 24 9 1 18-7 18-15-5-6-9-21 4-19 12 2 26 2 33 12 3 10-2 22 6 29 6 4 14-1 18-6 5-5 2-16 10-16 11 1 1 18 11 23 5-2 14-4 12 6-2 8 5 15 13 15 7 1 15-5 18 4 6 5 13 11 13 19 6 6 5 16 8 24 2 9 4 18 4 27 2 14 2 28-3 41 1 11-2 23-9 33 4 9-5 17-7 27-3 8-7 15-9 24-6 13-17 23-28 32l-25 14a159 159 0 0 1-101 19c-29-2-58-11-84-24-17-13-37-22-48-41-4-8-9-16-10-25l-5-22-6-39c-3-11 3-21 5-31 3-11-1-23 5-32 11-7 10-19 14-29 2-9 10-15 19-17 9-1 8-10 3-15 0-6 10-14 14-9 5 5 14 11 21 6 9-7 2-19 3-28 2-10 18-13 24-5 7 6 15-1 19-7 4-5 9-10 15-9zm-3569 8c7 0 22 2 21 9-8 1-17-3-21-9Zm2467 0c-6 6-10 15-8 23 8 6 17-8 14-16 0-3-3-6-6-7zm-1672 2c9 3 2 15-1 21-10 6-18-10-8-15 3-3 5-6 9-6zm1315 3c-10 5-22-2-32 2-10 1-19 4-27 10-13 8-27 17-43 18-15 3-29 14-45 11-11 0-23-5-34 0-10 2-18 9-27 13-9 7-9 19-11 29-4 8 3 23-10 25l-26 2c-10 1-21 8-21 19 1 12 6 26 1 38-6 7-3 15-4 23-5 6-15 9-20 15-7 4-7 20 4 13 3-2 13-7 8 1-8 16-9 36-25 47-11 5-18 16-29 20 0 7 12 9 18 9 11-5 21-11 31-18l17-23 7-19c8 6 7 18 9 27 1 8 6 13 13 14 3 6 4 19-4 22-10 0-19-4-28-1 2 6 12 8 17 11 9 4 21 8 30 1 9-8 9-22 9-33-2-6 9-22 9-8-5 9 14 6 7 15-5 6 7 24 10 11-10-4-3-17-5-25 0-19-1-38 3-56 7-8 21-6 24-17 2-13-2-26-4-38-5-11 6-22 16-17 11 1 20 6 30 8 11 1 25 4 33-6 8-8 7-19 6-30-3-10 11 0 16-6 8-4 8-13 7-21 1-7-3-17 2-23 6 2 11 14 16 4-2-9 9-11 17-11 9 1 19 0 26 4 8 9 17-6 25 2 4 4 7 8 12 2 12-6 26 2 39 3 8 2 19 4 23 13 9 4 20 11 23 21 2 8-11 12-5 20 5 15 20 19 32 27 6 3 7 10 12 15l19 25c-7 6-18 12-18 22 1 8 11 14 4 22-5 7-13 16-7 24 4 9 9 18 15 26 6 13 0 27-5 39-3 12-9 23-16 33-8 12-18 21-28 31-6 6-14 8-20 12-28 15-60 25-92 22a274 274 0 0 1-125-38c-10-8-22-16-29-28-11-14-23-28-32-44-3-8-15-5-8 3 6 9 6 20 12 28 7 4 11 12 18 16 7 5 12 12 18 18 14 11 29 21 46 27 8 3 16 8 25 10 12 4 25 7 37 9 16 4 32 9 49 7 20-1 40-2 59-10 8-1 16-4 23-9 12-8 27-13 37-25 6-6 11-14 18-19 11-11 14-28 25-39l17 23c4 10-3 22-3 33 0 8-5 18-15 19-9 6 9 15 14 10 9-4 14-12 17-21 0-9 9-11 12-3 4 7-6 18 4 21 11 1 17-11 17-20 1-7-8-21 5-18 12-1 15-15 6-21-4-9-1-20-2-30 0-9 0-18 3-27-4-13 13-13 21-8 10 3 21 0 29 5 7 4 18 5 19 15l-1 24c1 8-4 15-11 19-11 10-20 22-23 36-4 16 9 30 5 46-1 10 3 20-3 29-1 6-8 11-14 5-7-5-19-8-23 3 0 10 12 15 21 17 10 3 22 1 31-7 11-1 12 15 15 23l4 36 2 44c3 9-6 16-12 7-9-6-20-10-30-16l-40-19c-14-5-29-7-43-14-10-4-20-9-31-9-11-1-20-10-32-11-16-3-32-13-48-8-16 4-32 11-44 22-13 4-17 18-21 29-2 8-12 15-8 23 7 6 18 4 22-4 5-7 7-16 13-23 8-14 25-19 39-22 8-2 14-7 22-4 18 5 35 11 54 15 7 3 14 6 21 7l54 19c21 7 44 14 60 31 7 5 6 14 4 21-2 8-3 15-3 23-1 7-5 15 4 18 4 8-10 0-13-1-12-3-25-4-36-9-24-9-48-17-73-23l-31-5c-10-3-20-9-31-10-12-2-25-2-35-10-7-2-13-9-19-6-11 3-22-1-33-2-23-6-47-7-71-9-14-1-29-4-43 0-10 4-21 9-29 17-10 1-13 12-7 18l22 28c6 8 15 13 23 19 10 8 15-10 6-14-8-6-20-9-24-19-3-7-17-15-11-22 11-9 26-14 40-14 20 7 42 3 63 9l33 5c34 14 74 7 106 25 13 3 26 10 40 11l27 7c17 7 35 7 51 15 12 4 25 5 35 13 8 3 12 12 16 20l2 24c2 12 4 25-3 36-5 8-6 17-6 26l-15 33c-10 20-21 39-36 55-4 9-14 12-20 19-12 10-24 18-38 25-28 4-56 11-84 5-11 0-20-5-31-7-27-5-57-12-77-34-22-16-44-35-56-60-8-14-15-28-16-44l-2-20c2-12 4-24 11-35 9-17 20-34 30-50 8-11 18-20 29-28 9-7 20-13 26-24-4-7-13 4-20 5-8 0-13 8-21 10-11 4-20 13-28 21-6 5-8 12-13 17-10 13-13 30-23 43l-11 22c-5 13-2 27-3 41 2 11 5 23 11 34 4 10 9 20 16 28 10 19 30 28 43 44 11 8 20 19 34 22 11 6 22 15 35 15 12 5 25 3 38 9 23 5 47 10 71 5 16-4 33-5 49-8 9-3 17-5 24-11 13-7 25-16 34-27 17-18 33-36 43-59 5-10 9-21 15-30 2-11 13-15 22-10 11 3 22 7 34 8 24-2 42-25 43-48 0-13-3-27-14-35-8-7-11-19-22-21s-20-8-30-11l-23-16c-3-4 4-10-4-10-9-5-8-17-6-26 1-10 3-20 8-28 9-7 8 11 15 14 5 9 21 10 19-3l-2-20c0-8-5-16-6-24 1-10 12 2 11 8 3 14 6 29 14 41 6 13 10 25 14 38 6 10 16-1 17-9 4-9-3-18-4-27-2-10-9-17-11-27-3-8 2-19 12-12 9 5 19 6 29 10 16 7 35 10 53 10 13 0 26 1 39-1 10-3 21-7 32-7 11-6 24-6 36-7 9-4 20-5 30-9 13-3 26-7 35-16 14-5 20-20 31-28 12-14 22-29 30-45 5-3 10-18 16-11 7 9 11 20 16 30 8 17 22 30 27 48-4 22-28 34-35 55-6 15-2 32 0 47 2 12 1 24 8 34 10 1 13-10 13-17 4-25-7-50 2-73 6-9 15-16 21-25 7-9 10-21 12-32 9 9 17 21 20 34 4 7 8 25 19 19 10-2 10-11 5-18-3-9-4-19-11-26-5-10-13-18-15-29-6-15-17-28-29-39-7-8-10-18-19-25-7-8-15-17-14-28 3-7 11-12 13-20 4-8 8-16 10-25s2-20-4-28c-4-9-4-21-10-29-6-10-6-22-14-30-8-22-26-39-36-60-4-9-10-18-19-22-19-14-42-18-64-23-10-2-22-3-32 2-12 4-23-3-34-7-11-1-17-14-29-14-12-2-25 0-36 5-11 6-9 23-22 28-10 1-20-1-30 1-12 1-22 8-33 12-12 5-24-1-36 1s-8 13-1 18c-5 5-15 5-21 10-7 5-15 7-21 14-8 5-18 1-25-4-17-10-39-3-56-14-9-7 3-22-9-27-10-5-8-17-6-26 1-11-11-17-18-23-11-7 1-14 3-23 5-11 0-24-1-36-4-11-17-16-19-28-6-9-11-19-20-24-9-4-21-4-28-12-7-6-14-12-23-16-9 7-15-5-23-6-10-4-19-10-30-11-10-2-20-6-29-11-9-4-19 1-29-2-5-8-14-5-21-9l-4-2zm-575 8c9 2 9 13 10 20-1 10 6 21 1 31-6 7-17 7-25 12-10 6-11-10-10-17 1-9-4-19 1-28 7-6 14-13 22-17zm-1432 4c5-3 10 4 3 4-2 0-3-2-3-4Zm-65 7c9 2 10 15 19 17 6-3 2-19 13-14 17 3 32 13 47 19 12 8 27 14 35 28 3 5 15 16 4 19-10 1-21 8-31 2-4-9-8-22-20-23l-65 3c-11 0-21 6-30 11-5 5-15 10-16 0-8-8-19-3-28-4-14-1-30-3-44 4-10 2-21 8-20 20 1 10-8 14-16 9-7-1-23 5-18-8 4-9 8-17 15-23 7-8 13-16 22-21s21-5 29-12c12-6 24 2 35 4 11 0 3-11-4-11-12-5 0-16 9-14 17-2 34-4 51 1 5 0 13 0 13-7zm1017 1c-12 2-24 8-36 6-8 0-22 6-17 15 8 6 19 3 29 2 11-2 23-7 29-17 1-3-2-6-5-7zm1062 1 32 4c7 8-10 6-15 6-7 1-14-4-17-10Zm-2498 1c-9-3-21 2-22 13s12 24 23 17c9-5 13-17 10-26-2-4-7-5-11-4zm1200 0c7 4-10 6-1 0zm-190 1c0 3 4 0 0 0zm-1141 2c-12-2-26 5-26 18 1 11 15 13 23 10 11-3 10-15 10-24 0-4-4-5-7-4zm1446 11c-14-1-23 18-14 28 3 10 16 8 22 2 6-5 16-12 13-21-4-7-13-9-21-9Zm547 2c13 2 8 17 12 26 3 7 2 19-8 19l-33-6c-2-9-9-24 2-30 8-4 17-9 27-9zm-126 3c8 0 22 1 21 13-1 7 1 19-10 21-6 0-15-3-18-9-2-9 1-19 7-25zm56 6c7 1 19-2 16 10 1 10 1 25-13 23-9 1-25 1-25-11 2-7 3-18 12-21l10-1zm605 4c5 6-19 5-6 1l6-1zm-67 2c10-1 17 10 12 18-3 7-12 6-18 4-9-3-18-6-27-7-5-6 10-10 14-11l19-5zM861 600c7-1 10 10 2 7-3-1-6-6-2-7zm1847 3c7 4 7 19 2 23-9 1-12-12-9-18 1-3 3-5 6-5zm-475 11c8 5 7 20 3 28-6 6-15 8-23 7-7-6-7-18 1-23 7-3 14-6 19-12zm-1356 1c5 3-5 6 0 0zm-135 2c14 2 28 0 42 0 9 0 11 10 11 18 1 8 7 14 7 22 4 7 2 15-6 18l-25 4c-15 2-31 5-47 2-4-5-17-1-17-10 0-15-2-30 1-44 4-7 12-9 19-10h15Zm-521 1c-11 2-23 0-32 7 2 8-6 17-4 23 9 0 13-11 21-14 9-5 17 4 22 11 9 0 4-16 0-21-2-2-3-7-7-7zm4117 1c-9 6-1 19-1 28 1 8 10 21 17 10 7-7 15-16 16-25-3-10-14-10-22-11l-10-2zm-2368 1c-6 7-14 13-18 22-5 7-14 11-17 20 7 7 21-4 25-12 6-7 17-14 16-25 0-2-4-4-6-5Zm-1445 2c13 1 1 13-6 13-7 1 4-12 6-13zm2422 1c7 3 22 8 21 17-4 8-13 14-21 11-9-6-11-20-3-27l1-1zm-336 0c13 4-10 14 0 0zm-1981 1c10 3 24-2 32 6 2 5 5 21-3 19-6-5-16-8-24-6-10 4-11 20-5 26 10 7 23 2 31-5 8-4 2 11 0 15-5 9-18 11-26 6-8-2-17 4-24-1-7-8-4-20-6-30-1-10 1-22 12-27 4-2 8-3 13-3Zm1408 3c9-2 20 5 19 15 0 8-6 17-15 10-6-3-14-9-9-17 1-3 2-7 5-8zm-232 1c7 3-7 2 0 0zm-1057 1c-10 0-15 12-13 22-1 9 7 15 15 17 13 6 14-14 19-21-1-11-10-18-21-18Zm1923 1c10 3 12 13 15 22 4 8-4 20-13 16l-33-5c-8 0-19-6-10-14 6-7 14-12 24-15 5-2 11-4 17-4zm-2492 1c-7 3 6 4 0 0zm4020 2c-10-1-20 11-13 19 9 3 5 16 11 20 16 3 33-11 31-27-9-6-19-10-29-12Zm-2023 1c11-3 12 10 14 17 3 12-14 12-22 12-12 2-23 10-35 7-4-3 4-11 3-17-2-14 13-17 25-17l15-2zm-1493 1c7 1 0 12 6 13-1 12 4 23 3 34 15 4 30 10 46 8 8-1 16-1 24 1 16-4 34-1 47-13 7-8 3-20 5-30 5-5 15-4 22-7 8 0 18-4 25 1 10 8 12 22 12 34 0 10 7 18 8 28 0 13-7 24-5 37 0 10 0 21-6 30-4 10-5 22-8 32-5 12-10 23-17 34-6 9-13 18-22 24-7 1-15 1-20 6-10-6-4 12-14 12-18 10-38 12-56 17-17 4-34 6-51 3-31-1-64-11-88-32-9-4-9-15-13-23-2-11 13-14 13-25 0-5-7-16-10-6-5 7-11 13-15 21-8 5-10-10-14-15-7-7-12-16-14-25l-11-45c0-8 1-16-2-25-1-8-3-17 1-24 3-11-2-24 7-33 10-8 23-2 35-5 4-4 16-14 14 0 6 10 1 23 9 32 9 9 23 4 35 2 10-1 21 6 30-1 9-5 23-5 26-17-1-11-5-21-2-32-1-3-9-7 0-11zm1406 2c9 2 21 1 27 7-1 8 7 21-2 27-12 6-26 1-36-7-6-7-7-18-2-26 4-3 9-2 13-1zm-309 2c7 4-2 10-3 3l3-3zm-882 2c7 4 9 12 13 19 4 11 7 24 13 35l10 33c4 8 3 17 4 25 2 13 7 25 4 38l-5 40c-9-2-7-13-8-20-4-10-1-21-4-31-3-20-2-40-7-60 2-7 1-17-7-20-8-7-7-18-8-28-2-7-11-13-8-22 1-3 4-6 3-9zm2090 3c12 6 17 20 20 32 1 7-2 18-11 17-6-5-13-5-19-9l-16-12c-4-9 8-12 14-16 6-3 4-13 12-12zm-1330 0c-17 14-29 36-50 43-19 5-36 14-55 19-14 1-28 1-42-1-5 2-22 4-15 12 8 7 19 4 29 4 15-1 31 0 46-5 20-4 38-15 58-21 16-5 28-17 39-28 3-7 14-13 9-21-4-3-9-1-14-2h-5zm155 0c6 2-4 3 0 0zm1051 5c-7 3-11 17-2 19 11 3 17-12 6-17l-4-2zm-29 1c-10 1-14 13-12 22-1 9 15 14 15 4 0-8 5-17 2-25l-5-2zm-245 3c11 3 0 13-6 17-10 5-8 20-18 25-7 0-18 5-22-4s-8-19-3-28 16-4 24-5c7-1 16 3 22-4l3-1zm177 2c-10-2-15 10-13 18 2 11 14 5 17-1 6-6 5-15-4-17zm-51 0c-8 4-2 17 6 17 10 0 3-14-2-16l-2-1zm24 0c-10-1-10 12-3 16 10 8 15-17 3-16zm145 4c-6 6-17 13-19 22 7 5 18 2 24-3 9-5 6-20-5-19zm-2376 1c11 4-3 15-2 23-4 11-6 22-5 34-1 9-17 13-14 1-1-10-4-18-3-28 0-9 6-18 12-24 4-2 8-6 12-6zm1268 5c12 2 11 17 16 25 6 10 8 22 11 33 3 4 8 14 4 18-7-7-7-18-13-25-3-11-7-25-19-29-11 7-7-10-4-15 1-3 2-8 5-7zm-1605 7c-11-5-19 16-5 15 12 1 23 4 35 3 15 4 31 4 46 7 10 2 22-16 11-20-22 3-44 1-66-1-8 0-14-3-21-5zm150 0c6-1 2 3 0 0zm3 8c9 1 8 13 4 18-7 5-5-9-6-14l2-5zm2519 8c-7 5-9 14-11 22-1 7 1 17 8 20 9-1 13-12 14-19 1-9-3-19-11-23Zm-645 8c-5 7-6 23 2 27 8-5 4-16 6-24-2-2-5-3-8-3zm524 0c-13 7-11 27 0 35 7 7 16-2 18-9s4-16-2-21c-4-5-11-7-17-5zm-883 5c5-2 4 5 0 0zm-1553 0c4 5-6 1 0 0zm43 3c5 3 3 15-3 6-1-2 1-5 3-6zm4036 0c-15 2-23 15-32 25-13 12-31 15-46 23-9 2-19 0-28 1-11-1-22-4-33-4-11 1-6 15 3 17 7 2 15 2 23 3 19 1 39 0 57-9 19-6 39-16 52-32 7-4 12-12 10-20-1-3-4-4-6-5zm-1808 3c8-2 13 9 11 16-1 10-12 5-19 6-5-3-1-13-1-18 1-4 5-5 9-5zm-1160 4 10 18c-9 7-7 20-12 29-4-11-2-22-3-33 3-4 0-11 5-14zm611 4c-10 0-20 8-18 18-7 6-16 12-18 21 3 6 1 11-6 11 4 6-6 2-4 9 0 6 8 12 9 3 8-6 6-21 19-21 12-2 18-12 21-23 3-5 7-17-2-18l-1-1zm-1719 2c5 7-3 19 7 24-1 13-23 8-15-4 3-6 2-15 8-20Zm2313 2c7 3-9 14-4 3 1-1 2-3 4-3zm-409 6c-11-1-5 23 1 11 2-4 9-13-1-11zm-2007 1c7 2-6 3 0 0zm1874 1c-12 9-13 26-17 40-7 12 15 8 14-1 3-11 11-19 10-30 1-5-1-10-7-10zm944 1c7-1 20 12 9 15-7 1-17-11-9-15zm-768 2c-11 4-1 18 2 25 5 11 9 22 12 34 12 5 1-15 9-17 8 2 8 14 5 20 0 6 5 12 5 19 3 8 0 16 3 24 0 6 8 10 10 2 4-10-1-20 0-30-2-8-9-16-4-25 0-9-7-22-17-20-9-4-8-17-14-24-2-4-7-7-12-8zm-1527 8c-10-3-7 22-14 12 0-12-19-9-16 3 3 5-8 22 4 20 6-2 8-19 18-11 2 4 5 9 9 3 6-7 5-17 3-24l-4-3Zm2609 1c18 0 34 10 49 17 8 8-5 14-12 14-17 2-35 10-52 3-11-2 0-12 0-19 2-6 5-14 12-15h3zm-2733 1c-13 3-19 16-24 27-1 7 17 11 6 19-6 7-1 22 9 13 7-6 14-14 10-24-5-4-8-11-1-16 7-6 13-16 0-19zm1972 0c8 5-2 22-10 16-5-6 6-13 10-16zm-1898 0c-12-2-9 11-8 18-4 5 2 12 7 7 6-6 9-16 5-23l-4-2zm-47 1c-8 0-16 12-11 18 9 5 12-11 21-10 5 5 2 23 13 13 6-6 3-17-5-19-6-1-13 3-18-2Zm-274 0c8 2-1 10-1 3v-1zm400 1c-11 1-11 15-9 23 4 11 12-5 13-10 3-5 5-14-4-13zm61 0c-7 5-18 10-18 21 1 7 13 7 16 15 4 5 7 18 15 18 0-8-3-16 1-23 4-12-2-27-14-31Zm2173 5c6-1-3 9 0 0zm-764 2c-13 0-6 15-9 22s2 22 9 10c3-5 9-11 8-19-1-5-1-13-8-13zm1213 4c16 2 31 9 47 12 3 3 16 13 4 12-10-5-20 8-28 5-10-6-22-11-33-11-6-3-17-17-5-18l15-1zm-3234 1c8 8-13 1-3 0h1zm575 0c-13 0-11 25-1 21 3-6 8-17 1-21zm672 1c9 5 9 18 5 26 0 4-4 17-7 8 2-10-6-21-1-31l3-3zm-1089 1c5 4-3 7-3 2 0-2 2-2 3-2zm1782 0c-15 6-24 22-27 37-3 11 10 8 13 2 5-6 8-13 9-21 1-5 18-16 5-18zm-1334 1c7-4 14 15 8 13-2-6-12-6-8-13Zm1375 2c-11 3-11 14-7 22-1 10 4 21-3 29 3 8 19 4 15-5 5-9 9-20 1-28-6-5-2-14-5-18h-1zm-2038 3c6 4-6 21-11 13 2-5 8-8 11-13zm1661 0c10-3 2 12 0 0zm-1443 5c6 4 13 22 1 18 0-5 2-10-4-12 0-2 3-3 3-6zm2892 6c9-3 3 7 0 0zm-2639 1c-4 9 6 16 11 22 13 14 32 21 50 25 17 5 34 8 52 8 13-2 25-4 37-9s25-10 31-23c6-4 7-21-4-19-9 4-11 17-20 22-9 9-22 13-35 14-14 1-29 4-43 2-12-3-24-7-35-12-10-2-19-8-22-17-8-4-11-17-21-13h-1zm1423 3c-8 3-10 13-17 18-8 7-10 17-13 26-7 11 12 10 13 1 2-6 8-10 11-16 4-7 11-12 14-20 2-6-3-10-8-9zm-1728 0c10 8-16 5-4 0h4zm1119 0c7 3-7 2 0 0zm1818 2c-1 5-13 10-14 6 4-4 9-5 14-6zm-1278 2c0 7 8-1 0 0zm-1064 1c4 0 0 3 0 0zm2074 0c7 1 5 14 0 7-1-2-2-5 0-7zm423 1c8 3 17 9 24 3 10-3 2 11-4 10 10 7 24-2 34 7 11 9 25 17 33 30l20 25c8 11 16 23 18 37-3 16-15 31-15 48-3 16 6 31 15 44 4 11-4 22-8 32-6 16-13 31-25 43-9 10-17 21-27 30-18 14-41 21-63 26-24 7-48 11-72 16-29 3-58 1-85-11-18-5-34-16-51-24-9-10-22-17-27-31-5-7 9-10 11-16 8-7 7-18 0-25-7-8-10-18-16-27-4-5-6-12-6-18l-8-23c-2-9-2-19 1-28 2-12 4-24 12-33 22-29 50-52 80-71 16-3 28-14 44-17 13-5 26-14 41-12 14 6 22 22 38 24 5-8-4-15-9-20-4-4-10-16 1-17 7 0 19-3 23 3 6 11 14-7 21-5zm-3271 0c3 6-9 0 0 0zm3332 4c21 6 44 14 57 33 8 11 13 24 11 38-8 0-10-12-15-17-7-8-13-16-21-22-10-7-18-16-27-23-3-3-6-6-5-9zm-1244 3c-14 7 11 1 0 0zm1076 0c-11 7-24 15-37 10-3-7 11-6 16-9l21-1zm-293 1c10 0 18 15 9 21-8 7-17-1-15-10 1-4 1-11 6-11zm-2192 2c-6 3 7 14-4 14 6 12 7 27 15 39 8-5 1-16 5-24 2-8-1-17-7-23-2-3-5-6-9-6zm2075 7c-7 1-12 9-17 14-7 7-16 11-20 20-13 9-29 10-44 14-32 1-58-25-90-26-2 9 7 15 14 17 13 4 25 11 37 17 12 4 24 10 37 10 14 1 28-3 41-7 11-2 19-11 27-17 5-12 18-19 19-33 0-3-1-7-4-9zm-829 2c-9 6-6 19-8 29-3 10-6 22-1 32 9 3 13-9 15-16 0-10 2-21 3-29 5-7 0-18-9-16zm981 2c8 5 5 16 4 24-2 9-4 19-3 28-1 7 1 19-8 19-11-2-11-15-12-24-2-9-13-23 2-26 10-3 10-14 16-20zm-795 3c-5 10 8 20 3 30 5 8 0 17 3 26 1 7 0 16 4 23 8 5 5-10 7-15l3-22c-4-11-3-22-6-33 1-8-7-10-14-9Zm-1727 1c3 4-5 1 0 0zm2704 2c6-2 23 5 11 10-11 7-21 17-34 20-5-3 0-19-10-14-9 0-16 7-23 10-10 5-7-11 0-14 7-4 15-4 23-5 12 0 22-7 33-7zm-2705 1c7 8 10 19 7 30-1 10-6 18-8 28 0 5 2 19-6 14-3-12 1-25 2-38 1-9 1-18 3-26-1-3 0-6 2-8Zm1585 14c-9 8 5 19 0 29 0 7-2 19 5 23 7-4 9-15 4-21-6-6 1-15 0-20-3-4-3-11-9-11zm49 2c1 11-1 21-2 31 2 9-6 25 8 22 11-1 6-13 7-20 0-9 0-18-4-26 1-5-5-8-9-7zm1208 4c-11 0-11 14-5 20 6 8 14-3 14-10-1-5-5-9-9-10zm-1351 1c-4 5 6 3 0 0zm197 2c-12 4 2 17-3 25 1 11 1 23 5 34 8 5 14-9 15-15-1-9-5-16-4-25-1-7-2-16-10-19h-3zm1182 3c-9 2-8 12-8 19 1 10-11 8-17 12-8 9 3 20 6 29 6 6 16 1 23-2 5-5 13-7 15-15 1-6-1-13-6-19-14-1 5-16-6-20-2-2-4-4-7-4zm29 4c-10 2-7 15 3 13 9-3 4-11-3-13zm-1121 5c-7 1-1 10 1 3v-2zm887 0c9-4 17 5 6 9-10 6-20 14-29 22-5-7 5-15 10-20 4-4 8-9 13-11zm-1332 0c-13 2-24 8-37 12l-27 13c-10 5-24 9-34 1-6-4-20 2-8 7 3 7-12 8-18 9-10 5-21 5-33 6-6 14-5 32-18 42-1 10-6 18-16 20-6 1-21 8-8 11 6 7 6 17 2 25-6 9-14 18-13 29-9 8-14 19-14 31-2 9-11 15-9 24-1 7 3 20 12 13 0 9-13 12-11 22-2 11-6 23-15 29-10 7 0 18 9 14 12-1 16-13 22-20 9-9 14-21 21-30 10-5 12 11 11 17-3 9 0 18-3 26-5 7 5 9 5 12-9 2-2 12 3 5 5-3 4-13 9-6 11 7-2 13-3 20-4 11-7 21-14 30-7 8 5 15 12 12 9-2 15-9 17-17 6-2 12-7 14 1 6 5 14 7 16 14 7 8 18 13 22 24 15 4 26 17 41 22 11 5 22 10 35 9 17 8 37 3 55 6 12 4 23-1 35-1 10-1 20-4 30-4 10-1 19-5 27-10 10-4 22-2 29-10 11-9 25-13 35-23 4-8 13-7 12 3 2 11 6 21 12 30-1 12 15 10 15-1l-5-25c-4-11-5-23-4-35 3-7 7-13 9-20 4-11 17-4 14 6 1 12 4 24 8 35 3 8 3 20 13 24 10 5 3-11 2-15-2-12-6-23-6-35 6-13 19 3 25 8 7 7 12 17 22 21 1-6-1-14 2-18-11-22-4-49-14-72 1-14-11-25-8-39 2-14 4-28 4-42 0-13 0-26-5-38 1-13-15-10-23-10-10 2-18-5-27-8-10-4-3-16 0-19l-16-18c10 1 18 9 26 14 11 4 20 15 33 15 6-5-8-10-11-15-5-6-10-9-17-13-8-5-12-13-19-18l-19-14-22-16c-6-10-18-15-25-25-10-2-17-9-25-15-8-7-17-10-27-10-11 0-23 1-32-5-4-10-15-2-22 0-9 4-20 0-29 3-11 0-16 14-27 15-6 3-21-1-9-7 11-4 24-6 32-15 2-9-10-13-17-11h-1zm-1023 2c-8-1-7 15-1 8l1-8zm368 1c-8 3-5 14-7 21-1 10-12 9-19 11-10 1-3-12-12-12-10-2-15 9-19 16s-10 16-19 14c-8-2-15-11-24-7-5 11 7 23-1 33l-29 47c-3 10-7 21-7 32-3 9-2 18-3 28-3 25-1 51 11 73-3 13 7 22 11 33s11 20 21 26c5 15 26 16 33 30l28 20c10 2 20-7 29 0 25 5 50-4 75-6 11-4 23-6 33-11 17-6 35-8 49-20 9-5 19-8 26-17 10-11 18-25 28-36 4-7 9-13 11-20 1-11 10-19 10-30 2-15 0-30 2-44 0-14 0-28-7-40-6-12-12-26-23-35-8-8-15-18-21-28-8-8-10-21-20-28-13-2-7-17-3-24 6-9-7-22-13-12-4 7-5 18-14 19-7-4-19-3-24-11 4-9-8-19-15-10-6 5-9 16-20 12-10-1-5-19-18-15-9 4-11 18-23 17-9 1-12-8-14-16-1-6-5-12-12-11zm-816 3c-7 5 11 4 2 0h-1zm2877 0c-6 7-7 21-3 28 9 2 14-8 14-16 1-7-5-10-11-12Zm-963 1c0 3 4 0 0 0zm986 6c-11 4-7 22 5 15 12-2 1-13-5-15zm-49 5c-8 3-11 16-4 21 7 2 20-8 13-15l-9-7zm-881 4c-10 3-27 7-26 19 0 12-13 9-19 3-7-5-19-3-24 4-1 10 14 9 19 16 7 4 17 7 22 15 6 8-2 15-8 19-7 5-15 11-24 13-10-3-19-13-30-10-8 0-19 9-11 17 7 4 16 6 18 15-3 11-15-2-23-2-7 0-23 3-18 13 7 6 17 5 24 11 12 7-4 16-4 26 0 11-12 8-19 14-10 5 1 12 8 13 8 6 1 17 2 25-5 8-16 2-22-2-8-4-18-8-26-4-8 8 4 13 9 18 8 6 14 13 18 22 3 8 3 19-3 27-5 4-17-1-17 10-2 6 4 14 11 12 7-1 17 1 20-6 5-9 18-9 19 2 4 5 6 12 7 19 0 6 2 13 8 16l23 22c7 9 17 15 25 23 9 4 20 4 29 10 29 13 61 23 94 21 34 1 67-7 99-17 13-4 26-11 37-20 12-9 24-19 29-33l14-25c2-9 7-18 9-28 1-6 1-13 6-17 5-8 8-20 13-26 13 5 17 21 31 25 6 5 23 5 17-7-6-11-23-13-27-27-5-11 8-13 16-14 10 1 10-15 1-18-9-5-19 5-28 0-8-4-15-12-15-22 6-5 15 0 22-2 9 0 22-4 23-15 2-13-12-22-23-19-12-2-23 6-34 11-6-2-16-13-8-18 8 0 15-1 21-6s12-12 12-20c-2-10-7-22-19-23-13-2-25 3-38 6 6-10 7-24 0-34-2-9-14-17-23-18-8 0-20 6-24 7 1-14-6-29-20-32-15-3-29 0-43 5-11-6-23 4-34 0-4-5-6-12-15-10-9-2-11 6-7 13 1 11-5 23-16 26-12 4-6-12-8-18-2-8-12-12-19-16-10-5-20-9-31-9zm-2183 1c0 3 4 0 0 0zm3391 12c8 3 7 13 11 19 4 10 7 21 3 31 0 9-5 24-13 26-6-6-1-15-1-23 0-9-3-17-5-26-1-8-3-21 5-27Zm-1214 0c11 4 25 1 31 13 9 7 0 20-9 13-8-4-19-9-23-19-1-2-1-5 1-7zm-189 3c-10 10 11 4 0 0zm360 2c10 1 12 14 8 21-3 9-14 10-21 6-4-6-13-14-7-21 6-3 13-6 20-6zm-1249 2c11 2-1 16 4 22 7 7 17 2 18-6 2-11 13-11 20-5 7 9 17 11 26 15 11 5 20 13 27 23 8 10 15 22 25 31 4 13 15 22 18 35 4 9 6 18 5 27-1 23-3 46-10 68-3 9-7 17-14 24-12 4-4-12-10-17-3-8-13-12-14-21-3-10-5-22-15-25-8 0 2 14-3 19-4 2-11 0-5 6 7 9 20 14 24 26 2 9 12 12 16 19-1 6-7 17-13 14 1-8 0-17-8-22-11-6-18 7-22 15-3 6-5 12-12 8-9 2-8 13-9 20 0 6 0 13-8 14-9 2-12-7-14-13-9-4-22-2-29 4-8 9 7 19 14 10 9-1 12 13 1 13-8 0-16 6-24 4-8-5 1-15-5-21-6-10-18-2-21 5-4 9 12 19-1 22-6 2-21 6-21-4 1-7 13 1 14-9 5-9-1-24-14-20-5 5-2 14-4 21-6 2-3-20-14-12-15 1-1 13 0 21 0 8-17 4-15-4 1-7 5-23-7-22-6 1-16 7-19-1-2-12-4-24-11-35-4-8-5-22 5-26 8-3 21 2 22-11 0-7-4-17-13-16-9-3-20 0-23 10-2 7-6 14-13 18-4 8 3 20 5 29 2 10 4 21 11 29-4 10-15-5-20-9-6-7-12-14-15-23-2-6-5-12-10-17-4-9-5-20-8-29-4-22 0-44-3-65 0-16 5-32 10-46 5-13 14-24 20-37 6-8 17-5 23-11 2-8 1-19 12-20 9 1 8 12 13 18 1 10 15 11 14 0l-3-28c7-6 16-10 26-9 8 2-2 14 8 16 10 5 15-4 16-12 2-9 18-12 15 0 2 11 16 8 20 1 2-9 10-12 18-11zm1994 0c-12-1-24 8-25 20-1 7 1 21 10 18 8-3 17-5 22-12 6-6 12-17 3-23-3-2-6-4-10-3Zm-800 2c12 0 2 14-5 13-7 2-11-5-4-9l9-4zm-683 4c9 2 18 9 27 3 12 0 3 12-5 12s-13-6-21-4c-5 1-17-3-7-7 3 0 3-4 6-4zm2160 5c-21 1-41 8-62 10-14 3-25 13-37 21-13 9-26 16-37 26-7 8-16 13-23 20-7 9-15 16-23 23-9 14-11 32-7 48 5 11 2 24 9 34 5 14 14 26 16 41 5 9 8 22 19 26 5 7 2 18 3 26 0 10 1 21 5 31 5 15 3 31 8 45 3 8 9 13 10 21s3 16 8 24c6 18 23 31 39 39 9 6 19 9 27 16 8 2 9 14 18 12 10-4 21 4 29 11 8 8 11-11 19-3 9-1 13 11 11 19-2 5-12 0-13 8-1 9-10 14-17 7-3-3-15-9-7-1 5 10 13 18 20 25 4 8 8 18 18 18 7 3 14 4 22 5 8 0 15 4 23 4 13 0 23-15 37-11 8 4 25-3 14-12-11-7-25-1-37-3-7-2-13 3-7 9 7 11-10 8-16 4-7-3-14-9-18-16 1-9 16-11 12-23 0-10-5-19-12-26-7-9 11-14 15-7 6 9 2 20 5 30-1 8 1 22 13 17 7-5 15-3 21-6 2-3 4-13 7-4 7 7 18-3 26 3 12 5 14 25 5 34-6 2-14 2-16 8-5 0-20 2-16 9 9 3 20 5 27-2 2-5 1-8 7-5 8 2 18 3 26-2 7-4-8-11 2-13 9 1 17-2 23-9 6-3 15 7 19-3 4-7 1-16 2-23 5-7 14-11 12-21 0-19 0-41-14-56-3-7-4-16-4-24-1-10-11-22-3-32 7-8 16-17 19-28 2-7 5-14 10-19 5-9 3-20 7-28 0-9 3-17 5-25 2-13 2-25-1-37-12-3 1-16-6-23-4-11-11-20-21-26-6-9-8-22-19-26l-18-20c-8-4-7-14 3-15s19-4 29-8c7-4 15-5 23-8 7-2 12-7 18-11 9-5 23-5 26-16 6-8 11-18 12-28 2-12 3-27-6-36-4-8-12-14-21-11l-36-3c-22 3-39 19-60 23-9 3-15 11-23 14-12 1-19 15-31 14-9 3-19 2-22-8-8-6-10-17-19-22-10-8-20-16-33-21-9-2-19-1-28-3l-16-1Zm-1603 6c8 2 1 10-3 4-1-2 0-4 3-4zm-381 7c10 3 20 7 27 15 3 4 0 10-3 4-5-5-10 3-2 4 6 3 13 7 20 9 14 5 23 17 31 28-7 4-12-6-19-8-8-4-17-7-25-13-16-4-26-21-44-20-5-4-21-10-11-17 8-4 17-1 26-2zm1972 1c20-1 39 3 59 6 11 5 18 15 26 24 8 7 12 17 15 27 6 6 12 12 14 22 4 7 11 11 9 20 7 4 9 14 2 20-14 17-38 21-53 37-9 5-16 15-28 15-11 2-18 13-29 16-19 10-40 16-60 23-8 3-17 4-25 6-11 3-22 3-33 5-7-2-14-10-15-16 4-5 5-11 7-16-7-6-11 7-17 1-8-1-19-3-20-13-7-17-13-33-17-51-2-9 4-17 8-25 10-19 25-34 41-46 12-9 23-20 36-27 11-6 20-14 32-17 14-5 29-9 44-11h4zm-1475 2c8 1 16 1 22 6 1 9-16-2-21-5zm119 2c7 5 11 16 7 23-8 10-27 0-22-12 3-5 10-8 15-11zm-669 4c7 1 5 8-2 6-6 1-9-6-1-6h3zm531 0c16 8 33 19 52 18 11-2 23-2 34 3 8 4 18 8 20 18 8 13 24 19 36 27 6 11 12 24 24 31 8 5 13 12 13 22 4 14 12 28 8 43-2 15-8 29-10 43-9 17-7 40-21 54-5 5-5 13-10 19-10 15-26 24-39 36-43 17-90 28-135 20-15-2-28-8-42-14l-29-8c-24-16-42-39-58-62-3-14-13-26-16-41l-2-33c-2-8 7-14 7-22 0-12 10-16 17-23 8-7 10-20 6-30 0-6-9-16 2-17 7-3 18-4 21-13 0-13 15-13 22-21 9-5 15-14 18-24 6-8 17-10 26-11 16-5 34-4 49-11l7-4zm1750 2c10 6 25 1 35 8 5 9 1 20-4 27-5 10-14 16-23 20-9 3-18 8-27 10s-17 9-27 8c-19 3-34 16-53 18-11-2-14-15-18-24-3-8-15-12-9-22s19-10 29-13c10-4 21-6 32-9 13-4 26-10 39-13 8-3 14-9 23-10h3zm-643 1c9 8-9 7 0 0zm-1723 6c12 0 24 0 35 3 4 10-13 6-18 7-7-1-13 1-16 3l-22 1c6-5 10-14 19-14zm-1206 1c-2 9-11 18-7 29 0 6-1 20 9 16 8-4 7-14 8-22 3-8 3-21-8-23zm1131 4c4 0 0 3 0 0zm-3 4c3 7-1 16-6 20-12 7-13-13-2-16l8-4zm192 3c17 0 28 15 39 25 4 3 20 12 9 14-8 2-17 5-23-3l-20-22c-3-4-5-9-5-14Zm-22 9c11 7 17 20 28 28 16 15 32 31 51 42 6 6 13 11 21 14 7 4 16 3 21 10 2 9-2 18-2 27-1 10 0 19 1 28-2 13-1 25 1 38 2 16-2 33 3 49 3 11-1 23-11 29-13 10-24 23-39 29-11 5-21 11-32 15-16 4-32 7-48 8-32 0-65 0-96-11-18-11-41-15-54-33-13-13-27-27-37-44-1-11 3-23 9-32-2-13 6-25 8-37l6-27c5-13 9-26 12-40l6-36c0-10 2-18 4-27 0-9 8-15 17-10 32 5 67 7 98-8 12-1 22-9 33-12Zm-58 1c-1 5-15 7-13 2 4-2 9 0 13-2zm1592 2c-14 6-31 3-44 12-31 8-63 11-94 20-17 2-33 11-51 10-12 1-26-2-35 8-4 8 1 18 3 27 4 9 6 19 7 29l5 25c10 10 23 15 36 18 9-1 20 3 22 12 9 1 14-12 24-6 16 2 33-3 48-10l41-10 52-29c16-12 17-36 8-52-8-15-12-32-15-49-1-3-4-5-7-5zm-3113 2c-10 5-9 18-6 27 4 11 9 22 12 34-7 5-18 3-22-5-5-7-6-16-12-23-5-8-11-17-21-18-4-10-22-2-11 5 13 6 22 18 28 30 2 9-7 15-15 14-11 1-16-9-20-17-9-14-20-27-33-37-12-6-6 12 1 14 8 8 14 18 20 28 9 4 9 19-2 20-9 0-18 4-27 2-6-9-14-16-21-23-8-7-14-16-23-22-6-5-15 1-8 8l21 21c7 6 18 15 16 25-6 4-19 16-25 7s-16-15-26-14c-18-2-38-7-55 3-13 3 0 14 8 10 6-4 13-3 19-4 17-1 34 3 47 14 4 8-9 11-13 17-7 5-10 14-21 13-16 1-33 0-47 11-9 5-18 7-28 11-3 10 10 12 17 9 10-1 18-6 27-10 8-1 22-11 28-2 1 8-1 18-9 22-9 4-19 3-29 6l-27 9c0 12 15 11 23 10 9-1 26-9 24 6 1 15-7 29-2 43 1 11 0 23 7 32 5 11 7 23 14 34 6 11 15 21 23 30l27 22c13 4 24 13 37 17l41 13c31 6 64 6 95-1 21 1 39-10 56-22 17-10 37-18 45-37 3-8 12-13 14-21 6-8 13-16 14-26 3-9 9-16 13-24 8 1 12 10 18 15 8 10 17-6 8-12-5-9-13-16-20-23-12-2-1-15-4-21-2-13 9-4 13 1 5 5 8 11 12 17 2 7 13 16 17 7-1-10-5-20-11-28-9-12-20-23-31-32-11-4-10-18-14-27-4-12 13-12 19-8 11 2 16 10 22 18 6 6 19 1 15-8-3-10-13-16-22-20-6-5-14-7-22-7-9-1-19 0-28-2-5-6-18-15-10-22 8-5 16-13 27-11 8-1 17 4 24 0 8-9-5-13-11-15-8-3-16-2-23 1-12 1-23 8-33 14-10 3-22-12-9-16 9-8 14-19 23-27 6-4 20 9 21-3-3-13-20-16-31-11-9 6-15 15-23 22-6 3-11 17-18 11-9-6-3-16 0-24 4-9 11-18 20-21 11-1 11-14 2-18s-21 1-27 8l-11 28c-2 9-8 18-18 15-10-2-7-15-5-22 0-10 7-17 13-24 3-9-12-19-18-11-8 17-5 37-16 52-9 4-8-11-11-17-4-10-9-21-7-32 1-4-1-8-6-8zm1452 0 46 1c-12 8-28 5-42 6-5 0-15-5-4-7zm803 1c9 2-8 4 0 0zm39 5c11 1 6 16-1 20-6 5-17 6-20-3-4-12 15-11 21-17Zm809 11c11-1 9 14 15 20 2 6 4 20-6 20-10-9-20 5-30 1-5-5-7-13-9-20-2-11 10-14 18-17l12-4zm-1726 4c11 2 14 13 13 23-1 17-4 34-10 50-3 9-8 18-14 25-9 6-21-1-22-11-4-11 2-22 5-32 4-17 8-35 18-50 3-3 6-5 10-5zm-412 6c-9-1-12 11-9 19 1 10 15 15 19 3 0-6 5-11 3-17-3-4-8-6-13-5zm2082 4c9-1 15 8 16 16 0 7 9 17-2 18-14 1-27 7-41 5-10-1-13-13-10-21 1-7 7-11 14-12 7-3 15-5 23-6zm-1354 3c9 1-2 6 0 0zm-170 2c-5 6-13 21 0 23 8-2 15-10 15-18-2-7-10-5-15-5Zm-58 2c-9 2-8 14-2 19 8 7 14-6 14-13 0-6-7-7-12-6zm35 0c-9-3-15 8-11 16 5 10 17-1 20-8 5-7-3-9-9-8zm206 1c8 5 24 9 22 21-7 6-16-4-21-8-2-5-15-14-4-13h1zm-123 1c-10 1-9 13-7 20 0 14 17-1 22 10 7 2 15-7 15-14-1-13-18 1-21-8 1-6-2-11-9-8zm-757 5c-10 2-9 16-4 23 4 9 16 8 21 0 6-7 1-20-9-22l-8-1zm2164 1c9 3 7 15 10 22 3 10-8 16-17 16-10 2-22-3-21-14-1-8-2-18 9-19 6-3 12-5 19-5zm-830 2c-15 4-23 25-15 38 5 11 20 11 29 7 11-2 12-13 9-21-5-9-14-15-20-23l-3-1zm772 9c9-2 15 8 14 16-5 8-18 3-27 3-8 0-18-12-8-17 7 0 14-3 21-2zm-909 3c-10 2-13 14-12 23 0 9 6 17 13 22 8 6 21 3 28-4 4-12 0-27-10-35-3-8-13-5-19-6zm1098 1c5 6 10 15 4 22-6 11-19 16-30 17-6-6-10-18-1-23 9-1 19-3 24-12l2-4zm-1479 6c-8-2-15 10-9 16 7 1 23-8 15-16h-6zm-148 1c-10 1-13 14-11 23 0 10 13 12 20 8 7-7 14-21 4-28-4-2-9-3-13-3zm193 0c4 3 20 7 13 13-5-1-16-7-13-13zm-1699 5 57 1c9 9 24 8 34 18 12 9 24 17 35 28 11 10 18 24 26 36 6 14 5 29 10 43-2 11 3 23 0 34 0 13-4 25-7 37-5 19-16 35-27 52-15 19-37 31-56 44-17 11-35 17-55 18-54 6-111-10-151-47-12-14-25-28-30-46l-7-25c-3-10-8-21-8-32 5-11 4-24 5-35-1-11 9-18 10-27 3-9 5-19 12-25 9-21 29-35 48-47s42-17 64-22c13-3 27-3 40-5zm1619 9c-13-1-10 15-11 23-2 10 10 16 17 9s14-19 7-28c-3-3-9-4-13-4zm-625 2c-10-3-12 9-4 14 4 5 17 9 15-2 3-6 19 5 14-5-6-7-17-2-25-8zm2081 1c8-2 14 7 15 14 3 7 0 15-7 17-10 5-21 6-31 9-11 5-18-7-17-16 3-7-6-16 4-17 9-3 19-3 28-6l7-1zm-1741 2c9-1-4 12 0 2v-2zm2435 1c11 1 22 5 29 14 8 8 21 13 27 23 5 10 14 16 18 25 2 9 10 15 8 24 1 10 8 18 6 27-1 7 0 14-3 21s-3 14-3 22c-2 9-7 16-10 25-5 10-12 18-16 29-6 3-5-11-9-15-3-10-11-19-15-28-5-8-7-20-18-22l-23-3c-7 0-18-4-24-1 3 11-18 8-17 13 15 2 30 7 43 16 10 5 22 5 31 13 8 8-2 18-10 11-12 0-5 14-6 21 2 4 3 19-3 9-5-6-19-7-20 2 0 9 5 17 7 26 2 6 1 12 8 14-1 7-13 21-18 9-1-9 5-20-3-28-4-11-22-7-18 6 0 5 6 20-3 17-2-6-4-18-14-19-11-1-10 11-10 18 1 4 6 14-3 10 1-13-24-14-20 1-2 10 6 19 6 28-10 2-13-10-18-16-5-8-11-14-14-23-8-4-15 5-17 11-4 7-4 17-10 23-12 4-8-11-4-17 1-7 4-19-4-22-7-3-14 12-17 1-2-12 0-23 1-35 0-7 8-11 13-5 6-8 12-16 23-15 8-1 19-3 21-13 3-10-11-1-16-5l-23-5c-8-7-16 0-22 5-8 4-14 12-10 21 2 5 4 20-5 15-9-9-9 11-10 16-1 8-4 24 9 19 8 3 7 13 8 20 0 11-14 6-21 4-7-3-14-8-19-13-11-8-27-12-31-26l-7-28c-7-19-11-38-14-58-5-12-5-26-6-40 2-5-3-20 6-16 9 5 17 0 26-1l36-8c14-3 26-7 39-12 13-4 28-8 38-18 14-10 32-11 44-24 9-6 17-14 27-18l22-12a71 71 0 0 1 38-13zm-2805 1c-6 7-15 5-22 7-11 5-19 13-30 17 1 9-15 15-12 3-2-9-15-6-18 2-5 7 0 14 2 21 0 10 13 14 14 2 6-7 15 3 22 2 10-1 7-14 12-20 6-6 15-2 20-9 9-4 16 5 21 8 11-4 1-15-3-20-3-4 3-12-6-13zm813 2c10 2 10 20 3 20l-4-20h1zm1158 2c9 2 21 2 27 11 1 7 6 15 2 23-7 9-18 0-27-1-11-4-6-19-10-28-1-5 4-6 8-5zm78 6c7 8 12 20 12 31-2 10-14 8-22 7-9-1-21-1-22-13 1-7-4-20 6-19l26-6zm-1273 6c8 5 2 16 4 24 1 9-3 20 3 28 4 10 1 21-4 29-9 5-7-11-7-17l-3-30c1-8 9-13 6-22 0-4-2-10 1-12zm-735 4c-10 2-14 13-21 20-7 8-14 18-25 22-18 16-40 31-65 28-15-1-28-8-42-6-9-1-19 12-6 14l41 6c15 3 32 1 45-9l37-21c14-9 27-21 36-35 2-6 14-14 8-19h-8zm-425 1c-10 0-19 10-14 20 0 9 4 19 0 28-8 4-17-6-22-13-6-8-15-12-21-19l-17-14c-7-3-19 5-13 12 7 4 11 11 16 16l17 17c4 8-9 14-15 10-5-5-12-7-18-10-7-3-14-7-20-8-10 2-19-6-28-4-8 4 0 15-10 17-4 4-9 13-17 9-9 0-27-6-28 7 7 6 17 6 25 12 5 2 11 9 2 7-11 1-21 0-32 2-9 1-20 1-27 8-2 9 11 9 18 8 8 0 17-5 26-3 9 3 0 9-6 10-30 12-62 17-91 32 4 8 15 6 22 4 8-2 15-4 23-1 6 4 14 1 20 3 4 7-2 15-3 22-2 9-1 18-2 27-1 22-2 43 4 64 0 10 4 18 5 27 2 10 10 17 12 27l13 25c7 10 18 17 28 25 20 14 45 20 68 28 34 11 71 18 106 7 7-2 12-7 19-8 6-1 13-4 18-8 15-10 30-18 41-32 18-7 23-29 40-38 13-23 19-49 15-75-1-23-3-47-6-70 0-8-3-23 10-17 8 0 18-5 19-13-3-9-15-8-22-11l-26-11c-6-6-14-10-17-18 4-7 16-1 20-10 5-5 7-10-2-9-8-1-17 3-25-1-5-6 10-6 14-9 5-1 16-11 6-13-12-3-24 5-36 7-7 3-16 6-21-2-11-6-6-18-3-26 5-7 2-17-7-13-7 4-12 12-17 18-3 9-17 4-22 7-4-12-14-22-12-36 0-5 2-14-5-14h-2zm283 3c-9 6-13 20-8 30 7 9 18-2 17-11 1-7-1-16-9-19zm460 5c6 6-6 11-4 3 1-1 2-4 4-3zm-1382 4c-14 2-12 25 1 26 9 0 17-9 14-17-2-7-9-9-15-9zm89 3c-12-1-24 12-18 24 5 8 16 5 20-3 3-6 3-15-2-21zm1359 12c6 6-8 4 0 0zm2083 12c4 5-3 3 0 0zm-1263 1c-9-1-14 9-18 15s-6 15-12 19c-2-4-1-7-5-3l-24 22c-12 7-25 15-40 14-13 1-24-3-37-4-13-11-32-14-43-27-5-6-9-12-12-19-11-8-28 7-21 19 6 8 12 15 21 19 12 10 25 19 40 23 12 4 26 3 38 6 19 2 36-5 52-14 17-10 30-25 45-38 7-10 17-20 16-32zm-825 0c3 5 4 21-5 19-6-6 3-13 5-19zm2310 9c-10 4-21 11-18 23 0 9 8 15 15 18 10 3 22-7 19-17 2-9 3-21-9-22l-7-2zm-2151 18c-12 2-19 14-20 25-2 14 11 28 25 28 10-2 22-3 28-13 6-7 5-17 2-26-5-10-16-15-27-13l-8-1zm-1561 2c-12 9 16 17 8 3-2-3-6-3-9-3zm655 2c12 3-8 7 0 0zm-608 6c-14 3 8 20 7 7-1-4-3-6-7-7zm1522 4c10 1 15 13 7 19-6 8-17 1-16-8 0-6 3-11 9-11zm-536 4c7 4 10 17-1 18-3-3-2-15 1-18zm-1102 1c3 9 8-3 0 0zm1866 0c2 7 13 14 7 21-1 4 8 16-1 14-3-10-9-21-6-32v-2zm-1837 1c-9 6 11 7 1 1zm43 1c-9 8 11 4 0 0zm35 6c-4 6 9 4 2 1zm531 6c12 0 25-1 36 4 25-2 47 13 70 21 17 6 33 15 50 21 11 11 8 28 8 42 2 22 6 44 3 66-1 10-1 21-5 31-5 11-9 22-18 29-14 16-28 32-46 42-9 5-16 11-23 16-21 12-44 22-68 22-26 1-51-6-76-14-17-5-35-12-49-25-17-10-22-31-29-49-4-8-10-16-12-25-9-31-6-64-7-96 3-10 8-20 14-29 9-10 21-18 32-28 4-12 16-16 27-20l30-5c13-1 26-2 38 3 9 1 18-2 25-6zm3029 0c-10-3-19 6-17 16 1 9 11 20 21 15 9-5 15-19 8-27-3-4-8-4-12-4zm-3668 6c-12-3-4 12 2 13 11 3 8-14-1-13zm32 5c-9 2 0 9 5 4 0-2-3-3-5-4zm48 2c-7 3-15 19-3 17 0-7 16-13 3-17zm105 2c-11 4-11 18-14 27-1 10-5 21-13 27-8 8-10 20-21 25-17 9-38 9-57 8-23-5-48-9-69-21-7-7-20-8-28-5-4 9 6 14 13 17 7 5 13 13 24 13l28 7c9 3 20 7 30 5 18 0 37 1 55-4 14-5 23-18 35-28 6-11 13-22 18-34 2-11 4-22 3-33-1-2-2-4-4-4zm3614 3c-7-2-17 4-16 11 7 5 19-3 17-10zm-3714 8c-4 4 6 1 0 0zm3688 6c-8-3-12 7-16 12-3 7-14 3-7-3-4-11-17-1-17 7-1 6-9 11-9 15 10 6 19-5 26-10 8-3 7 8 6 11 7 6 18 1 25-5 5-3 6-15-3-10-6-3-4-12-5-17zm92 9c6 0 5 7-1 4-2-1-1-4 1-5zm-3158 10c-11 0-18 11-18 22 2 10 17 10 20 1 5-7 6-19-2-23zm-130 4c-9-3-19 5-18 14-1 10 8 22 18 18s11-16 10-25c-2-4-6-5-10-7zm642 1c-13 1-18 16-30 17-5 3-11 14-15 4-10-2-14 8-18 15-3 9-13 11-21 12-9 2-8-14-16-6-5 3-8 21-15 11-5-13-13 3-17 8-14 20-31 37-46 56-9 9-19 18-27 28-12 14-27 26-35 43-3 8-10 22 0 27 11 0 12-13 17-20 5-5 9-17 17-15-1 10-9 17-15 25-4 5-10 20 0 20 9-1 12 9 12 17s-1 18-6 26c-2 7-10 13-9 21 7 5 16-2 22-4 6-6 4 7 10 9 5 5 10 12 5 18-5 12-12 22-15 34 11 7 21-6 24-16 6-9 16-2 21 4 9 5 14 15 9 25-5 13 14 9 18 2 9-5 19 0 26 7 14 9 32 12 48 17 7 0 14 4 11 12-1 9 6 20 16 18 9-2 5-17 11-20 2 9 2 19 5 29 0 9 11 20 19 10 1-8-2-17-2-25-2-8 2-21 12-15l8 41c-4 10 11 11 15 5 5-6 2-15 3-23 0-7-1-15-3-22 12-4 9 14 10 21-1 9 9 18 18 12 7-8 0-18 1-27 0-8-2-21 10-16 8 5 1 17 8 23 10 1 15-12 13-20-3-9 4-14 11-17 19-9 40-15 56-29 9-3 18-17 28-10 6 6 3 17 10 23 5 5 15 4 18-3 2-7-2-15-3-23-2-8-6-15-6-23 1-6 9-20 13-9l10 35c3 9 7 18 6 28 6 7 16 0 18-7s-1-14-2-21c-3-12-10-23-12-35-1-12-3-24-11-34-3-6-1-18 8-18 5 5 9 12 11 19 1 8 5 15 6 23 1 10 4 19 6 28 2 8-1 23 11 22 9-4 11-16 7-24-5-13-3-28-8-41l-10-26c-5-8-3-18-11-23-3-9-5-18-10-26-3-9-2-19-5-29 1-5-5-20 5-13 8 9 14 20 21 29 4 8 4 21 15 23 8-3 5-15 1-21-8-16-23-28-30-46-16-17-30-35-42-55-9-7-16-15-22-25l-29-19c-9-7-21-15-34-12-16 4-29-8-42-14-10-5-20-7-30-8-9-4-13 7-13 11-11-3-24 2-35-4-1-5 2-13-5-14zm2605 2c-13-2-21 10-27 19-6 10-15 17-24 22-12 6-26 1-36 10 4 10 16 9 24 6 14-3 28-6 39-16 9-7 17-15 24-24-1-6 6-13 0-17zm-2543 18c13 7-10 5 0 0zm1641 2c18 7 37 12 50 26 6 7 9 15 12 23 1 13-11 21-20 26-7 7-15 3-23 1-7-1-15-4-21-9 1-11 4-23 3-34-1-9-6-19 0-27-2-2-6-5-1-7zm-275 1c-11 1-15 12-15 20 4 6 15 5 20 0s8-17-1-19l-5-1zm140 13c-8 4-10 14-13 21 0 10 14 8 19 4 10-5 10-19 0-23-2-2-4-2-6-2zm-1502 13c12-2 15 13 16 22 2 9-6 19 0 27 8 5 16-5 15-13 2-8-2-17 2-25 11-2 18 10 26 16 7 8 18 11 25 21 7 7 10 17 17 24 9 3 8-13 6-19-1-7-12-15-4-21 8 2 14 12 20 18 8 11 13 24 21 34 6 10 5 21 4 32 0 11 6 20 7 31 4 11-6 19-4 30 0 8-4 15-5 23-2 8-5 16-10 22-4 9-5 21-14 27-5 15-19 22-29 32-17 10-34 21-54 26-8-1-7-13-14-16-8-4-21 2-15 12 3 6 5 20-6 17-7-5-5-17-15-18-10-4-13 8-11 15 4 9-9 15-11 5 0-6 0-16-8-17-10-2-14 9-11 16 1 9-13 13-11 2 1-10 1-23-11-26-9-1-10 21-20 10-10-4-11 8-14 14-5 8-14 0-21 0-14-2-26-10-38-16-8-1-17-5-20-14-4-5 4-18-5-18-8 0-17 7-25 1-4-6-11-11-12-19 0-7-2-16-11-17-5-6-10-14-13-22-2-11 3-21 7-31-9-3-9-12-7-20 1-10 1-21 5-31 14-13 22-30 35-44 3-10 15-10 23-14l13-16c5-9 10-18 12-28 3-8 9-19 20-17 4 9-7 15-10 23-5 4-8 17 2 14 9-2 15-13 26-11 6 0 13-2 20-4s14-5 15-13c4-6 16-7 21-8 0 10-3 20 1 29 7 6 14-2 15-9 5-8 15-5 19-12 8 3 6 14 8 22 1 7 13 17 17 6 1-11 3-23 2-35 0-7-1-19 9-17zm2670 4c-8-4-13 5-6 10 7 6 16 3 23 9 9 3 19 2 29 1 8-1 20-9 12-17-8-6-19 0-28 0l-30-3zm-85 13c11-4 3 16 0 5v-5zm256 5c-7-4-21 4-12 11 10 7 23 6 32 13 11 3 11 16 19 22 7 1 11 9 17 14 8 7 13 19 7 29-5 9 1 19 0 29 2 8-2 17 1 25 3 10 3 22 2 33 0 11 4 22-2 32 6 8 1 19 3 29l-3 25c0 13-5 25-6 38-5 9-4 21-13 28-8 2-16-4-24 3-10 6-22 13-34 14l-29 2c-10-5-22 1-33 1-10 0-20-2-30 2-17 3-34-2-50-2-15 2-22 20-38 20-9 2-24 2-25 14-2 13-14 23-14 36-9 9-9 24-20 31-6 4-21-2-21 8 7 0 12 7 5 12-8 9-20 14-30 20-13 9-31 5-45 1-13-2-21-15-24-27-2-13-14-21-18-33-6-8-17-9-25-14-13-7-32-7-42 6-6 6-12 14-21 18-11 3-23-1-30-10-10-10-24-20-25-36 1-18-6-37-3-55 7-12 12-25 24-32 7 6 17 9 22 16 8 11 19 23 34 26 9-4 14 7 13 14-1 10 2 20 11 24 9 5 17 11 27 12 9 1 19 1 29 4 6 8 18 5 26 9l30 9 42 6c9 0 12-10 15-17 2-8 11-10 14-18 5-8-4-17-12-12-7 5-9 15-17 18-8 6-19 6-28 3-7-8 11-8 14-12 7-7 22-11 19-24-2-12 12-3 18-3 8 2 17 5 26 4 10-2 9-17-2-16-10-1-20-3-29-8-1-10 12-12 18-17 11-6 17-19 31-20l38-7c20-9 42-10 62-15 11-3 13-17 7-25-4-13 0-28-8-39-4-19-1-38-1-57 6-20 1-42 10-62 3-11 6-23 11-34l9-33c1-6 10-15 3-20-8-8-21 0-19 11-2 13-6 26-10 39-7 23-15 47-17 72-7 33-9 67-1 100 0 11 6 22 3 32-7 7-18 7-26 10-17 5-35 10-53 11-9 3-19 8-28 5-8-6-2-20-14-23-10-4-17-14-27-19-7-4-16-8-24-6-12 8-26 12-38 18-10 2-20-7-23-16l-8-37c-6-8-9-20-21-22-9-8-22-6-33-9-14-2-29 1-42 4-15 8-29 19-34 35-3 7-8 23-18 13-9-4-18-9-26-16-10 4-17-4-22-12-7-8-16-17-28-18-11-5-13-21-26-24-7-4-17-17-26-8-5 9 6 15 12 19 10 9 19 19 31 25 7 7 16 13 25 18 7 7 17 9 27 12 10 2 16 12 23 19 8 3 2 9-4 4-10-4-19-11-27-19-5-5-14-6-21-11-6-4-15-6-21-10-11-7-26-10-34-21-9-4-21-14-30-9-6 8 3 16 9 20 11 7 19 16 30 23l21 17 23 22c-7 3-17-1-25-2-16-4-31-11-47-16-26-11-54-22-76-41-9-5-19-10-27-18-6-7-12-15-14-24 5-10 9 10 17 6 17 12 34 25 55 27 8-5-2-15-7-18-15-6-31-12-44-22-4-3-15-9-15-12 11-2 16-11 21-19 7-5 10-12 15-18 11-6 21 3 30 8 9 6 20 16 32 12 4-10-14-15-19-21-14-9-27-18-41-25-7-3-19 1-17 11 3 5-7 9-8 15-6 9-16 16-18 27 4 12-16 14-13 26 5 14 6 30 17 39 19 13 37 27 56 39 18 4 31 19 49 22 18 10 38 16 59 19 9-3 24 8 29-4 5-10 16 2 21 6 5 7 16 6 20 14 3 9-6 15-12 19-3 7-5 14-10 20-6 13-4 26-4 40 0 8 2 15 1 24 2 10 7 19 11 28 9 12 21 22 34 30 20 5 40-5 55-17 6-5 15-11 23-5 7 9 21 11 26 22 6 12 10 25 20 33 5 11 18 14 27 19 12 4 24 8 36 4 11-1 22-6 31-12 14-3 21-16 33-23 9-8 19-17 27-28 10 0-1-13 9-13 4-7 3-18 8-22-5-9 11-7 15-13 1-9 7-15 14-21 7-7 17-14 28-14 27 6 54 1 81-4 10 0 20-3 30-1 12 0 23 4 34 2 14-2 26-8 39-15 5-8 16-4 24-6 8-1 8-9 12-14-2-9 4-15 5-24 4-8 3-16 4-24 0-7 0-14 2-21-1-9 5-18 1-27 0-8 5-15 1-23-2-9-2-18 0-27l-3-27c-6-8 3-15 1-23-3-7-6-16 0-23 6-5 10-13 5-21-2-12-5-25-12-35-4-9-12-12-18-19-9-4-6-14-15-16-11-8-24-18-38-16h-3zm-240 11c7 6-7 14-7 6 1-3 5-4 7-6zm-1940 8c-11 0-20 9-31 12-6 7-13 14-22 7-11-4-22-9-31-15-17-3-35-4-49 6-13 7-17 25-33 27-15 4-32 5-45 14-9 7-12 19-14 30 9 10 4 25 2 37-4 7 1 18-3 23-12 8-29 4-37 15-5 8-4 17-6 25 1 9 10 15 10 24 0 5 3 9 2 14l-2 34c-7 12-14 24-15 38-2 10-1 21 7 30 6 8 8 19 13 28 5 8 14 12 15 21 3 8 5 19-5 24-8 5-19 5-27 10-7 9 8 15 14 16l29 5c7 5 3 16 3 23-1 13 16 23 26 15 6-10 0-23 1-34-1-11-1-23 5-33 3-10 6-21 1-31-5-17-14-32-20-48-4-10-15-17-17-27-2-8-11-24 0-28 7 6 4 16 6 24 4 11 17 15 21 27 10 5 17 14 21 24 7 11 20 10 27 20 7 8 16 13 26 17l27 7c25 8 51 2 75-3l51-12c19-7 38-15 56-25 11-8 21-18 31-28 10-4 10-14 14-22l14-22c1 11 5 22 1 33-4 8-15-4-19 6-6 8 0 17 2 25l18 56c2 13 3 26 9 37 2 10 10 20 21 16 8-4 7-15 4-22-2-5-13-18-2-16 10 2 23-5 22-17 1-9 7-17 11-25 3-11 0-23 0-34-1-10-8-18-8-28-1-10-1-19-3-28-1-9-5-18-12-25-7-9-10-21-15-31-8-5-3-12 3-17 2-8 8-15 9-24 6-10 7-24-2-32-1-10-10-18-13-27-4-10-14-13-22-18-8-6-14-15-20-23-7-7-16-14-18-25-6-13-19-21-31-27-17-7-33-15-50-19l-21-4-4-1zm712 5c-8 3-14 21-4 23 7 0 14 6 17 10 9-2 13-14 10-23-3-10-15 1-20-8l-1-1zm1158 1c8 3-3 11-4 4 0-2 2-3 4-4zm-1071 1c-13 0-11 14-10 22 0 11 17 13 20 3 1-8-2-17-8-23l-1-1zm-362 1c-16-1-31 6-46 10-14 6-21 22-19 36-2 8 7 13 9 20 5 11 13 19 19 30 2 5 10 11 9 15-25 8-51 12-75 20-16 8-30 20-42 33-5 14-23 20-26 35l-9 29c-1 14-2 29-6 43 0 11 7 21 10 31 5 14 1 29 4 43 5 7 9 17 16 22 9 5 17 12 26 18l33 15c16 1 28 15 45 14 18 7 38 11 58 12 17 3 34 4 51 1 12-2 24-4 35-9l26-13c16-4 27-16 37-27s20-22 27-35c3-8 9-15 11-24l8-25c4-15 1-32 2-48 1-8 1-20-4-27-9-10-11-24-19-35l-17-24c-9-7-10-19-20-24-5-7-13-11-21-15-7-3-14-9-22-7 5 13-13 4-19 6-11 0-23 2-32-5-15-9-34-1-49-7-3-6-7-13-15-13-9-2-12-11-16-17-10-13-22-27-19-43 5-10 15-16 25-19 11-3 22-2 33 1 14 6 24 25 14 39-4 8-18 9-18-3 0-6 5-15-6-16-9-1-18 10-13 18 0 9 2 20 12 23 9 1 18 0 26-4 7-4 17-6 19-15 3-8 4-17 1-25-4-13-10-26-22-31l-21-3zm-1883 0c-10 6 1 15 8 17 7 4 15 6 22 11 6 7-3 18-3 27-3 10 3 19 10 25 8 10 23 17 35 9 7-4 13-12 14-20 3-8 1-19 10-23 9-2 18 3 27 1 11 1 22 5 34 4 18 1 37 5 56 3 12 0 21-10 31-16 8-5 2-17-6-17-11-3-11 10-18 13-8 5-18 4-27 6-54-6-108-12-160-28l-32-12h-1zm1450 4c29 4 57 15 77 37 3 4 11 14 1 10-11-2-20-10-31-11-10-3-19 0-28 3-13 2-27-2-39-6-5-8-11-21-1-27 6-4 14-7 21-6zm748 1c-9 3-10 14-6 22 5 6 20-2 20 11 9 6 19-6 14-15-1-8-2-21-13-16-5 2-11 2-15-2zm118 1c-8 6-15 14-18 24-6 15-23 22-38 26-14 4-29 4-43 2-25-2-51-2-73-16-7-4-19-3-18 8 4 7 15 9 22 13 21 7 43 13 65 11 18 5 36 0 53-5 20-6 38-18 50-35 1-8 11-17 7-25-2-2-4-3-7-3zm-976 3c12 4 26 4 37 12 6 3 17 6 15 14l-30 3a275 275 0 0 0-85 35c-10 6-13 17-23 23-8 4-6-10-8-15-1-8 0-16 2-23 13-10 29-12 44-14 19-7 28-29 48-35zm2016 2c9-3 15 8 16 15 3 8 3 17 7 24-9 7-2 19 0 27-1 10-18 12-11-1 6-10-8-16-8-26-4-10-11-18-12-29 0-6 2-9 8-10zm-39 5c12 4-7 10-12 9-3-4 9-8 12-9zm12 14c4 3-3 2 0 0zm-3278 3c8 5 27 0 26 13-1 10 0 22-7 29-8 5-18-2-22-9-5-7-6-16-3-24 1-4 3-7 6-9zm756 12c-11-2-19 10-15 20 2 11 16 12 24 6 6-6 9-17 3-23-3-3-8-4-12-4zm580 3c14-3 25 14 39 9 7-5 16-6 24-5 23 3 47 1 68 10 15 21 40 34 48 59l9 30c7 11 3 25 10 36 3 12-6 23-4 35-1 17-12 31-19 46l-19 31c-5 7-12 13-19 19-15 11-32 19-50 26-10 3-20 7-31 8-10 1-19 6-30 6-14 4-29 11-44 9-12 0-23-5-35-8-28-9-47-35-68-55a70 70 0 0 1-29-48c-3-9-11-21-2-29 6-9 10-21 7-31-6-7-17-13-9-23 2-12 7-24 15-35 5-13 14-25 24-35 12-14 25-28 43-34 14-7 29-14 45-17 8-2 18-4 27-4zm1924 0c6 5 5 23-3 11 0-4 2-7 3-11zm106 1c7 8 9 22-2 27-4 8-22 13-20-2 4-7 8-16 13-22l9-3zm263 1c-6 7 10 1 0 0zm-79 4c-8 7-4 21-14 26-9-1-19 7-7 12 7 5 17 3 18 14 1 8 4 17 1 25-3 7-11 12-19 9-3-7-19-9-18 2 6 11 20 17 32 16 9-3 16-17 27-9 12 4 23-6 28-15 6-7 6-23-6-19-9-1-12 9-17 14-10 2-9-12-10-19s-1-16 6-20c11 2 19-17 5-19-8-1-14-7-15-14-3-3-7-4-11-3zm-2930 1c-10 1-15 12-9 19 6 9 20 7 26-1 6-10-5-16-13-17l-4-1zm2498 2c-12 2-5 17-7 25-1 14-4 27-3 41 10 6 11-9 11-15 3-8 4-17 6-25 3-8 3-20-5-26h-2zm150 9c11 2 0 22-4 8 0-3 2-6 4-8zm-639 0c-8 8-22 4-30 12-8 6-19 11-24 20-2 11 12 8 17 5 7-3 14-6 19-11 6-11 13 5 8 11-1 26 1 52-2 78 0 8 2 19 11 20l25-8c10-2 20-5 29-10 7-8 6-23-1-29-9-5-19-12-29-8s-17-7-15-16c0-12 3-24 3-37 0-8 8-17 3-23-4-2-9-4-14-4zm-1195 19c-10 3-10 14-10 23-4 9 7 11 11 4 6-7 9-19 3-26-1-2-3-1-4-2zm-34 0c-11 1-8 15-9 22-5-6-12-12-21-10-10 4-2 15 4 19 6 5 15 6 21 2 6 10 16 1 15-8 1-7-2-15-5-21-1-2-3-4-5-4zm-1685 3c-17 2-31 13-44 23-6 8 4 13 10 8 8-3 11-12 19-14 13-5 26 1 39 3 8 2 16 6 24 11 7 4 17 7 22 15-14-3-29-4-43 1-22 4-45 8-65 17-11 6 0 17 9 14 7-3 14-7 23-7l53-11c10-1 21 3 27 11 0 9-14 3-20 7-12 3-24 9-35 15-10 12-29 17-36 33-6 9 2 16 10 10 7-3 11-10 16-16 12-4 21-16 35-18 4-2 17-9 18-2-9 9-18 18-29 25-10 14-28 18-39 32 10 5 20 0 29-3 11-4 18-15 28-21 10-4 16-13 24-20 5-6 17-4 19 4 0 7 1 15 8 20 6 6 15 7 23 3 10-2 2 12 2 17-2 10-7 20-11 29-9 10-11 23-16 34-6 17-11 35-11 53-2 6 3 7 6 5 5 8 2 19 8 27 5 11 7 25 18 33 3 9 9 16 15 23 6 8 9 19 16 26 6 5 15 6 20 13 9 10 21 17 32 24 13 5 28 6 41 11 9 1 17 4 25 3 16 0 32 0 46-8 22-6 41-21 64-29 18-13 36-28 46-49 8-12 14-24 17-38 4-13 8-28 6-42 0-15 9-30 2-45-1-14-1-30-11-42-4-7-10-12-13-19-7-10-15-20-24-27-11-11-24-20-38-26-8-5-12-13-21-17-20-12-41-28-66-27-11 0-21 3-31 8-20 4-42 2-62 10-7 4-15 1-15-7-8-12-23-13-34-18-8-2-19 0-24-8-15-16-32-32-53-40-8-5-17-8-26-10-11-3-22-4-33-4zm3602 1c8-1 1 5 0 0zm-431 5c-13-1-21 10-29 18-8 4-11 19 1 19 10 0 13-12 21-17 3-5 20-17 7-20zm-1613 13c-11 0-11 16-4 21 8 0 14-13 10-19-2-2-4-2-6-2zm1641 2c-9 2-13 13-20 19-8 3-15 20-1 19 8-2 13-11 19-17 6-3 14-14 7-19l-5-2zm-1377 2c7 3 11 11 14 18 4 12 9 27 1 39-4 0-5-11-6-16-1-8-7-13-9-20-4-6-7-15 0-21zm-292 3c-11 2-8 17-1 22 9 8 14-7 12-14-1-4-5-9-11-8zm57 1c-8 4-15 11-19 18-1 13 14 3 17-2 4-4 9-12 2-16zm1790 2c-15 5-31 7-47 8-15-1-31-5-46-1 0 9 12 11 19 14s14 3 22 3c21 0 44 1 62-11 0-5-3-14-10-13zm-1247 5c27-1 54 9 77 24 9 5 20 9 30 9 14 3 21 17 33 23 7 8 14 16 17 26 1 9 7 16 9 26l4 33c-5 18-6 37-12 54-8 9-9 22-18 30-10 15-22 28-37 39-14 13-34 16-50 25-21 9-45 5-67 2-18-2-35-5-52-11-23-7-44-17-66-28-10-6-20-14-27-25-10-24-14-51-16-77 0-27 4-55 19-78 17-27 43-51 75-58 27-6 53-15 81-14zm-426 16c-10 1-20 12-15 23 7 8 20 0 24-8 5-7 0-15-9-15zm-260 14c5 0 15 3 7 9-3 5-6 23-14 15-3-8-4-21 7-24zm99 1c-9 2-18 10-17 20 4 8 17 8 24 2 6-5 9-17 0-21l-7-1zm1403 11c10 8-7 14-14 13-11 3-6-12 2-9l12-4zm483 2c19 1 41 10 50 28 3 9 9 18 11 28 2 11 7 23 17 29 8 5 17 5 25 7 13-2 22-11 33-17 16-2 30 8 39 20 10 6 12 21 0 26-9 4-12 16-22 15-14 0-26-9-39-13-7 2-20 1-19 10 4 12-11 12-16 19-5 5-14 8-16 15 3 3 13-1 8 7-3 5-14 15-18 8-5-10-17-2-23 1-11-2-18-12-16-23 1-9 3-22 14-22 9-1 20-5 24-15 8-9 15 7 23 9 7 4 17-5 8-10-10-9-21-15-34-20-9-5-20 3-29-1-8-7-17-13-27-19-8-5-14-14-24-16-8-3-15-8-23-12 1-10 3-21 7-30 6-9 16-15 25-22l22-2zm-2494 1c-7 1-14 9-10 16 4 8 14 7 21 10 23 5 48 3 70-6 11-6-6-9-11-9-9-1-18-2-27 0-8 1-17 0-25-3l-18-8zm-801 1c11 1 4 14-1 19-6 6-11 13-15 20-7 6-5-12-4-16 3-10 9-21 20-23zm133 1c6-1 6 3 0 1v-1zm17 2c6-4 13 8 3 3l-3-3zm1348 2c-13-1-8 20 3 12 8-1 10-10 1-12h-4zm1125 5c-31 1-60 10-90 17-13 5-24 13-34 22-9 7-21 12-26 23 3 13 14 26 9 40 1 8-6 18-13 9-9-8-22-12-35-8-18 1-39 7-48 25-4 12-9 26-4 38 3 12 5 26 17 31 15 5 30 12 47 13 7-2 16-8 18-16-4-7-15-1-22-4-8-1-17-4-25-7-7-9-16-19-16-32-5-14 9-30 24-30 6-8 18-6 25 0 6 5 15 7 20 11-2 8-14-2-20-3-13-3-26 8-32 20-4 11 2 24 13 28 4 9 17 5 24 9 7 2 18-8 20 2 4 9 2 19 7 27 1 13 8 25 17 34 10 6 22 6 32 12l76 15c9 0 19 0 28-3 14-5 29-7 43-11 9-5 16-13 25-19 10-5 16-16 16-27 3-11-6-20-5-31 0-18 0-35-3-53 7-10-2-22 0-33 0-11 0-23-4-34-10-9-10-27-23-34-6-6-10-15-19-17-12-5-25-11-38-14h-4zm-2587 3c9-1-4 5 0 0zm1485 1c-7 4 0 8 4 3 0-2-2-2-4-3zm-1424 7c12-2 22 7 33 9 10 3-6 5-9 2-9-2-25 1-29-8 1-1 3-3 5-3zm2525 3c22 6 46 16 59 37 7 11-3 25-14 29-7 3-12-3-19-5l-21-6c-12 0-25 4-37 7-11 1-22-4-33-2-13-2-26 1-38 7-9 5-20 0-24-8-9-8 3-16 9-18 9-4 16-10 23-16 10-8 23-11 35-13 10-2 20-5 31-5 8-6 23 7 27-3 0-1-1-4 2-4zm-2443 3c6-4 22 10 10 10-4-2-14-3-15-8l5-3zm1307 0c-9 2 6 3 0 0zm28 2c-5 0-11 6-3 6 4 0 6-3 2-6zm530 5c-13-2-22 12-20 24 0 13 14 17 23 11 10-2 21-7 17-19-2-9-10-18-20-16zm-576 1c-7 0-8 8 0 8 8 1 7-10 0-8zm-1447 5c3 5-9 2 0 0zm-6 5c5 3-5 3 0 0zm1913 0c-14 0-25 14-25 27-2 10 6 18 15 20 10 2 21-1 27-8 1-10 3-21-2-30-1-7-9-9-15-9zm-1430 7c-9 6-21 4-31 6-12 2-24 0-35 6-11 4-23 3-33 8-10 4-10 16-10 25-1 12 1 24 5 36 1 13-2 26 0 39 1 12 4 22 3 34l1 29c-4 8 1 17 9 20 7 4 16 5 25 3 8-1 15 0 22 3 14 3 28 4 41-3l50-10c14-6 17-24 16-38 0-5-4-21 5-13s21 12 34 11c12-1 18-13 24-22 5-9 7-20 3-29-2-10-3-21-9-29-5-9-14-14-22-18-9-4-21-8-29 0-5 9-22 8-16-5 0-15 1-31-8-44-14-8-29-9-45-9zm-382 2c15-3 25 10 39 14 4 11 19 3 26 9 1 7 8 12 14 6 8-5 4-15-3-19-3-2-8-11-1-7 15 7 21 23 34 32a9 9 0 0 0 18 2c4-4 1-21 9-12 7 7 11 14 11 23-1 6 5 13 10 6 4-3 12-18 15-6 4 10 9 21 12 32 5 14 3 29 4 44l-4 36c-3 9-7 18-9 28l-12 27c-7 11-18 20-26 31-19 20-45 30-70 42-12 4-25 4-37 7-19-5-39-7-57-13-11-5-22-9-31-16-9-5-20-7-26-16-3-9-8-16-15-23l-14-23c-1-12-12-18-13-29-3-11-12-21-10-33 2-8-6-15-3-23 2-7 6-14 6-22 2-9 14-20 22-11 11 0 6-16 6-24s-3-16 1-24c2-6 7-14 15-12 3 5 3 14 5 20 3 7 3 16 9 20 3 5 14 10 11 0-3-8 0-17-3-25-1-6-4-19 4-21 8 1 17 4 22 12s12 15 19 22c8 2 9-10 3-13-5-6-7-19 3-20 14-3 27 2 40 5 10-2-1-15-7-16-6-2-17-3-19-9l1-1zm1472 2c-11 3-19 12-31 14-18 4-37 5-55 10-12 1-24 2-35-1-14-2-26-11-38-17-6-7-20-3-16 7 5 7 13 10 20 14 8 5 17 7 25 11 13 5 28 6 41 2 8-2 19 2 21 11 2 8 11 13 17 20 9 7 22 8 32 3 9-5 18-12 19-23l-8-28c3-8 16-12 13-21l-5-2zm1586 1c10 4 18 11 28 15 11 6 23 11 33 20 18 5 32 19 49 27 7 4 3 19-6 16-6-6-13-12-20-16l-20-16c-11-6-18-18-31-19-14-4-24-16-37-23 0-2 2-4 4-4zm55 5c4 4 16 10 16 12-6-2-17-6-18-11l1-1zm-2710 1c9 1 21 14 12 22-8 8-19 13-29 10-17-2-34 4-47 13-11 5-23 6-34 10-12-1-16-16-15-26 3-10 16-11 24-13 10-1 17-7 27-7 11-1 22 0 32-5l30-4zm2731 13c4 0 15 7 12 10-5-1-12-5-12-10zm-1537 7c6 8 7 19 10 29 2 9 10 18 4 26-9 6-13-9-17-14-5-6-1-14 0-21v-20h3zm-156 6c9 5 12 17 7 25-7 7-17-3-21-8-6-7-2-18 7-16l7-1zm1073 7c10-5 16 9 5 12-7 2-14 0-21 1-18 0-36-1-54 2-8-1-21-2-25-6 10-7 25-8 37-4 19 1 39-3 58-5zm60 0c7 3 0 11-2 4l2-4zm341 1c-18 3-34 11-52 16-10 5-21-3-31-6-8-2 0 12 0 16 4 9 3 19 2 28-1 8-2 16-1 25-7 9-3 20 0 30 7 8 16 15 25 19 8 4 20 5 25-4 6-8 13-18 8-27-5-10-18-10-27-13-11 6-19-8-14-17 1-11 1-23 3-34 8-8 21-3 30-10 10-4 20-10 30-8 8 3 4 14 5 20-2 14-4 28-3 41 5 12-14 16-8 27 9 5 17 11 27 10 13 0 28 1 37-9 8-7 9-21 1-29-8-6-20-5-29-1-6 3-13 4-12-5 0-13 4-26 2-40 2-10 5-25-9-28l-9-1zm259 5c5-3 12 4 4 5-3 1-7-4-4-5zm-2797 2c11 2-9 10-11 4 2-5 7-2 11-4zm-817 4c-21 4-43 3-62 13-21-1-40 7-59 14-11 6-19 17-31 21-8 7-18 14-21 26-9 5-12 17-15 27-2 10-1 20 0 30 1 13 2 27 6 40 2 9 8 16 12 24 4 10 8 22 17 29 6 7 18 12 18 23-4 14-6 28-9 43-2 11-7 21-16 28-6 7-20 11-19 21 6 6 17 0 23-4 7-4 12-18 21-14 7 5 6 17 15 20 8 3 18-1 12-10-4-8-13-11-17-18-9-14-4-31 0-46 2-9 5-20 17-19 10-2 18 1 25 9 8 3 16-4 24-3 8 0 13 8 21 2 10-3 20-7 31-8 10-2 21-4 29-12l33-17c10-6 17-16 28-20 9-4 20-8 29-2 11 8 16 20 23 31 10 2 11 13 13 21 5 14 22 18 28 32 2 8 13 4 11 11 3 10 14 7 19 10 3 5-13-2-7 6 11 13 29 17 41 29 10 2 20 6 28 13 8 6 18 6 26 11l33 9c9 3 17 7 27 7 7 2 15 4 23 4 21 8 45 11 67 14l67 3c25 0 50-4 73-12 11-4 22-9 34-10 12-7 27-8 40-12 11-2 19-10 29-14 12-7 25-13 38-18 11-6 22-12 31-20 27-7 48-30 77-30 10-1 19 4 28 5 12 2 24 8 36 9 12 3 23 8 33 12 10 5 19 10 29 10 5-10-7-14-14-15-10-3-18-10-28-11l-21-6c-10-1-19-6-28-8-12-3-24-9-37-8-10 1-19 2-28 6l-31 11c-15 6-27 15-40 23-11 3-19 12-31 14-13 5-23 15-37 20-9 5-19 9-29 12-26 8-52 18-79 24-9 3-18 3-27 4-17 5-35 2-52 2l-58-5c-13-4-29-1-40-10-18-12-40-12-60-19-12-6-26-6-37-14l-32-17c-11-9-24-15-36-23-4-9-19-9-20-19 0-10-10-15-17-19-8-3-13-11-17-18l-13-21c-8-8-8-20-14-28-6-6-14-9-20-15-10-1-21 3-31 7-27 13-49 39-80 44l-32 9c-17 10-37 3-54 0l-23-5c-1-11 11-18 21-17 17-3 34-5 50-10l34-19 37-26c7-6 0-22-7-11-15 19-39 26-58 39-25 11-53 13-80 16-10 4-20 1-29-2-9-1-21-2-25-12-3-6-6-13-6-20-1-8-4-15-2-23 0-15-8-30-5-46 2-8 6-16 11-23l27-26c20-17 47-22 71-29 13-4 26-7 40-7 18-2 36-5 54-3 13 8 31 1 43 11 16 2 27 14 42 19 4 9 16 11 24 16 8 4 9 14 14 20l19 19c-4 7 8 8 8 16 4 10 6 20 8 30 5 8 8 17 10 26 3 9 9 17 9 26 5 8 13 15 17 26 1 7 15 17 14 4-2-8-9-12-9-20-7-8-12-18-16-27-7-13-8-27-13-41 0-9-3-20-10-26-6-5 3-12-5-16-7-8-11-18-18-25l-20-24c-6-7-15-8-21-14-7-6-15-12-25-14-14-5-28-11-43-12-8-1-17-2-25-6-9 0-20 2-29-2Zm853 3c10 4 6 18 9 27 3 20 3 40 5 59 0 9 3 16 2 24-4 11-16 13-26 16-12 3-24 4-35 10-22 3-45-1-67-2-5-18 0-37-5-55l-5-49c-1-8 6-9 11-5 10-3 22 1 33-1 11-1 22-7 34-6 16-2 30-11 44-19zm-61 0c6 4-7 4 0 0zm2200 2c10-2 13 11 4 16-10 5-15 16-27 18-36 11-75 2-112 0-11-3-19-11-28-18s2-16 10-13l30 7c20 2 40 2 60 1 20 3 40-3 58-11l5-1zm-1375 7c6 10 14 19 23 27l12 39c-6 7-10-8-14-12-4-9-10-16-15-25-4-7-8-15-9-23 0-2-1-6 3-6zm-710 0c14 0 22 14 24 26 1 10 3 19 0 29s-14 19-25 15c-11-7 7-12 11-16 10-10 6-30-8-32-9 0-20-10-10-18l8-4zm2112 9c8 6-1 16 2 24 4 11 0 22-3 32 1 9 3 17 3 26 4 7 9 17 1 24-9 10-20 18-32 26-13 6-28 5-41 9-13 2-27 3-39-2-21-7-45-5-65-15-8-8-14-17-18-27l-9-33c0-11-3-22-5-33 2-10 14-14 22-9 12 7 26 10 40 11l46 5 36-3c13-1 27-6 38-14 5-6 13-7 17-13 1-4 3-8 7-8zm-690 4c-10-3-23 3-27 13-3 10 11 15 19 16 10 1 24 0 28-11 5-12-8-19-18-18zm-1812 4c-11-4-22 7-19 18 2 9 16 10 23 5s10-18 3-23l-7-1zm3215 5c5-2 23 6 11 10-11-1 0 15-11 15-7 5-16 10-20 18 2 11 18 1 24-5 9-8 18-15 26-24 7-6 18 10 4 9-12-2-2 13-9 16-9 8-17 19-29 22-10-5-20-7-31-9-2-11 12-16 13-25 3-12 10-23 22-27zm-1683 1c6-1 7 6 0 3v-3zm-1165 2c5 5 25 6 15 17-9 9-22-5-20-15 1-2 3-3 5-2zm1136 3c10 6 15 18 23 27 1 11-2 22-4 33-5 1-6-12-9-17-7-13-12-28-13-43h3zm747 9c11 0 18 12 28 11 6 7 1 25-10 16-10-4-19-10-21-20-2-4-1-7 3-7zm-2332 1c-10 1-16 13-11 21 4 10 17 9 25 4 9-6 4-19-4-23-3-2-7-2-10-2zm141 11c-9 5-11 16-16 24-11 25-34 42-59 52-14 8-30 8-46 8-10-6-19-17-32-16-11 0-16 14-4 17 12 5 22 12 35 13 15 2 29-3 42-8 17-5 33-12 47-23 10-5 18-13 24-22 10-12 17-26 24-40 1-7-11-5-15-5Zm2818 14c10 3-7 13-12 9-4-5 9-7 12-9zm-1741 11c8 0-1 10 0 2v-1zm-1669 2c-11 1-18 14-14 23 8 4 26 3 24-9-1-6-4-13-10-14Zm3325 0c11-2 2 18-5 15-10-3-6-17 5-15zm-1652 7c5 4-6 1 0 0zm-1776 21c-8 3-15 10-16 18 4 10 19 9 23 0 5-7 1-17-7-18zm1765 4c10 2 2 22-7 12-5 0-10-7-2-8l9-4zm-228 15c-12 0-21 11-33 8-14 3-29 4-41 11-17-5-32 6-45 15l-51 30c-23 17-42 43-70 52-36 15-75 23-114 25-13 7-27 4-41 2-13-1-26-4-38-9-7-8-19-10-25-18-7-9-20-9-28-17-11-7-22-13-35-17-6-7-16-9-25-11-9-5-19-3-28-5-16-2-32-1-48-1-19 1-37 6-54 14-18 5-31 18-48 26-11 10-25 17-36 26-9 7-17 15-28 18-10 7-20 13-32 16-16 6-32 13-50 13l-63 6c-6-2-3-16-13-11-24-1-48-1-72-5-11 1-22 0-33-3-9-1-18-4-27-8-9 1-13 17 0 16 15 4 32 4 47 9 11 3 20 10 31 12 33 4 68 1 101 0l51-6c14-4 27-14 43-14 29-21 62-36 89-60 9-7 19-10 27-16 10-7 22-11 33-16 31-8 64-10 95-3 10 1 21 3 29 10l37 20c19 10 39 22 57 35 19 9 41 15 62 11 9-1 17-2 25-1 11 4 21-3 31-4 16-5 33-7 48-10 19-9 38-19 59-21 16-9 25-26 41-36 16-13 35-21 52-32l19-13c13-6 26-9 40-11 9-1 16-6 25-4 27 1 53-11 79-3 17 4 35-1 51 5 18 8 38 9 54 21 8 4 15 8 24 11 9 7 17 17 27 23 13 13 29 21 45 29 13 9 26 18 40 24 13 7 27 10 41 15l40 17c15 6 33 8 49 5 19-2 38-3 56-10 21-6 43-7 64-15 24-9 47-22 65-42 6-3 13-5 18-10 14-9 27-21 40-32 6-6 14-9 21-14 29-16 64-20 95-11 16 2 29 10 41 19 18 8 29 24 40 40 9 12 19 24 27 37 10 15 20 30 34 42 6 6 13 14 22 15 16 10 34 15 52 22 23 7 49 6 71-2 14-5 28-8 41-11 6-4 11-8 18-6 11-3 18-12 29-15 10-4 15-17 27-19 9-6 16-16 26-21 9-7 15-17 24-23 9-7 20-12 29-20l24-18c10-6 22-6 33-10 14-1 29-3 44 0 10 4 21 5 32 8l29 10c12 2 19 14 31 18 15 8 32 14 42 28 4 8 9 17 15 24l16 19c5 16 21 26 32 37 13 11 30 15 45 22-13 8-27 14-41 19l-41-3c-9 0-20-1-28-6-12-2-19-14-29-20-12-8-19-21-30-30-7-13-23-20-33-30-13-11-29-20-46-19-12 1-24 2-36 1-7 0-18 2-20 11 2 9-10 11-15 16-16 10-31 22-48 30-23 12-48 21-70 35l-41 17c-16 8-34 14-52 14-30 1-59 0-89-1-12-2-24-4-34-10-10-1-17-9-26-12-12-3-24-8-34-14-9-9-23-12-30-24-6-8-13-14-17-22-12 3-15-11-14-20-4-10-15-13-21-22-8-6-20-6-27-14-8-5-19-6-27-12-6-10-20-7-30-3-9 3-16 12-27 13-16 9-31 18-48 24-24 9-47 20-66 37-10 5-18 15-30 15-16 3-31 7-45 15-13 4-27 3-40 9-17 4-35 6-52 5-13 2-24-4-36-5s-23-1-34-5c-13 2-25-6-37-7-12-9-28-11-41-17-11-3-19-11-30-14-7-3-13-8-20-12-8-5-15-10-24-12-3-10-17-8-25-14-11-6-24-9-35-14-11-7-23-11-35-16-10-4-21-8-31-10-7-1-13 4-18-4-6-5-14 0-20-6-8-6-17-3-25-1-9 2-18-1-27 2-4 8-8-13-15-3-15 4-30 5-45 10a113 113 0 0 0-61 42c-15 6-28 16-43 22l-35 16c-8 4-15 13-25 13-19 6-39 16-60 11-12-5-25-1-37 1-17 0-31-10-47-12-12-4-24-9-36-11-4-6-16-7-19 0 4 10 19 5 26 11l32 11 39 10 29 1c19 0 39 2 57-1 13-2 23-10 34-15 11 1 17-11 28-10 12-2 18-15 28-21 7-6 12 13 19 3 12-5 19-18 30-25 12-10 22-24 38-28 6-6 14-4 21-7 14-5 27-9 41-11 9 0 18 4 27 2 10-1 20-3 30 0 12 2 23 9 35 10 12 5 23 10 36 12 9 8 25 4 33 14 8 7 18 9 28 13 12 5 23 13 34 20 10 6 19 12 30 16 7 4 12 10 20 10 7 1 15 2 19 8 9 7 22 7 31 13 12 5 24 7 35 11 14 3 29 6 43 7 13 6 28 5 43 6 11 0 22-2 34-1 8-5 19 0 27-5 10-1 19-1 28-5 9-3 17-4 25-8 18-8 41-5 57-18 5-11 16-16 25-22 14-6 27-13 39-23 8-6 18-3 27-6 18-2 31-17 45-27 24-5 47 7 66 20 8 6 16 12 21 21 13 16 26 32 41 46 6 6 11 14 19 18 11 6 23 10 34 17l34 16c16 2 32 8 47 12 15 3 28-7 43-3 10 2 20-1 30 0 12 2 25 2 37-2 11-3 23-3 33-10 9-5 19-6 26-12 19-9 41-11 56-27 6-6 15-4 21-10 7-6 16-12 26-13 6-2 9-9 16-8 7-9 20-10 28-18 9-6 18-11 28-15 9-1 18-4 26 0 10 4 18 10 27 13 13 11 23 25 34 37 6 10 18 14 24 24 8 8 19 10 27 18l27 10c9 3 19 5 29 4 18 2 38 5 53-6 14-10 33-7 46-18 22-5 37-24 53-39 6-8 13-18 11-28-6-8-16 1-22 5-4 6-12 5-17 10-6 5-12 9-19 10-18 6-36 0-51-8-13-5-21-16-33-22-9-8-14-20-23-28-9-11-14-25-25-34-10-10-20-20-33-26-10-8-22-12-33-19-12-7-25-12-38-15-20-6-41-5-62-5-16 2-31 4-46 10-8 3-18 3-24 10-11 11-25 18-36 28-16 13-31 29-47 43-9 4-16 10-23 17-18 14-39 27-62 31-19 5-36 12-56 14-10 2-21 0-32-1-15-4-29-11-44-18-9-5-21-8-31-13 7-6-8-12-11-18-9-7-16-17-20-28-3-10-11-15-18-22-7-8-11-17-17-26-13-14-27-28-43-38-9-7-20-13-32-14-10-1-19-7-30-6-15 1-29 6-45 6-23 5-46 14-63 30-13 8-21 23-36 29-13 13-33 18-45 33-13 11-27 19-44 24-11 5-24 6-37 9l-61 11c-17 2-34 2-50-3-10 0-17-5-24-11-16-4-31-11-47-17-9-3-18-8-28-9-11-4-15-18-28-21-13-5-22-17-34-24-8-6-14-15-24-18-3-9-15-8-21-13-10-5-21-9-30-15-12-5-24-9-36-11s-23-6-35-4c-12 0-23-5-35-7l-34-3zm1763 23c-15 4-31 5-43 15-4 9 2 21-3 30 5 14 5 29 5 44 10 8 24 7 36 8 13 0 29-2 36-15 7-8 5-21 4-31-4-11 7-19 7-29-3-7-12-9-18-14-7-4-15-8-24-8zm549 2c-3 3 5 1 0 0zm-556 10c9 3 20 10 23 17-8 5-19 12-28 5-9 2-17-9-11-17 3-6 10-3 16-5zm16 34c6 5 4 15 5 22-1 8-3 20-13 19-8-1-21 0-21-11l-3-24c4-7 15-4 23-5l9-1zm323 18c-13-2-25 5-38 5-9 3-20 5-24 14-1 8 5 17 0 25-3 9-11 19-9 29 4 7 5 16 11 21 8 2 18 3 27 2 14 3 33 2 42-11 3-8 3-17 6-25 2-12 4-24 4-36-1-8-3-19-11-22-3-2-6-2-8-2zm-3268 14c-8-3-16 3-7 10 1 11 20 4 20 16 5 9 23 10 27 15-1 9 11 11 18 13 8 1 18 7 26 3 4-8-8-10-13-11l-26-10c-8-14-26-15-35-27l-10-9zm3251 5c6 0 15 3 6 9-3 7-12 6-18 5-9-1-12-15-1-13 5 1 9-1 13-1zm-135 6c-19 4-40 0-59 5-9 6-7 18-5 27 2 10-1 20 2 29 5 9 5 24 17 25 16-2 33 0 49-1 7-1 19-3 18-13-5-11-1-22 1-33 0-9 4-17 4-26-4-10-18-13-27-13Zm-14 10c7 0 19 2 19 10-5 6-14 7-21 10-8 2-16 1-23-3-8-1-9-10-1-11 7-5 15-6 23-4l3-2zm155 11c12 1 4 14 2 21-1 11-15 12-24 12-10 1-14-10-11-19 0-9 10-15 18-11l15-3zm-143 17c11 0 3 15 6 21 3 13-10 12-18 11-9-4-21 4-28-4-3-7-4-16-4-23l34-1c3 0 6-4 10-4z" style="display:inline;opacity:1;fill:#000;fill-opacity:1"/>
</svg>
