<svg xmlns="http://www.w3.org/2000/svg" version="1.0" viewBox="0 0 2923 1573">
  <style>path{fill:#000}@media (prefers-color-scheme:dark){path{fill:#ccc}}</style>
  <path d="M982 0c-26-3-42 26-22 43 2 34-44 35-68 32-26-8-4-59-38-51-30 13 1 53-25 67-20 9-55 18-51-16 7-27-33-45-40-14-8 29 23 59 1 85-24 24-39-14-43-34 0-24-38-55-47-21 1 23 14 43 18 66 9 26 15 55-11 74-20 25-31 55-51 79-23 26-27 63-22 96-5 29 3 58 2 86 7 39 20 77 35 114 16 32 36 62 56 91 14 22 32 40 48 59 20 24 47 42 78 51 30 12 58 28 88 42 28 7 57 0 86 2 38-3 73-17 111-21 29-15 62-17 90-33 35-13 79-18 99-53 25-36 54-68 70-108 15-27 24-57 32-87 7-28 11-57 22-84 12-37 0-75-2-112-5-25-15-48-15-74-16-17-23-39-33-60-23-13 3-52-31-59-28-5-29-30-19-52-3-19 17-55-6-62-26 11-14 46-31 63-24 11-51-12-71-23-13-11 16-49-15-38-6 6-11 18-19 22-11 5-26 2-37-6-33 3-16-24-22-28-7-4-22-4-24 2-11 26-43 31-68 28-23-14-1-51-25-66Zm108 99c19 5 57 6 42 36-1 20-21 68 11 66 21-18 9-53 27-73 24-7 43 17 66 20 32 10 14 44 12 66 12 25 26-3 29-17 20-25 33 17 44 30 34 50 54 111 49 172-1 69-18 137-42 202-16 34-36 66-59 96-18 20-35 40-61 50-32 14-64 30-96 46-57 26-121 43-184 37-24-9-47-21-72-29-42-16-82-39-108-76-54-60-98-129-118-207-6-35-6-71-10-106-2-28-2-58 13-82 15-52 60-86 93-126 11-28 49-5 54-37 5-22 47-54 59-23 0 27 29 18 25-4-2-31 31-30 52-31 21-4 38 11 32 30 27 20 27-41 57-32 26-10 50 6 35 33 20 19 29-18 37-32 3-4 7-7 13-9zM309 286c-29 4-62 19-61 53-12 23-19 52-35 71-29-10-33-49-60-63-21-12-32-47-60-39-22 6-37 35-21 54 7 28 23 55 30 81-19 21-54 11-79 18-33 8-25 50-11 71 13 19 51 24 34 54-14 22 0 48 26 49 25 8 51 3 77-1 15 0 58 7 50-17-23-17-55-5-81-8-22 7-73-5-42-32 18-7 55 4 49-29-16-9-39 2-56-9-16-7-34-18-38-36 1-32 40-22 61-23 16-4 29-29 38-3 6 22 40 19 31-6-16-26-42-46-44-80-5-12-18-58 6-38 22 21 40 48 60 71 12 32 44 17 56-6 22-29 31-66 54-94 20 23 25 56 29 85 1 31-20 56-30 84-16 26-37 50-63 66-19 2-33 37-4 30 26-11 45-33 62-55 12-21 30-8 31 11l56 137c24 48 52 93 75 140 22 38 46 77 80 105 18 21-1 47-12 67-4 18-12 58-39 47-15-14-24-34-38-49-20-27-36-58-55-85s-24-60-43-87c-20-34-40-67-56-103-14-22-7-60-39-68-17 8-50-24-57 3 7 17 18 42 41 38 23 24 34 56 50 85 15 27 31 54 42 83 13 28 36 51 44 82 8 23 29 38 40 60 10 17 20 36 38 47 14 16 29 59 57 38 21-18 26-47 40-70 6-28 15-58 44-70 29-26 59-53 79-86 4-33-37-9-39 10-18 19-39 62-69 48-17-18-30-38-43-59-28-47-70-85-85-138-12-32-30-61-38-95-12-29-33-54-46-83-1-19-9-40-27-41 0-27 26-47 27-75 7-28 5-57-3-85-4-21-14-45-33-55Zm823 16c-24 16-32 59-13 81 28 19 55-19 40-45-4-15-12-30-27-36Zm1720 0c-49 7-90 37-136 52-14 5-46 6-30 28 27-1 57-14 85-23 29-12 59-26 85-44 8-6 10-18-4-13ZM887 327c-29 8-44 56-11 69 29 18 55-15 40-42-4-13-15-25-29-27Zm1487 29c-29 10 8 41 5 61 9 34 8 69 6 103 0 41-4 81 1 121 3 32 0 64 0 96-1 41-18 79-21 119-4 20 5 57-28 46-36-8-67-27-103-35-23-5-45-15-62-32-21-20-50-16-76-19-24 1-11 28 8 24l70 35c29 11 60 16 87 30 23 9 48 13 72 22 22 2 54 14 67-12 3-28 2-57 14-83 3-29 11-60 5-90 5-36-10-71 1-106 14-31 4-61 5-93 4-44-6-88-16-131-4-21-7-54-35-56zm-31 1c-33 10-60 32-88 51-33 26-70 50-111 64-24 11-46 28-63 49-27 10-57 2-86 5-35-3-71-5-106-3-72-3-142 22-214 15-26 0-57 1-81 15 5 36-13 22-44 19-21-3-31 39-33 62-2 25-3 47-10 71-1 25-13 57 10 76 22 8 48 25 72 15 29-20-12-39-32-40-24-19-1-57-12-83 1-24-9-67 18-78 29 3 48-4 48 43 1 20 6 37 3 58-3 17-5 40-4 58 1 21-2 49 18 62 27 7 56 3 83 2 28-1 56 11 83-3 29-7 60 4 90 1 38 6 77 4 114 12 19 20 2 47-3 69 7 24-37 64-46 29 2-19-23-23-35-30-30-1-61 9-91 11-27 4-57 4-81 17-12 15-23 34-22 54-8 19 7 59 24 26 1-14 2-63 23-42-2 22 11 50-8 67-20 7-27 34 0 36 24 3 44 19 69 16 23-1 47-6 69 1-29 30-68 46-102 69-25 17-57 13-85 20-28 6-56 8-84 6-16-3-29 9-9 19 26 10 54-5 81-3 41-3 85 1 121-21 31-14 58-35 86-55 25-12 33-37 33-62 9-13 7-41-13-24-15 21-41 20-64 20-26 0-51-4-76-9-6-26 22-47 11-74-7-31 38-49 49-19 9 23-18 59 6 72 30-14 21-52 25-78 3-22 56-38 48-4 4 24 1 57 19 73 14-21 23-46 49-58 31-21 38-60 49-94 1-25 20-40 37-57 21-25 21-60 14-90-9-34-5-68-7-102-9-34 9-69 38-87 23-26 59-31 84-55 39-27 78-55 120-78 9-7 38-24 16-34zm-947 101c7 3-7 3 0 0zm1521 47c-39 7-77 22-117 20-15 0-53 5-42 24 33 2 68 7 100-8 20-9 58-13 62-35zm-1861 19c-54 2-110-2-162 16-29 24-26 69-11 101 11 28 41 41 70 40 37 1 74-7 111 0 26-1 56 2 79-14 22-16 57-20 59-53 3-23 20-58-11-71-23-9-47-22-74-18-21-1-41-2-61-1Zm-86 25c50-1 100 4 149 4 25 5 70 5 61 43-4 31-33 43-59 49-32 12-67 10-100 7-26-3-51-1-77 0-35-4-60-45-50-78 13-31 49-26 76-25Zm970 8c33 10 68-2 100 9 16 23 3 53 10 79 5 35 12 71 0 106-1 26-20 50-48 38-30-9-62 0-92-5-54-8-108 2-162 1-29 1-59 5-88-3-19-22-13-55-19-81 2-28 1-56-2-83-4-45 0-38 42-37 36 3 71-5 105-12 51-8 104 0 154-12ZM209 668c6 6-7 6 0 0zm2577 54c-21-5-36 21-6 21 36 11 75 22 113 16 22-16-9-27-25-23-27-3-54-13-82-15zM1689 840c-34 1-33 44-43 68-1 21 6 51 31 53 23 7 60-29 23-37-33-12-16-51-9-75v-5zm-406 8c-22-9-57 28-23 35 28-3 55 2 79 16 21 9 42 33 66 21 27-24-21-38-36-50-24-20-59-11-86-22Zm1474 43c-18-4-42 24-12 27 33 16 61 43 98 50 26 9 42-29 12-35-33-12-61-41-98-42zm-1293 30c-33-3-18 40-22 60 2 20-26 46-35 17-8-25-59-14-35 12 17 24 45 35 64 56l73 58c23 19 43 42 67 59 31 8 12-31-2-40-22-22-49-39-66-65-18-20-57-32-43-67 4-18 7-68 35-42 36 19 75 33 114 45 26 2 57 12 59 43 14-4 3-24 18-31 19-33-33-20-50-31-29-12-60-21-90-33-29-11-52-34-82-41zm-115 103c-34 5-13 47-9 69 12 39 22 80 23 121 5 32 21 63 14 96-6 29 13 56 17 84 10 23 13 54-16 63-30 21-61 42-98 49-41 12-82 25-124 30-22 0-45-2-67-4-40-7-81-13-122-18l-146-23c-19-2-51 1-54-24 14-27 6-56 7-84 16-28 2-59 8-88 9-28 19-56 22-86-4-30 8-62-6-90-8-28 6-57 2-85-28-19-55 15-84 12-50 8-97 33-147 31-17-6-46 16-17 22 41 9 82-8 123-12 25-3 50-13 76-16 23 6 7 39 11 58-1 35-11 70-11 106-2 31-8 61-9 92 0 34-12 69-3 103 6 16 29 13 17 33 1 22-30 55 5 59 30 4 60 4 89 12 33 10 67 8 99 16 43 9 87 12 130 21 32 0 64 4 97 2 57-5 106-38 157-62 24-19 52-31 77-47 32-15 31-53 20-81-14-29-12-61-16-92 0-27-15-52-12-80-3-30-25-57-25-88-8-29-14-58-16-87-2-6-6-11-12-12zm1333 34c-34-12-40 41-5 39 34 19 62 45 92 68 20 14 59-14 24-25-28-16-48-44-75-63-10-10-21-21-36-20zm-1015 10c-9 5 8 5 0 0zm-473 89c-27 8-61 19-61 53-7 23-19 53 3 72 18 17 39 41 67 34 27-10 42-38 47-64-6-27-56-39-70-16 1 24 58 14 31 43-24 25-60-5-57-34-1-29 9-62 43-67 15-3 16-27-3-21zm-170 25c-25 10-49 30-39 59-3 16-4 66 21 41 20-25 47-9 65 9 19 16 30-12 13-24-23-19-28-46-36-72-4-9-14-15-24-13zm-122 2c-26 14-46 44-41 74-8 25 10 60 39 53 32-11 28-52 32-79 1-19-5-49-30-48Zm0 25c11 23 8 66-14 76-19-15-12-52 4-68l10-8zm120 0c27 6-16 51-10 18 2-7 4-14 10-18zm-247 35c18 4-11 9 0 0z" style="fill:#000"/>
</svg>
